<svg id="Layer_1" data-name="Layer 1" xmlns="http://www.w3.org/2000/svg" viewBox="0 0 815.83 367.76"><defs><style>.cls-1,.cls-4,.cls-6{fill:#293778;}.cls-1,.cls-2,.cls-3{fill-rule:evenodd;}.cls-2{fill:#5893cf;}.cls-3{fill:#40a5dd;}.cls-5{fill:#fefefe;}.cls-6{font-size:143px;font-family:FranklinGothic-HeavyItalic, Franklin Gothic Heavy;font-weight:800;font-style:italic;letter-spacing:-0.02em;}.cls-7{letter-spacing:0em;}</style></defs><path class="cls-1" d="M471.85,539.7V486.43c35.44-7.51,29.68,57.3,0,53.27Zm71.41,73.73c3.86-47.22,6.18-96,0-144h45.55a513.89,513.89,0,0,0-1.93,123.92c17.63,5,35.64-.77,52.89-2.32l-1.55,22.39c-27-1.29-53.27-1.8-79.9-1.54l-15.06,1.54Zm-112.72,0c5.41-48.12,6.95-96.25,0-144.37H495c72.33-.8,44.14,98.58-23.16,77.59,0,22.26,1.93,44.52,3.47,66.78Zm-58.29-.38c4.89-47.87,6.31-96.12-.38-143.61h45.55c-4.64,48.77-5,96,0,144l-45.17-.38Z" transform="translate(-138.81 -418.93)"/><g id="player"><path class="cls-2" d="M272.93,419c-51.91-.88-95.47,55.43-95.47,55.43h6.38c91.3-86.77,179-.82,119,94.15-32.12,54.12-75.23,62-75.23,62,42.16-6.88,67.51-40.07,67.51-40.07,48.07-38.57,73.46-174-22.2-171.55Z" transform="translate(-138.81 -418.93)"/><path class="cls-3" d="M149.3,523.68s13.2-32.56,21.56-39.16l1.76,2.64s-18,22.88-23.32,36.52Z" transform="translate(-138.81 -418.93)"/><path class="cls-4" d="M215.34,737.35s.11-7.1,2-7.83c0,0,9-6.67,10.64-9.49,0,0,6.06-9.6,8.45-11.17,0,0,2.39-5.42,3.54-5.73l4.49-10.33s10.65-7.63,12.21-11.17c0,0,2.4-5.21,3.65-5.42,0,0,1.78-17.53.42-23.48,0,0-.83-11.68-1.77-12.83,0,0-2.4-14.29-6.26-16.9,0,0,16.06-8.35,23.89-15.34,0,0,15-12.52,18.37-16.91l3.76,3.23s2.61,0,2.19,5c0,0,6.57,7.1,7.4,8.56l5.22,5.53s5.1,2.5,9.07,11.06c0,0,12.84,23.38,13.15,26.71,0,0,6.15-5.84,11.58-2.5,0,0,4.19,3.34,1.47,7.72l-12.42,16.07s-6.89,2.82-8.77,3.13c0,0-5.42,1.78-12.62,11l-32.55,30.46L277,718.25s-2.2,7.32-1.67,10.23c0,0-.52,5.74-2.09,6.78,0,0-6.16-.61-7.62-3.65l-6.15-7.93S247.06,735.27,240,747c0,0,.73,4.17-.93,5.42,0,0-19.41,4.81-22.86-3.33,0,0-.51-6.68-1.45-6.68,0,0-.42-5,.62-5Z" transform="translate(-138.81 -418.93)"/><path class="cls-5" d="M219.21,746v-6.36s2.07-4,5.73-2.71c0,0,9.71,1.15,9.92,4.69l1,3.76a2.15,2.15,0,0,1-1.25,3.33s-10,2-15.43-2.71Z" transform="translate(-138.81 -418.93)"/><path class="cls-5" d="M269,728.8l-3.24-5.32s-.83-1.89,1.57-1.78a38.06,38.06,0,0,1,5.21-1.26s.74,5.95-.1,9.39a2.65,2.65,0,0,1-3.44-1Z" transform="translate(-138.81 -418.93)"/><path class="cls-5" d="M277.63,661.81s4.39-3.54,12.84-2.5c0,0,7.72,1.86,8.76,3.85,0,0-9.49-4.28-15.44-2.5l2.4.31s-7,.32-8.56.84Z" transform="translate(-138.81 -418.93)"/><path class="cls-5" d="M325.32,669.84s4.81-6.57,7.52-6.57c0,0,8.44-2.83,3.22-11.69,0,0,7.2-6.14,11.27-2.29,0,0,1.47,2.39,1.16,3.85,0,0-5.33,6.06-8.56,8.25,0,0-7.82,6.68-9.6,6.57a7.83,7.83,0,0,1-5,1.88Z" transform="translate(-138.81 -418.93)"/><path class="cls-4" d="M196.67,527s-6.15-9.49-5.64-14.39c0,0-1.78-3.45,4.17-11.79,0,0,7.92-12.1,22.23-5.32,0,0,4.28,1.14,8.87,10.53,0,0,6,3.14,6.89,3,0,0,1.14,2.61-5,5.42l1.77,4.29s4.69-.94,4.8-1.67l.42,2.08h0l.14.67.07,0,.51,2.4s7.52-7.21,12.21-12.11c0,0,2.19-7.82,3.87-10.95,0,0-2.2-12-1.68-12.42,0,0,4.8-4.18,10.65-3.24,0,0-1.57-5.83-4.28-5.42v-1.25S248.1,478,248.84,485c0,0-3.24,1.57-7.2-1.56l-2.61-7.2s-2.7-1.89-5.42,2.29c0,0-29.43,6.16-51.34,9.49,0,0-31.42,4.81-41.53,1,0,0-4-7.1-.52-11.06l6.26.1s-6.47,1.26-7.09,3.14c0,0,30.67,2.39,45-2.62,0,0,43.84-7.71,49.26-9.07,0,0-.73-2-2.2-1.46,0,0-42.37,7.09-50.61,6.78,0,0,43.73-7.62,50-7.52,0,0,1.78-1,5,2.3a6.44,6.44,0,0,0,1.88-1.56s-.22,3.75,1.66,3.75c0,0,.12,2.09.84,2.09L243,478s12.63-4.18,15-5.12c0,0-.2-2.6-.62-2.71L242.26,475l-3.44-6.26,3.34,4.7s10.43-3.13,15.44-4.28L256,463.14s1.45,3.66,1.87-1.15l.74,3.13s3.54-.31,1,3.45a70.6,70.6,0,0,0,1.46,7.51l6.67,3.24-3.33,2.08,3.86.11s-5.21,3.44-3.75,5.95a6.13,6.13,0,0,0,7.29.72s2,1.88,2.72,1.88c0,0,.73,1.89-1.67,3L268.35,513s-1.15,5.33-2.92,6.68l-12.32,23.37s17.43,14.41,19.31,18.57l12.84,19.93-.11,2.3,3.33,1.56s-16.06,22.75-37.77,35.06c0,0-2.61-4.6-.42-11.48,0,0-3-8.35-2.28-8.35,0,0-1.27-4.38-3.35-5.63l-21.8-19.41-15.55-14.51s-2.31-1.77-2.09-13c0,0-4.79-1.35-3.34-5.32,0,0-3.33-5.43-2.5-6.36,0,0,4,0,4.49-.94,0,0,3.24,3.87,5.95,3.65,0,0-6.48-5.22-7.42-4.59,0,0-4.58-2.09-5.11-4,0,0,4.29,4.07,3.45,1.36l-3-2s-.32-2.83-1-2.93Z" transform="translate(-138.81 -418.93)"/><path class="cls-4" d="M239.79,460.07l15.65-1.57V460s-2.9-1.49-3.91,1.17c0,0-2.74-3.21-4.23.08,0,0-3.68-2.82-4.69,1.1a18.1,18.1,0,0,0-2.82-2.27Z" transform="translate(-138.81 -418.93)"/><path class="cls-4" d="M258.41,459.52s.86-2,3.92-.94c0,0,10.72-1.17,12.44,2.42,0,0,1.64,3.6,1.64,5.25l5.32,1-.62,6-2.74,1.41s-.55,6.18-.71,7.59c0,0-1.72-9.31-5.16-7.12,0,0-3-.24-4.07-1.72l-4.15-2.12,4.15.55s4.7.86,1.88-2.74c0,0,6.49,1,3.6-1.64l1.56-.55s-1.17-6.49-2.5-7c0,0-1.64.31-1.33,1.64,0,0-2.19-4-4.31-.86,0,0-1.72-2.27-3.83-1.17a6.05,6.05,0,0,0-5.09-.08Z" transform="translate(-138.81 -418.93)"/><path class="cls-5" d="M198.75,525.22s-.47,3.76,1.17,5c0,0,9.08,7.83,11.66,8.53,0,0,12.68,1,23.55-6.65,0,0-.39-6.57-.7-6.73l2.19-1.72v-1l-2.42,1.8-1.33-3.29,2.58-1.48-.39-1a97.77,97.77,0,0,1-23.72,8.3l-6.65,1.56s-3.6.94-3.83-4.93l-.39.31s-.39,5.72,4.14,5.72c0,0,24.19-6.11,27.32-7.91,0,0,1.33,1,1.8,10.25,0,0-18.94,9.63-24.73,3.84l-8.14-5.95s-2.43-3.13-2.11-4.62Z" transform="translate(-138.81 -418.93)"/><polygon class="cls-5" points="74.06 118.73 77.73 107.93 78.99 107.38 75.39 118.65 74.06 118.73 74.06 118.73"/><path class="cls-5" d="M226.41,534.93s-.86-9.55-2.35-10.88l1.56-.24s1.41,8,1.88,10.8l-1.09.32Z" transform="translate(-138.81 -418.93)"/><path class="cls-5" d="M204.49,530.07s.16,4.62,13.93,1.49c0,0,13.07-2.43,17.92-8.06l-.15-.94a29.3,29.3,0,0,1-16.67,7.2s-9.63,3.21-15,.31Z" transform="translate(-138.81 -418.93)"/></g><text x="-138.81" y="-418.93"/><text class="cls-6" transform="translate(233.06 311.17)">A<tspan class="cls-7" x="87.49" y="0">UCTION</tspan></text></svg>