<?xml version="1.0" standalone="no"?>
<!DOCTYPE svg PUBLIC "-//W3C//DTD SVG 20010904//EN"
 "http://www.w3.org/TR/2001/REC-SVG-20010904/DTD/svg10.dtd">
<svg version="1.0" xmlns="http://www.w3.org/2000/svg"
 width="992.000000pt" height="463.000000pt" viewBox="0 0 992.000000 463.000000"
 preserveAspectRatio="xMidYMid meet">

<g transform="translate(0.000000,463.000000) scale(0.100000,-0.100000)"
fill="#000000" stroke="none">
<path d="M3137 4409 c-9 -6 -641 -8 -1476 -7 -1182 2 -1462 1 -1466 -10 -2 -7
-5 -948 -5 -2091 0 -1736 2 -2080 13 -2090 10 -8 415 -11 1497 -11 816 0 1485
2 1487 4 9 9 5 428 -4 437 -6 6 -476 10 -1249 12 l-1239 2 -3 1614 c-1 888 2
1619 6 1623 5 5 562 10 1238 11 676 1 1236 5 1244 10 9 4 14 19 13 40 -1 17
-2 127 -2 243 -1 198 -2 212 -20 217 -10 2 -25 0 -34 -4z"/>
<path d="M4119 4381 c13 -3 28 -15 32 -26 7 -19 8 -19 8 1 1 22 -17 35 -47 33
-10 -1 -7 -4 7 -8z"/>
<path d="M3486 4346 c3 -17 16 -42 30 -57 13 -14 24 -28 24 -32 0 -7 187 -336
202 -354 5 -7 25 -10 46 -8 20 2 51 4 68 4 30 1 37 9 108 128 42 70 76 136 76
145 0 9 6 21 13 25 21 13 87 128 87 152 0 16 -6 21 -27 21 -16 0 -56 2 -90 4
-35 2 -79 0 -98 -4 -19 -4 -37 -5 -40 -1 -2 4 -18 6 -35 3 -35 -5 -49 -37 -30
-72 10 -18 18 -21 57 -17 74 6 87 -23 36 -78 -11 -11 -31 -46 -46 -78 -35 -74
-63 -78 -94 -14 -33 69 -134 247 -144 252 -4 3 -40 7 -78 8 l-71 3 6 -30z"/>
<path d="M4860 4378 c-1 -2 -2 -56 -2 -120 -1 -64 -5 -115 -9 -113 -3 3 -6 -6
-6 -20 0 -14 3 -23 7 -20 4 2 16 -5 28 -15 18 -17 34 -20 99 -18 l78 2 -75 6
c-70 6 -68 7 46 8 82 1 124 -2 132 -10 9 -9 12 -9 12 1 0 16 217 12 229 -4 20
-25 22 -57 5 -76 -14 -16 -31 -19 -101 -19 -54 0 -82 4 -78 10 4 6 -28 10 -89
10 -57 0 -96 -4 -96 -10 0 -6 -27 -10 -60 -10 -33 0 -60 4 -60 9 0 14 -49 8
-55 -7 -3 -7 -9 -11 -14 -8 -11 7 -2 -34 10 -50 5 -6 7 -13 4 -16 -8 -7 12 -9
115 -12 l95 -3 -85 7 c-53 4 23 6 200 7 167 0 269 -3 245 -8 -35 -7 -32 -7 18
-4 42 3 55 0 50 -8 -3 -7 2 -4 13 5 18 16 20 29 18 133 -2 64 -7 122 -13 129
-6 7 -7 17 -3 21 4 5 1 5 -7 0 -7 -4 -121 -8 -253 -9 -181 -1 -244 2 -258 11
-21 15 -34 63 -25 92 6 19 16 19 279 18 151 -1 272 1 270 5 -2 4 0 9 6 13 5 3
10 1 10 -5 0 -6 5 -8 11 -4 8 4 7 9 -2 14 -7 5 -13 17 -14 27 -3 43 -6 43
-258 41 -169 -1 -215 -4 -152 -8 80 -6 73 -6 -60 -7 -87 0 -137 3 -120 7 25 6
20 8 -27 9 -32 0 -58 0 -58 -1z m493 -15 c-18 -2 -48 -2 -65 0 -18 2 -4 4 32
4 36 0 50 -2 33 -4z m100 0 c-7 -2 -21 -2 -30 0 -10 3 -4 5 12 5 17 0 24 -2
18 -5z m-295 -380 c-15 -2 -42 -2 -60 0 -18 2 -6 4 27 4 33 0 48 -2 33 -4z"/>
<path d="M6244 4367 c-19 -11 -21 -19 -18 -135 2 -67 6 -127 9 -132 4 -6 1
-10 -4 -10 -6 0 -11 5 -11 11 0 5 -5 7 -10 4 -19 -12 2 -26 30 -20 15 3 31 2
34 -3 3 -6 23 -8 43 -5 21 3 52 5 68 5 48 -1 317 0 345 2 14 0 31 -4 38 -11
15 -14 16 -59 1 -69 -6 -3 -127 -7 -270 -8 -268 -1 -284 -4 -284 -43 0 -10 11
-28 24 -41 20 -20 27 -22 48 -13 13 6 45 10 71 9 l47 -1 -50 -7 c-29 -4 46 -8
178 -8 156 -2 233 2 246 9 11 8 29 9 47 4 16 -5 35 -7 43 -6 8 1 10 -2 5 -10
-5 -8 -3 -10 7 -4 26 15 49 38 49 49 0 7 -3 7 -8 -1 -4 -6 -6 42 -5 108 2 136
-4 150 -65 147 l-37 -1 35 -4 c37 -5 60 -19 60 -36 0 -6 -6 -3 -12 6 -11 14
-45 16 -266 18 -189 2 -255 6 -263 15 -15 18 -18 82 -5 93 6 5 128 8 270 7
224 -2 262 0 276 13 14 14 14 21 4 46 l-12 30 -319 2 c-228 1 -324 -2 -339
-10z"/>
<path d="M7662 4371 c0 -3 -1 -10 -2 -16 -1 -5 -2 -93 -2 -195 -1 -167 -2
-175 -8 -80 l-7 105 1 -125 c1 -69 5 -131 9 -137 6 -10 81 -13 318 -13 171 0
308 -4 305 -8 -6 -10 35 -9 52 1 6 5 12 18 11 30 -1 21 -1 21 -8 -2 -4 -14
-12 -26 -19 -27 -7 -1 -8 0 -2 3 14 6 14 439 0 448 -6 4 -8 9 -6 13 2 4 -18 5
-46 3 -27 -1 -51 -8 -54 -15 -8 -22 -10 -297 -2 -302 15 -9 8 -53 -9 -62 -14
-7 -384 -10 -415 -3 -4 0 -6 13 -6 29 2 116 -4 329 -10 338 -7 12 -102 26
-100 15z"/>
<path d="M9058 4370 c-2 -6 -13 -12 -25 -12 -14 -2 -19 -7 -15 -17 3 -8 1 -12
-5 -8 -5 3 -10 0 -10 -8 0 -8 3 -13 5 -10 3 3 10 -2 16 -10 8 -11 40 -15 134
-17 86 -1 126 -6 134 -15 7 -9 8 -66 4 -179 -4 -92 -8 -172 -9 -178 -1 -6 15
-9 38 -9 38 2 38 1 10 -7 -28 -7 -28 -8 13 -9 30 -1 41 2 36 11 -5 7 -1 9 13
6 11 -3 20 0 20 6 0 6 3 25 7 41 5 22 4 26 -4 15 -7 -11 -10 25 -10 120 0 74
-3 145 -6 157 -9 34 20 41 172 45 l139 3 2 25 2 25 -9 -25 c-8 -23 -9 -22 -7
10 1 28 -1 34 -16 32 -9 -2 -17 2 -17 8 0 8 -34 10 -112 6 -62 -3 -180 -7
-263 -9 l-150 -3 145 6 145 6 -187 2 c-122 1 -188 -2 -190 -8z m500 -7 c-15
-2 -42 -2 -60 0 -18 2 -6 4 27 4 33 0 48 -2 33 -4z"/>
<path d="M4842 4320 c0 -19 2 -27 5 -17 2 9 2 25 0 35 -3 9 -5 1 -5 -18z"/>
<path d="M8333 4315 c0 -22 2 -30 4 -17 2 12 2 30 0 40 -3 9 -5 -1 -4 -23z"/>
<path d="M7642 4285 c0 -16 2 -22 5 -12 2 9 2 23 0 30 -3 6 -5 -1 -5 -18z"/>
<path d="M9283 4180 c0 -25 2 -35 4 -22 2 12 2 32 0 45 -2 12 -4 2 -4 -23z"/>
<path d="M9424 4115 c0 -60 1 -84 3 -52 2 32 2 81 0 110 -2 29 -3 3 -3 -58z"/>
<path d="M5083 4183 c9 -2 25 -2 35 0 9 3 1 5 -18 5 -19 0 -27 -2 -17 -5z"/>
<path d="M5263 4183 c9 -2 23 -2 30 0 6 3 -1 5 -18 5 -16 0 -22 -2 -12 -5z"/>
<path d="M5398 4183 c17 -2 47 -2 65 0 17 2 3 4 -33 4 -36 0 -50 -2 -32 -4z"/>
<path d="M5028 4173 c6 -2 18 -2 25 0 6 3 1 5 -13 5 -14 0 -19 -2 -12 -5z"/>
<path d="M5168 4173 c6 -2 18 -2 25 0 6 3 1 5 -13 5 -14 0 -19 -2 -12 -5z"/>
<path d="M5536 4145 c8 -37 14 -45 14 -19 0 10 -5 26 -10 34 -8 11 -9 7 -4
-15z"/>
<path d="M7631 3939 c-1 -17 29 -49 45 -49 5 0 1 5 -9 11 -10 6 -22 20 -27 32
-6 15 -9 17 -9 6z"/>
<path d="M5158 3893 c29 -2 74 -2 100 0 26 2 2 3 -53 3 -55 0 -76 -1 -47 -3z"/>
<path d="M7873 3893 c59 -2 154 -2 210 0 56 1 8 3 -108 3 -115 0 -161 -2 -102
-3z"/>
<path d="M1521 3150 l-34 -5 1 -195 c1 -107 2 -207 2 -222 l0 -27 616 -1 c339
0 620 -2 624 -5 5 -3 9 -198 9 -434 1 -333 -2 -431 -11 -439 -14 -11 -1167
-12 -1203 -1 -11 4 -24 2 -30 -5 -6 -6 -10 -102 -10 -242 0 -142 4 -235 10
-240 16 -14 88 -16 850 -16 762 0 818 1 835 18 13 13 14 1794 1 1807 -9 9
-1442 10 -1501 1 -19 -3 -55 -1 -80 3 -25 5 -60 6 -79 3z"/>
<path d="M3718 3155 c-2 -2 -17 -5 -34 -7 l-29 -2 2 -895 c2 -493 5 -901 7
-907 9 -23 138 -27 846 -27 747 0 833 2 849 18 6 6 6 31 0 65 -10 57 -5 318 6
363 5 19 1 31 -15 47 -20 20 -26 21 -61 11 -38 -12 -1084 -16 -1140 -4 -38 7
-45 29 -39 131 l5 94 605 -2 c333 -2 620 -3 639 -4 l34 -1 -1 232 c0 128 -3
237 -6 242 -4 5 -21 5 -43 0 -42 -10 -1192 -12 -1217 -3 -13 5 -16 24 -16 100
l0 94 614 0 c481 0 617 3 623 13 4 6 8 98 8 202 0 105 4 198 8 207 7 13 3 18
-15 23 -29 7 51 6 -847 6 -421 0 -768 2 -771 4 -4 3 -9 2 -12 0z m1672 -1105
c0 -5 -5 -10 -11 -10 -5 0 -7 5 -4 10 3 6 8 10 11 10 2 0 4 -4 4 -10z"/>
<path d="M5775 3143 c-2 -7 -4 -415 -5 -907 0 -816 2 -895 17 -907 13 -12 158
-14 822 -14 443 0 823 4 844 8 l37 8 0 244 c0 189 -3 245 -12 245 -7 1 -286 0
-620 0 -417 -1 -608 2 -613 10 -3 6 -6 302 -5 659 0 511 -2 651 -12 657 -7 4
-110 8 -230 8 -165 1 -219 -2 -223 -11z"/>
<path d="M7864 3140 c-4 -8 -7 -18 -6 -22 1 -4 2 -408 2 -897 l0 -890 48 -8
c26 -4 398 -8 827 -8 727 0 783 1 808 17 l26 18 3 225 c2 124 -1 225 -5 225
-5 0 -6 4 -3 8 6 10 -10 12 -94 9 -123 -4 -1095 0 -1120 5 l-25 5 -2 663 c-1
364 -5 665 -9 669 -4 3 -4 0 1 -8 6 -10 4 -12 -5 -6 -8 5 -110 9 -227 9 -180
1 -214 -1 -219 -14z"/>
<path d="M4725 2520 l-600 -5 595 -2 c327 -1 604 2 615 7 11 5 13 8 5 7 -8 -1
-285 -4 -615 -7z"/>
<path d="M4934 669 c-4 -7 -22 -9 -43 -6 l-36 4 2 -235 c2 -130 7 -240 12
-245 5 -5 19 -7 32 -4 22 4 22 4 -3 6 -15 0 -30 6 -34 13 -4 6 -3 8 3 5 14 -9
656 -13 671 -4 6 5 12 16 11 25 0 12 -3 11 -9 -5 -15 -37 -18 -26 -8 22 5 25
7 72 4 103 -3 31 -6 64 -7 72 -1 8 2 51 6 95 5 57 3 89 -6 110 -7 17 -12 33
-11 36 0 3 -13 3 -30 1 -21 -3 -29 -1 -24 7 9 14 7 14 -30 1 l-29 -10 2 -183
c1 -116 -3 -187 -10 -195 -15 -18 -393 -14 -409 5 -6 7 -7 13 -2 13 5 0 3 4
-5 9 -9 6 -11 16 -7 27 4 11 7 84 6 164 -1 128 -3 146 -20 162 -13 12 -21 14
-26 7z"/>
<path d="M6858 675 c-3 -3 -140 -6 -305 -7 -271 -1 -301 -2 -321 -18 -22 -18
-31 -47 -11 -34 7 4 9 0 5 -14 -4 -11 -2 -23 4 -27 13 -8 13 -68 -1 -82 -8 -8
-8 -22 0 -49 14 -50 14 -94 0 -94 -6 0 -9 -24 -7 -65 3 -60 5 -66 30 -77 15
-7 22 -15 17 -19 -6 -3 6 -10 26 -13 39 -8 67 6 59 29 -3 7 -1 15 4 19 5 3 5
27 -1 58 -9 55 2 108 23 108 6 0 8 -5 5 -10 -4 -7 17 -9 59 -7 74 4 82 1 179
-89 92 -85 109 -93 163 -88 35 3 45 1 34 -6 -11 -7 -4 -10 28 -10 33 0 42 4
42 17 0 13 -3 14 -12 5 -7 -7 -16 -12 -21 -12 -5 0 -1 7 8 17 16 15 13 18 -37
49 -29 18 -57 36 -63 41 -5 5 -18 12 -27 16 -11 4 -18 17 -18 32 0 14 -5 25
-11 25 -7 0 -9 -9 -6 -21 4 -16 3 -18 -9 -8 -33 27 4 51 75 48 19 -1 15 -4
-14 -9 -25 -5 -6 -6 53 -4 96 3 112 7 112 27 0 6 -7 2 -15 -9 -13 -17 -13 -16
-3 16 16 52 21 100 12 100 -17 0 -16 90 1 106 16 16 11 39 -6 28 -5 -3 -8 0
-7 8 2 7 -3 12 -9 11 -7 -2 -13 2 -13 7 0 11 -13 13 -22 5z m-165 -22 c-7 -2
-21 -2 -30 0 -10 3 -4 5 12 5 17 0 24 -2 18 -5z m-293 -72 c0 -6 78 -9 185 -9
102 0 185 -3 186 -8 1 -5 5 -17 10 -26 6 -11 5 -19 -2 -23 -6 -4 -8 -13 -5
-20 11 -30 -18 -35 -203 -33 l-186 2 175 6 175 6 -182 0 c-99 -1 -179 2 -176
7 2 4 -1 7 -7 7 -6 0 -8 5 -5 10 3 6 2 10 -3 10 -12 0 -10 56 2 67 5 5 6 2 2
-7 -4 -8 -1 -7 6 3 14 18 28 23 28 8z m-55 -391 c-3 -5 -16 -10 -28 -9 -20 1
-20 2 3 9 14 4 26 8 28 9 2 1 0 -3 -3 -9z"/>
<path d="M7715 670 c-4 -6 -19 -10 -33 -9 -30 4 -52 -7 -52 -24 0 -6 7 -2 15
9 13 17 14 16 5 -13 -5 -20 -5 -35 1 -38 5 -4 9 -32 9 -63 0 -42 -3 -53 -11
-42 -7 11 -9 -22 -7 -112 2 -69 0 -124 -4 -122 -10 6 2 -25 20 -53 8 -13 24
-23 36 -22 19 1 19 2 -4 9 -14 5 116 8 293 8 206 -1 322 3 328 9 6 6 9 43 7
86 -2 48 1 73 7 69 6 -3 7 -1 2 3 -4 5 -36 8 -70 8 l-62 -1 0 -42 c0 -28 -5
-44 -17 -51 -26 -14 -388 -5 -398 11 -4 7 -7 90 -6 186 l1 173 -27 15 c-18 11
-29 13 -33 6z m-58 -262 c-2 -13 -4 -5 -4 17 -1 22 1 32 4 23 2 -10 2 -28 0
-40z m0 -100 c-2 -13 -4 -5 -4 17 -1 22 1 32 4 23 2 -10 2 -28 0 -40z"/>
<path d="M9338 673 c7 -3 16 -2 19 1 4 3 -2 6 -13 5 -11 0 -14 -3 -6 -6z"/>
<path d="M3515 661 c-37 -6 -40 -8 -37 -36 8 -77 10 -288 2 -255 -6 26 -8 9
-7 -60 2 -75 6 -99 20 -115 15 -17 21 -18 38 -7 26 17 536 15 580 -1 22 -9 32
-8 41 1 11 11 9 12 -7 7 -16 -4 -15 -3 3 6 19 11 22 17 16 53 -3 23 -6 50 -5
61 0 11 3 64 6 117 3 55 1 108 -5 124 -6 15 -7 31 -2 38 5 6 5 25 1 41 l-8 30
-171 2 c-99 1 -184 -3 -201 -9 -22 -8 -34 -7 -42 1 -12 12 -150 13 -222 2z
m519 -77 c11 -10 16 -34 16 -70 0 -49 -2 -55 -26 -64 -31 -12 -179 -11 -211 1
-32 12 -55 1 -51 -24 4 -29 49 -37 181 -31 l107 5 0 -58 c0 -33 -5 -64 -12
-71 -17 -17 -419 -17 -436 0 -15 15 -16 92 -1 83 7 -5 10 27 8 106 l-3 114
196 5 c108 3 200 8 204 13 10 9 10 9 28 -9z m123 -116 c-3 -8 -6 -5 -6 6 -1
11 2 17 5 13 3 -3 4 -12 1 -19z"/>
<path d="M3837 473 c18 -2 50 -2 70 0 21 2 7 4 -32 4 -38 0 -55 -2 -38 -4z"/>
<path d="M3732 435 c0 -16 2 -22 5 -12 2 9 2 23 0 30 -3 6 -5 -1 -5 -18z"/>
<path d="M3748 378 c6 -6 18 -8 28 -6 14 3 12 5 -9 10 -19 3 -25 2 -19 -4z"/>
<path d="M9283 648 c-19 -21 -100 -159 -141 -239 -15 -31 -38 -69 -50 -84 -12
-15 -22 -34 -22 -41 0 -8 -9 -22 -20 -31 -25 -22 -28 -75 -3 -66 9 4 14 2 10
-3 -4 -7 11 -8 41 -4 67 10 102 26 102 48 0 10 11 33 25 52 14 19 25 39 25 46
0 7 4 14 8 16 11 4 57 104 66 141 3 15 12 27 20 27 15 0 46 -31 46 -47 0 -5
18 -38 40 -72 22 -34 40 -69 40 -79 0 -15 2 -15 11 -2 8 12 10 11 7 -5 -3 -18
-10 -20 -59 -17 -72 5 -87 -11 -70 -68 l12 -40 67 1 c55 1 60 3 32 9 -25 5
-13 7 42 6 43 0 72 -4 65 -8 -18 -12 81 -10 103 2 21 11 18 32 -10 65 -10 11
-32 47 -50 80 -54 100 -173 299 -187 315 -20 22 -129 21 -150 -2z"/>
<path d="M5541 634 c0 -11 3 -14 6 -6 3 7 2 16 -1 19 -3 4 -6 -2 -5 -13z"/>
<path d="M3473 500 c0 -30 2 -43 4 -27 2 15 2 39 0 55 -2 15 -4 2 -4 -28z"/>
<path d="M5541 454 c0 -11 3 -14 6 -6 3 7 2 16 -1 19 -3 4 -6 -2 -5 -13z"/>
<path d="M8331 334 c0 -11 3 -14 6 -6 3 7 2 16 -1 19 -3 4 -6 -2 -5 -13z"/>
<path d="M8322 210 c-9 -14 -24 -20 -55 -21 -32 -2 -35 -3 -13 -6 39 -6 73 4
80 23 9 24 2 26 -12 4z"/>
<path d="M3623 183 c20 -2 54 -2 75 0 20 2 3 4 -38 4 -41 0 -58 -2 -37 -4z"/>
<path d="M3828 183 c39 -2 105 -2 145 0 39 1 7 3 -73 3 -80 0 -112 -2 -72 -3z"/>
<path d="M5053 183 c37 -2 96 -2 130 0 34 2 4 3 -68 3 -71 0 -99 -1 -62 -3z"/>
<path d="M5478 183 c6 -2 18 -2 25 0 6 3 1 5 -13 5 -14 0 -19 -2 -12 -5z"/>
<path d="M7832 183 c48 -2 129 -2 180 0 51 1 12 3 -87 3 -99 0 -141 -2 -93 -3z"/>
</g>
</svg>
