<?xml version="1.0" standalone="no"?>
<!DOCTYPE svg PUBLIC "-//W3C//DTD SVG 20010904//EN"
 "http://www.w3.org/TR/2001/REC-SVG-20010904/DTD/svg10.dtd">
<svg version="1.0" xmlns="http://www.w3.org/2000/svg"
 width="1037.000000pt" height="466.000000pt" viewBox="0 0 1037.000000 466.000000"
 preserveAspectRatio="xMidYMid meet">

<g transform="translate(0.000000,466.000000) scale(0.100000,-0.100000)"
fill="#000000" stroke="none">
<path d="M3493 4443 c15 -2 37 -2 50 0 12 2 0 4 -28 4 -27 0 -38 -2 -22 -4z"/>
<path d="M3798 4443 c6 -2 18 -2 25 0 6 3 1 5 -13 5 -14 0 -19 -2 -12 -5z"/>
<path d="M4069 4444 c19 -3 31 -13 34 -25 4 -15 4 -14 3 3 -1 18 -8 24 -33 26
-31 2 -32 2 -4 -4z"/>
<path d="M6808 4443 c6 -2 18 -2 25 0 6 3 1 5 -13 5 -14 0 -19 -2 -12 -5z"/>
<path d="M7677 4443 c53 -5 52 -3 56 -188 l3 -140 2 148 c1 88 -2 156 -8 168
-8 15 -20 19 -53 17 l-42 -1 42 -4z"/>
<path d="M8215 4443 c22 -3 45 -9 52 -15 19 -15 19 -444 1 -449 -7 -2 -157 -2
-333 1 l-320 5 -6 30 c-6 29 -7 29 -8 4 0 -15 5 -32 13 -38 14 -12 647 -18
666 -6 6 4 10 93 10 230 0 252 2 247 -77 243 l-38 -1 40 -4z"/>
<path d="M4814 4426 c-3 -7 -3 -40 -1 -72 l3 -59 2 67 c1 42 7 68 15 71 9 4 9
6 -1 6 -7 1 -15 -5 -18 -13z"/>
<path d="M4953 4433 c43 -2 110 -2 150 0 40 1 5 3 -78 3 -82 0 -115 -2 -72 -3z"/>
<path d="M5248 4433 c17 -2 47 -2 65 0 17 2 3 4 -33 4 -36 0 -50 -2 -32 -4z"/>
<path d="M5383 4433 c9 -2 23 -2 30 0 6 3 -1 5 -18 5 -16 0 -22 -2 -12 -5z"/>
<path d="M5486 4417 c32 -53 20 -56 -255 -60 l-246 -2 247 -3 c213 -2 249 0
262 14 21 20 20 27 -5 55 l-20 24 17 -28z"/>
<path d="M7608 4433 c-3 -5 -1 -93 3 -198 l6 -190 0 185 c-1 102 2 191 7 198
4 7 3 12 -3 12 -5 0 -11 -3 -13 -7z"/>
<path d="M8154 4426 c-3 -7 -4 -33 -2 -57 3 -43 4 -42 8 14 5 58 4 68 -6 43z"/>
<path d="M8976 4418 c-11 -15 -12 -26 -5 -40 5 -10 12 -18 15 -18 2 0 0 8 -5
19 -11 20 2 44 29 54 12 4 12 6 -2 6 -9 1 -24 -9 -32 -21z"/>
<path d="M9173 4433 c43 -2 110 -2 150 0 40 1 5 3 -78 3 -82 0 -115 -2 -72 -3z"/>
<path d="M9458 4433 c18 -2 45 -2 60 0 15 2 0 4 -33 4 -33 0 -45 -2 -27 -4z"/>
<path d="M9644 4427 c11 -8 17 -23 14 -38 -3 -24 -4 -24 -140 -29 -75 -3 -140
-9 -144 -13 -9 -8 -6 -272 3 -324 4 -28 2 -34 -18 -42 -13 -5 -17 -10 -9 -10
32 -1 35 15 35 194 l0 180 129 3 c75 1 135 7 143 14 25 20 10 78 -21 78 -5 0
-2 -6 8 -13z"/>
<path d="M151 4394 c0 -11 3 -14 6 -6 3 7 2 16 -1 19 -3 4 -6 -2 -5 -13z"/>
<path d="M4934 4335 c-3 -13 -4 -30 -1 -37 3 -7 6 -2 6 13 1 14 6 30 13 37 9
9 9 12 0 12 -6 0 -14 -11 -18 -25z"/>
<path d="M6319 4343 c-13 -16 -12 -17 4 -4 9 7 17 15 17 17 0 8 -8 3 -21 -13z"/>
<path d="M6388 4353 c6 -2 18 -2 25 0 6 3 1 5 -13 5 -14 0 -19 -2 -12 -5z"/>
<path d="M6523 4353 c26 -2 68 -2 95 0 26 2 4 3 -48 3 -52 0 -74 -1 -47 -3z"/>
<path d="M9038 4353 c23 -2 61 -2 85 0 23 2 4 4 -43 4 -47 0 -66 -2 -42 -4z"/>
<path d="M9233 4349 c16 -10 17 -24 11 -179 -8 -188 -5 -201 50 -199 l31 2
-35 6 -35 6 3 173 c4 173 -1 203 -32 202 -6 0 -3 -5 7 -11z"/>
<path d="M4940 4272 c0 -33 35 -38 284 -36 175 1 248 -2 255 -10 5 -6 11 -34
14 -61 l3 -50 2 52 c3 86 9 85 -280 81 -237 -2 -251 -2 -264 17 -8 10 -14 14
-14 7z"/>
<path d="M4812 4230 c0 -14 2 -19 5 -12 2 6 2 18 0 25 -3 6 -5 1 -5 -13z"/>
<path d="M6620 4243 c197 -3 227 -5 238 -20 6 -9 12 -12 12 -7 0 31 -26 34
-249 32 l-226 -3 225 -2z"/>
<path d="M6181 4183 c-1 -21 33 -42 46 -29 4 3 -1 6 -11 6 -9 0 -21 10 -26 23
l-9 22 0 -22z"/>
<path d="M6871 4184 c0 -11 3 -14 6 -6 3 7 2 16 -1 19 -3 4 -6 -2 -5 -13z"/>
<path d="M4810 4170 c0 -6 7 -13 15 -17 24 -9 27 1 5 15 -13 8 -20 8 -20 2z"/>
<path d="M4928 4153 c34 -2 90 -2 125 0 34 2 6 3 -63 3 -69 0 -97 -1 -62 -3z"/>
<path d="M5173 4153 c26 -2 68 -2 95 0 26 2 4 3 -48 3 -52 0 -74 -1 -47 -3z"/>
<path d="M5351 4143 c7 -12 15 -20 18 -17 3 2 -3 12 -13 22 -17 16 -18 16 -5
-5z"/>
<path d="M6328 4153 c6 -2 18 -2 25 0 6 3 1 5 -13 5 -14 0 -19 -2 -12 -5z"/>
<path d="M6268 4143 c7 -3 16 -2 19 1 4 3 -2 6 -13 5 -11 0 -14 -3 -6 -6z"/>
<path d="M8161 4104 c-2 -32 -21 -43 -86 -47 l-60 -3 61 -2 c71 -2 98 12 91
49 -4 21 -4 21 -6 3z"/>
<path d="M5365 4088 c-9 -21 -19 -24 -100 -29 l-90 -5 86 -2 c74 -2 88 1 103
17 10 11 16 25 14 31 -2 6 -8 0 -13 -12z"/>
<path d="M7730 4072 c0 -16 37 -24 96 -19 48 3 48 3 -11 5 -34 1 -66 7 -73 14
-9 9 -12 9 -12 0z"/>
<path d="M4805 4039 c-10 -30 -2 -32 12 -3 6 13 7 24 3 24 -5 0 -12 -9 -15
-21z"/>
<path d="M4908 4053 c17 -2 47 -2 65 0 17 2 3 4 -33 4 -36 0 -50 -2 -32 -4z"/>
<path d="M5058 4053 c18 -2 45 -2 60 0 15 2 0 4 -33 4 -33 0 -45 -2 -27 -4z"/>
<path d="M5489 4020 c-3 -24 -11 -38 -29 -47 -16 -8 -19 -13 -9 -13 26 0 51
35 47 67 -4 27 -4 26 -9 -7z"/>
<path d="M3152 4020 c0 -14 2 -19 5 -12 2 6 2 18 0 25 -3 6 -5 1 -5 -13z"/>
<path d="M6872 4010 c0 -14 2 -19 5 -12 2 6 2 18 0 25 -3 6 -5 1 -5 -13z"/>
<path d="M4827 3979 c12 -12 24 -21 27 -18 2 2 -8 13 -22 23 l-27 19 22 -24z"/>
<path d="M6180 3996 c0 -2 8 -10 18 -17 15 -13 16 -12 3 4 -13 16 -21 21 -21
13z"/>
<path d="M3098 3973 c6 -2 18 -2 25 0 6 3 1 5 -13 5 -14 0 -19 -2 -12 -5z"/>
<path d="M5110 3970 c135 -3 263 -2 285 1 22 4 -88 6 -245 6 l-285 -1 245 -6z"/>
<path d="M6283 3973 c15 -2 39 -2 55 0 15 2 2 4 -28 4 -30 0 -43 -2 -27 -4z"/>
<path d="M6753 3973 c9 -2 23 -2 30 0 6 3 -1 5 -18 5 -16 0 -22 -2 -12 -5z"/>
<path d="M3793 3963 c9 -2 23 -2 30 0 6 3 -1 5 -18 5 -16 0 -22 -2 -12 -5z"/>
<path d="M1473 3223 c9 -2 23 -2 30 0 6 3 -1 5 -18 5 -16 0 -22 -2 -12 -5z"/>
<path d="M3078 3223 c6 -2 18 -2 25 0 6 3 1 5 -13 5 -14 0 -19 -2 -12 -5z"/>
<path d="M3120 3226 c0 -2 7 -7 16 -10 8 -3 12 -2 9 4 -6 10 -25 14 -25 6z"/>
<path d="M3616 3214 c-3 -9 -5 -25 -5 -37 1 -16 3 -14 8 8 5 23 13 31 36 36
l30 7 -31 1 c-21 1 -34 -5 -38 -15z"/>
<path d="M5250 3226 c0 -2 15 -6 34 -8 19 -2 32 0 30 4 -5 8 -64 12 -64 4z"/>
<path d="M7848 3223 c7 -3 16 -2 19 1 4 3 -2 6 -13 5 -11 0 -14 -3 -6 -6z"/>
<path d="M8188 3223 c6 -2 18 -2 25 0 6 3 1 5 -13 5 -14 0 -19 -2 -12 -5z"/>
<path d="M1598 3213 c12 -2 30 -2 40 0 9 3 -1 5 -23 4 -22 0 -30 -2 -17 -4z"/>
<path d="M5083 3213 c15 -2 37 -2 50 0 12 2 0 4 -28 4 -27 0 -38 -2 -22 -4z"/>
<path d="M5314 3020 c0 -85 2 -120 3 -77 2 42 2 112 0 155 -1 42 -3 7 -3 -78z"/>
<path d="M8285 2565 c0 -302 1 -428 2 -278 2 149 2 397 0 550 -1 153 -2 31 -2
-272z"/>
<path d="M1442 2810 c0 -14 2 -19 5 -12 2 6 2 18 0 25 -3 6 -5 1 -5 -13z"/>
<path d="M5305 2780 c-3 -5 -1 -10 4 -10 6 0 11 5 11 10 0 6 -2 10 -4 10 -3 0
-8 -4 -11 -10z"/>
<path d="M4070 2592 c0 -5 8 -13 17 -16 9 -4 293 -6 631 -6 338 1 618 -2 623
-7 4 -4 10 -58 12 -118 l3 -110 2 111 c2 88 -1 114 -13 124 -11 9 -161 11
-631 10 -455 -1 -620 2 -630 11 -8 7 -14 7 -14 1z"/>
<path d="M5352 2205 c-1 -39 -7 -76 -14 -83 -9 -9 -9 -12 0 -12 17 0 24 37 19
105 l-3 60 -2 -70z"/>
<path d="M4076 2112 c-3 -5 8 -6 25 -4 16 2 29 6 29 8 0 8 -49 4 -54 -4z"/>
<path d="M2678 1898 c-10 -10 -14 -18 -9 -18 10 0 36 29 30 34 -2 1 -12 -6
-21 -16z"/>
<path d="M9480 1893 c14 -3 32 -10 40 -16 13 -11 13 -10 1 6 -7 9 -25 16 -40
16 l-26 -2 25 -4z"/>
<path d="M1797 1883 c145 -2 381 -2 525 0 145 1 27 2 -262 2 -289 0 -407 -1
-263 -2z"/>
<path d="M4417 1883 c150 -2 396 -2 545 0 150 1 28 2 -272 2 -300 0 -422 -1
-273 -2z"/>
<path d="M8713 1883 c119 -2 315 -2 435 0 119 1 21 2 -218 2 -239 0 -337 -1
-217 -2z"/>
<path d="M5311 1764 c0 -11 3 -14 6 -6 3 7 2 16 -1 19 -3 4 -6 -2 -5 -13z"/>
<path d="M5313 1580 c0 -47 2 -66 4 -42 2 23 2 61 0 85 -2 23 -4 4 -4 -43z"/>
<path d="M3611 1450 c-1 -47 14 -60 69 -58 l45 1 -50 6 c-49 6 -50 7 -56 46
l-6 40 -2 -35z"/>
<path d="M1441 1434 c0 -11 3 -14 6 -6 3 7 2 16 -1 19 -3 4 -6 -2 -5 -13z"/>
<path d="M5296 1405 c-11 -8 -15 -15 -9 -15 6 0 16 7 23 15 16 19 11 19 -14 0z"/>
<path d="M9506 1405 c-11 -8 -15 -15 -9 -15 6 0 16 7 23 15 16 19 11 19 -14 0z"/>
<path d="M1493 1393 c15 -2 39 -2 55 0 15 2 2 4 -28 4 -30 0 -43 -2 -27 -4z"/>
<path d="M3063 1393 c9 -2 23 -2 30 0 6 3 -1 5 -18 5 -16 0 -22 -2 -12 -5z"/>
<path d="M5128 1383 c7 -3 16 -2 19 1 4 3 -2 6 -13 5 -11 0 -14 -3 -6 -6z"/>
<path d="M5376 741 c-4 -5 3 -7 14 -4 23 6 26 13 6 13 -8 0 -17 -4 -20 -9z"/>
<path d="M3463 733 c9 -2 25 -2 35 0 9 3 1 5 -18 5 -19 0 -27 -2 -17 -5z"/>
<path d="M3788 733 c7 -3 16 -2 19 1 4 3 -2 6 -13 5 -11 0 -14 -3 -6 -6z"/>
<path d="M4048 733 c12 -2 30 -2 40 0 9 3 -1 5 -23 4 -22 0 -30 -2 -17 -4z"/>
<path d="M4822 728 c-17 -17 -17 -439 0 -456 9 -9 70 -11 223 -10 l210 2 -215
6 -215 5 0 225 0 225 35 6 c35 6 35 6 5 8 -17 0 -36 -4 -43 -11z"/>
<path d="M4923 729 c15 -9 17 -29 19 -157 l2 -147 3 144 c4 142 -2 171 -31
171 -6 0 -3 -5 7 -11z"/>
<path d="M5445 731 c17 -3 35 -16 42 -31 12 -24 13 -24 13 -3 0 25 -27 44 -62
42 -19 -1 -18 -3 7 -8z"/>
<path d="M6233 733 c9 -2 25 -2 35 0 9 3 1 5 -18 5 -19 0 -27 -2 -17 -5z"/>
<path d="M6788 733 c7 -3 16 -2 19 1 4 3 -2 6 -13 5 -11 0 -14 -3 -6 -6z"/>
<path d="M7612 728 c-7 -7 -12 -21 -11 -32 1 -18 2 -17 8 4 5 17 16 27 36 31
28 6 28 7 5 8 -15 0 -31 -4 -38 -11z"/>
<path d="M9288 733 c12 -2 30 -2 40 0 9 3 -1 5 -23 4 -22 0 -30 -2 -17 -4z"/>
<path d="M3708 723 c7 -3 16 -2 19 1 4 3 -2 6 -13 5 -11 0 -14 -3 -6 -6z"/>
<path d="M4118 703 c5 -21 7 -23 10 -9 2 10 0 22 -6 28 -6 6 -7 0 -4 -19z"/>
<path d="M6623 723 c9 -2 23 -2 30 0 6 3 -1 5 -18 5 -16 0 -22 -2 -12 -5z"/>
<path d="M5362 695 c0 -16 2 -22 5 -12 2 9 2 23 0 30 -3 6 -5 -1 -5 -18z"/>
<path d="M7733 655 c0 -33 2 -45 4 -27 2 18 2 45 0 60 -2 15 -4 0 -4 -33z"/>
<path d="M6863 645 c0 -22 2 -30 4 -17 2 12 2 30 0 40 -3 9 -5 -1 -4 -23z"/>
<path d="M3938 653 c6 -2 18 -2 25 0 6 3 1 5 -13 5 -14 0 -19 -2 -12 -5z"/>
<path d="M7613 605 c0 -33 2 -45 4 -27 2 18 2 45 0 60 -2 15 -4 0 -4 -33z"/>
<path d="M3444 530 c0 -69 1 -97 3 -62 2 34 2 90 0 125 -2 34 -3 6 -3 -63z"/>
<path d="M3565 639 c-4 -6 -5 -12 -2 -15 2 -3 7 2 10 11 7 17 1 20 -8 4z"/>
<path d="M6315 639 c-4 -6 -5 -12 -2 -15 2 -3 7 2 10 11 7 17 1 20 -8 4z"/>
<path d="M6398 643 c7 -3 16 -2 19 1 4 3 -2 6 -13 5 -11 0 -14 -3 -6 -6z"/>
<path d="M6193 605 c0 -22 2 -30 4 -17 2 12 2 30 0 40 -3 9 -5 -1 -4 -23z"/>
<path d="M9286 564 c-10 -26 -7 -29 8 -9 14 19 15 19 38 0 l23 -20 -19 23
c-22 26 -41 28 -50 6z"/>
<path d="M5488 528 c-3 -24 -1 -50 3 -58 5 -9 9 7 9 43 0 67 -6 75 -12 15z"/>
<path d="M7733 495 c0 -44 2 -61 4 -37 2 23 2 59 0 80 -2 20 -4 1 -4 -43z"/>
<path d="M4111 544 c0 -11 3 -14 6 -6 3 7 2 16 -1 19 -3 4 -6 -2 -5 -13z"/>
<path d="M6724 550 c-5 -5 -92 -11 -194 -13 l-185 -2 186 -3 c156 -2 189 0
199 13 14 17 10 21 -6 5z"/>
<path d="M3903 533 c9 -2 23 -2 30 0 6 3 -1 5 -18 5 -16 0 -22 -2 -12 -5z"/>
<path d="M7613 495 c0 -22 2 -30 4 -17 2 12 2 30 0 40 -3 9 -5 -1 -4 -23z"/>
<path d="M6864 490 c-10 -33 -13 -35 -60 -41 l-49 -6 47 -1 c40 -2 50 2 64 23
8 13 14 32 11 42 -2 12 -7 7 -13 -17z"/>
<path d="M4122 490 c0 -14 2 -19 5 -12 2 6 2 18 0 25 -3 6 -5 1 -5 -13z"/>
<path d="M6193 455 c0 -22 2 -30 4 -17 2 12 2 30 0 40 -3 9 -5 -1 -4 -23z"/>
<path d="M6325 449 c-11 -17 1 -21 15 -4 8 9 8 15 2 15 -6 0 -14 -5 -17 -11z"/>
<path d="M6663 453 c-26 -5 -30 -25 -9 -42 12 -10 13 -9 9 8 -5 20 2 24 67 34
16 3 13 4 -10 4 -19 0 -45 -2 -57 -4z"/>
<path d="M3838 443 c7 -3 16 -2 19 1 4 3 -2 6 -13 5 -11 0 -14 -3 -6 -6z"/>
<path d="M5362 415 c-1 -22 -6 -45 -10 -52 -5 -9 -51 -13 -147 -16 l-140 -3
141 -2 c162 -2 168 0 161 70 l-4 43 -1 -40z"/>
<path d="M8166 442 c-2 -4 12 -6 32 -4 62 6 69 10 20 11 -26 0 -49 -3 -52 -7z"/>
<path d="M8275 357 l0 -82 -70 -6 -70 -5 66 -2 c39 -1 70 3 77 10 13 13 17
154 5 161 -5 3 -8 -32 -8 -76z"/>
<path d="M7613 395 c0 -22 2 -30 4 -17 2 12 2 30 0 40 -3 9 -5 -1 -4 -23z"/>
<path d="M6312 390 c0 -19 2 -27 5 -17 2 9 2 25 0 35 -3 9 -5 1 -5 -18z"/>
<path d="M3561 394 c0 -11 3 -14 6 -6 3 7 2 16 -1 19 -3 4 -6 -2 -5 -13z"/>
<path d="M4931 394 c0 -11 3 -14 6 -6 3 7 2 16 -1 19 -3 4 -6 -2 -5 -13z"/>
<path d="M6520 406 c0 -2 8 -10 18 -17 15 -13 16 -12 3 4 -13 16 -21 21 -21
13z"/>
<path d="M4111 384 c0 -11 3 -14 6 -6 3 7 2 16 -1 19 -3 4 -6 -2 -5 -13z"/>
<path d="M9428 368 c-15 -15 -16 -18 -3 -18 9 0 18 7 22 15 8 23 0 24 -19 3z"/>
<path d="M8148 368 c-3 -9 -33 -15 -94 -19 l-89 -6 81 -1 c56 -1 86 2 100 12
10 8 16 17 13 21 -4 3 -9 0 -11 -7z"/>
<path d="M4949 358 c7 -10 25 -17 40 -17 l26 2 -25 4 c-14 3 -32 10 -40 16
-13 11 -13 10 -1 -5z"/>
<path d="M3432 320 c0 -19 2 -27 5 -17 2 9 2 25 0 35 -3 9 -5 1 -5 -18z"/>
<path d="M7601 343 c-1 -6 -4 -20 -7 -30 -5 -17 -5 -17 6 0 6 10 9 23 6 30 -3
9 -5 9 -5 0z"/>
<path d="M7778 343 c7 -3 16 -2 19 1 4 3 -2 6 -13 5 -11 0 -14 -3 -6 -6z"/>
<path d="M7853 343 c9 -2 25 -2 35 0 9 3 1 5 -18 5 -19 0 -27 -2 -17 -5z"/>
<path d="M5489 305 c-4 -27 -8 -31 -49 -36 l-45 -6 41 -1 c47 -2 68 15 62 50
-4 20 -5 19 -9 -7z"/>
<path d="M6181 314 c0 -11 3 -14 6 -6 3 7 2 16 -1 19 -3 4 -6 -2 -5 -13z"/>
<path d="M3151 304 c0 -11 3 -14 6 -6 3 7 2 16 -1 19 -3 4 -6 -2 -5 -13z"/>
<path d="M8981 284 c0 -11 3 -14 6 -6 3 7 2 16 -1 19 -3 4 -6 -2 -5 -13z"/>
<path d="M6202 274 c9 -9 21 -15 27 -13 6 2 -2 10 -17 17 -25 11 -25 11 -10
-4z"/>
<path d="M6307 276 c-3 -8 -16 -16 -29 -19 -21 -4 -21 -4 -2 -6 21 -1 52 24
42 35 -3 3 -8 -2 -11 -10z"/>
<path d="M6822 274 c-7 -8 -8 -14 -3 -14 10 0 25 19 20 25 -2 1 -10 -3 -17
-11z"/>
<path d="M4100 270 c-9 -6 -10 -10 -3 -10 6 0 15 5 18 10 8 12 4 12 -15 0z"/>
<path d="M3622 263 c70 -2 187 -2 260 0 73 1 16 3 -127 3 -143 0 -203 -2 -133
-3z"/>
<path d="M5313 263 c9 -2 23 -2 30 0 6 3 -1 5 -18 5 -16 0 -22 -2 -12 -5z"/>
<path d="M6758 263 c6 -2 18 -2 25 0 6 3 1 5 -13 5 -14 0 -19 -2 -12 -5z"/>
<path d="M7738 263 c61 -2 163 -2 225 0 61 1 11 3 -113 3 -124 0 -174 -2 -112
-3z"/>
<path d="M9418 263 c12 -2 30 -2 40 0 9 3 -1 5 -23 4 -22 0 -30 -2 -17 -4z"/>
<path d="M9518 263 c6 -2 18 -2 25 0 6 3 1 5 -13 5 -14 0 -19 -2 -12 -5z"/>
</g>
</svg>
