<svg id="Layer_1" data-name="Layer 1" xmlns="http://www.w3.org/2000/svg" viewBox="0 0 624.62 421.55"><path d="M292.81,300.59a5,5,0,0,1,3.2,2.6c.7,1.9.8,1.9.8-.1.1-2.2-1.7-3.5-4.7-3.3C291.11,299.89,291.41,300.19,292.81,300.59Z" transform="translate(-228.18 -299.77)"/><path d="M229.51,304.09a13.15,13.15,0,0,0,3,5.7c1.3,1.4,2.4,2.8,2.4,3.2,0,.7,18.7,33.6,20.2,35.4.5.7,2.5,1,4.6.8s5.1-.4,6.8-.4c3-.1,3.7-.9,10.8-12.8,4.2-7,7.6-13.6,7.6-14.5a3.26,3.26,0,0,1,1.3-2.5c2.1-1.3,8.7-12.8,8.7-15.2,0-1.6-.6-2.1-2.7-2.1-1.6,0-5.6-.2-9-.4a47.67,47.67,0,0,0-9.8.4c-1.9.4-3.7.5-4,.1s-1.8-.6-3.5-.3c-3.5.5-4.9,3.7-3,7.2,1,1.8,1.8,2.1,5.7,1.7,7.4-.6,8.7,2.3,3.6,7.8-1.1,1.1-3.1,4.6-4.6,7.8-3.5,7.4-6.3,7.8-9.4,1.4-3.3-6.9-13.4-24.7-14.4-25.2-.4-.3-4-.7-7.8-.8l-7.1-.3Z" transform="translate(-228.18 -299.77)"/><path d="M366.91,300.89c-.1.2-.2,5.6-.2,12s-.5,11.5-.9,11.3-.6.6-.6,2,.3,2.3.7,2,1.6.5,2.8,1.5c1.8,1.7,3.4,2,9.9,1.8l7.8-.2-7.5-.6c-7-.6-6.8-.7,4.6-.8,8.2-.1,12.4.2,13.2,1s1.2.9,1.2-.1c0-1.6,21.7-1.2,22.9.4,2,2.5,2.2,5.7.5,7.6-1.4,1.6-3.1,1.9-10.1,1.9-5.4,0-8.2-.4-7.8-1s-2.8-1-8.9-1c-5.7,0-9.6.4-9.6,1s-2.7,1-6,1-6-.4-6-.9c0-1.4-4.9-.8-5.5.7-.3.7-.9,1.1-1.4.8-1.1-.7-.2,3.4,1,5,.5.6.7,1.3.4,1.6-.8.7,1.2.9,11.5,1.2l9.5.3-8.5-.7c-5.3-.4,2.3-.6,20-.7,16.7,0,26.9.3,24.5.8-3.5.7-3.2.7,1.8.4,4.2-.3,5.5,0,5,.8-.3.7.2.4,1.3-.5,1.8-1.6,2-2.9,1.8-13.3-.2-6.4-.7-12.2-1.3-12.9a1.73,1.73,0,0,1-.3-2.1c.4-.5.1-.5-.7,0s-12.1.8-25.3.9c-18.1.1-24.4-.2-25.8-1.1-2.1-1.5-3.4-6.3-2.5-9.2.6-1.9,1.6-1.9,27.9-1.8,15.1.1,27.2-.1,27-.5s0-.9.6-1.3,1-.1,1,.5.5.8,1.1.4c.8-.4.7-.9-.2-1.4a4.18,4.18,0,0,1-1.4-2.7c-.3-4.3-.6-4.3-25.8-4.1-16.9.1-21.5.4-15.2.8,8,.6,7.3.6-6,.7-8.7,0-13.7-.3-12-.7,2.5-.6,2-.8-2.7-.9C369.51,300.79,366.91,300.79,366.91,300.89Zm49.3,1.5a35.28,35.28,0,0,1-6.5,0c-1.8-.2-.4-.4,3.2-.4S417.91,302.19,416.21,302.39Zm10,0a7.56,7.56,0,0,1-3,0c-1-.3-.4-.5,1.2-.5S426.81,302.09,426.21,302.39Zm-29.5,38a30,30,0,0,1-6,0c-1.8-.2-.6-.4,2.7-.4S398.21,340.19,396.71,340.39Z" transform="translate(-228.18 -299.77)"/><path d="M505.31,302c-1.9,1.1-2.1,1.9-1.8,13.5.2,6.7.6,12.7.9,13.2s.1,1-.4,1a1.11,1.11,0,0,1-1.1-1.1c0-.5-.5-.7-1-.4-1.9,1.2.2,2.6,3,2,1.5-.3,3.1-.2,3.4.3s2.3.8,4.3.5a58.88,58.88,0,0,1,6.8-.5c4.8.1,31.7,0,34.5-.2a6.13,6.13,0,0,1,3.8,1.1c1.5,1.4,1.6,5.9.1,6.9-.6.3-12.7.7-27,.8-26.8.1-28.4.4-28.4,4.3,0,1,1.1,2.8,2.4,4.1,2,2,2.7,2.2,4.8,1.3a19.75,19.75,0,0,1,7.1-.9l4.7.1-5,.7c-2.9.4,4.6.8,17.8.8,15.6.2,23.3-.2,24.6-.9a5.69,5.69,0,0,1,4.7-.4,12.79,12.79,0,0,0,4.3.6c.8-.1,1,.2.5,1s-.3,1,.7.4c2.6-1.5,4.9-3.8,4.9-4.9,0-.7-.3-.7-.8.1-.4.6-.6-4.2-.5-10.8.2-13.6-.4-15-6.5-14.7l-3.7.1,3.5.4c3.7.5,6,1.9,6,3.6,0,.6-.6.3-1.2-.6-1.1-1.4-4.5-1.6-26.6-1.8-18.9-.2-25.5-.6-26.3-1.5-1.5-1.8-1.8-8.2-.5-9.3.6-.5,12.8-.8,27-.7,22.4.2,26.2,0,27.6-1.3s1.4-2.1.4-4.6l-1.2-3-31.9-.2C516.41,300.89,506.81,301.19,505.31,302Z" transform="translate(-228.18 -299.77)"/><path d="M647.11,301.59a13.7,13.7,0,0,1-.2,1.6c-.1.5-.2,9.3-.2,19.5-.1,16.7-.2,17.5-.8,8l-.7-10.5.1,12.5c.1,6.9.5,13.1.9,13.7.6,1,8.1,1.3,31.8,1.3,17.1,0,30.8.4,30.5.8-.6,1,3.5.9,5.2-.1a3.92,3.92,0,0,0,1.1-3c-.1-2.1-.1-2.1-.8.2-.4,1.4-1.2,2.6-1.9,2.7s-.8,0-.2-.3c1.4-.6,1.4-43.9,0-44.8-.6-.4-.8-.9-.6-1.3s-1.8-.5-4.6-.3-5.1.8-5.4,1.5c-.8,2.2-1,29.7-.2,30.2,1.5.9.8,5.3-.9,6.2-1.4.7-38.4,1-41.5.3-.4,0-.6-1.3-.6-2.9.2-11.6-.4-32.9-1-33.8C656.41,301.89,646.91,300.49,647.11,301.59Z" transform="translate(-228.18 -299.77)"/><path d="M786.71,301.69a2.75,2.75,0,0,1-2.5,1.2c-1.4.2-1.9.7-1.5,1.7.3.8.1,1.2-.5.8s-1,0-1,.8.3,1.3.5,1,1,.2,1.6,1c.8,1.1,4,1.5,13.4,1.7,8.6.1,12.6.6,13.4,1.5s.8,6.6.4,17.9c-.4,9.2-.8,17.2-.9,17.8s1.5.9,3.8.9c3.8-.2,3.8-.1,1,.7s-2.8.8,1.3.9c3,.1,4.1-.2,3.6-1.1-.5-.7-.1-.9,1.3-.6,1.1.3,2,0,2-.6a24.64,24.64,0,0,1,.7-4.1c.5-2.2.4-2.6-.4-1.5s-1-2.5-1-12c0-7.4-.3-14.5-.6-15.7-.9-3.4,2-4.1,17.2-4.5l13.9-.3.2-2.5.2-2.5-.9,2.5c-.8,2.3-.9,2.2-.7-1,.1-2.8-.1-3.4-1.6-3.2-.9.2-1.7-.2-1.7-.8,0-.8-3.4-1-11.2-.6-6.2.3-18,.7-26.3.9l-15,.3,14.5-.6,14.5-.6-18.7-.2C793.51,300.79,786.91,301.09,786.71,301.69Zm50,.7a30,30,0,0,1-6,0c-1.8-.2-.6-.4,2.7-.4S838.21,302.19,836.71,302.39Z" transform="translate(-228.18 -299.77)"/><path d="M365.11,306.69c0,1.9.2,2.7.5,1.7a10.28,10.28,0,0,0,0-3.5C365.31,304,365.11,304.79,365.11,306.69Z" transform="translate(-228.18 -299.77)"/><path d="M714.21,307.19c0,2.2.2,3,.4,1.7a13.39,13.39,0,0,0,0-4C714.31,304,714.11,305,714.21,307.19Z" transform="translate(-228.18 -299.77)"/><path d="M645.11,310.19c0,1.6.2,2.2.5,1.2a7.56,7.56,0,0,0,0-3C645.31,307.79,645.11,308.49,645.11,310.19Z" transform="translate(-228.18 -299.77)"/><path d="M809.21,320.69c0,2.5.2,3.5.4,2.2a17,17,0,0,0,0-4.5C809.41,317.19,809.21,318.19,809.21,320.69Z" transform="translate(-228.18 -299.77)"/><path d="M823.31,327.19c0,6,.1,8.4.3,5.2a100.87,100.87,0,0,0,0-11C823.41,318.49,823.31,321.09,823.31,327.19Z" transform="translate(-228.18 -299.77)"/><path d="M389.21,320.39a10.28,10.28,0,0,0,3.5,0c.9-.3.1-.5-1.8-.5S388.21,320.09,389.21,320.39Z" transform="translate(-228.18 -299.77)"/><path d="M407.21,320.39a7.56,7.56,0,0,0,3,0c.6-.3-.1-.5-1.8-.5S406.21,320.09,407.21,320.39Z" transform="translate(-228.18 -299.77)"/><path d="M420.71,320.39a35.28,35.28,0,0,0,6.5,0c1.7-.2.3-.4-3.3-.4S418.91,320.19,420.71,320.39Z" transform="translate(-228.18 -299.77)"/><path d="M383.71,321.39a5.28,5.28,0,0,0,2.5,0c.6-.3.1-.5-1.3-.5S383,321.09,383.71,321.39Z" transform="translate(-228.18 -299.77)"/><path d="M397.71,321.39a5.28,5.28,0,0,0,2.5,0c.6-.3.1-.5-1.3-.5S397,321.09,397.71,321.39Z" transform="translate(-228.18 -299.77)"/><path d="M434.51,324.19c.8,3.7,1.4,4.5,1.4,1.9a7.91,7.91,0,0,0-1-3.4C434.11,321.59,434,322,434.51,324.19Z" transform="translate(-228.18 -299.77)"/><path d="M644,344.79c-.1,1.7,2.9,4.9,4.5,4.9.5,0,.1-.5-.9-1.1a7.74,7.74,0,0,1-2.7-3.2Q644,343.14,644,344.79Z" transform="translate(-228.18 -299.77)"/><path d="M396.71,349.39a83.37,83.37,0,0,0,10,0c2.6-.2.2-.3-5.3-.3S393.81,349.19,396.71,349.39Z" transform="translate(-228.18 -299.77)"/><path d="M668.21,349.39c5.9.2,15.4.2,21,0s.8-.3-10.8-.3S662.31,349.29,668.21,349.39Z" transform="translate(-228.18 -299.77)"/><path d="M252.71,423.19a12,12,0,0,1-3.4.7l-2.9.2.2,89.5c.2,49.3.5,90.1.7,90.7.9,2.3,13.8,2.7,84.6,2.7,74.7,0,83.3-.2,84.9-1.8.6-.6.6-3.1,0-6.5-1-5.7-.5-31.8.6-36.3.5-1.9.1-3.1-1.5-4.7-2-2-2.6-2.1-6.1-1.1-3.8,1.2-108.4,1.6-114,.4-3.8-.7-4.5-2.9-3.9-13.1l.5-9.4,60.5.2c33.3.2,62,.3,63.9.4l3.4.1-.1-23.2c0-12.8-.3-23.7-.6-24.2s-2.1-.5-4.3,0c-4.2,1-119.2,1.2-121.7.3-1.3-.5-1.6-2.4-1.6-10v-9.4h61.4c48.1,0,61.7-.3,62.3-1.3.4-.6.8-9.8.8-20.2s.4-19.8.8-20.7c.7-1.3.3-1.8-1.5-2.3-2.9-.7,5.1-.6-84.7-.6-42.1,0-76.8-.2-77.1-.4A1.05,1.05,0,0,0,252.71,423.19Zm167.2,110.5a1.1,1.1,0,0,1-1.1,1c-.5,0-.7-.5-.4-1s.8-1,1.1-1S419.91,533.09,419.91,533.69Z" transform="translate(-228.18 -299.77)"/><path d="M458.41,424.39c-.2.7-.4,41.5-.5,90.7,0,81.6.2,89.5,1.7,90.7,1.3,1.2,15.8,1.4,82.2,1.4,44.3,0,82.3-.4,84.4-.8l3.7-.8v-24.4c0-18.9-.3-24.5-1.2-24.5-.7-.1-28.6,0-62,0-41.7.1-60.8-.2-61.3-1-.3-.6-.6-30.2-.5-65.9,0-51.1-.2-65.1-1.2-65.7-.7-.4-11-.8-23-.8C464.21,423.19,458.81,423.49,458.41,424.39Z" transform="translate(-228.18 -299.77)"/><path d="M667.31,424.69a4.54,4.54,0,0,0-.6,2.2c.1.4.2,40.8.2,89.7v89l4.8.8c2.6.4,39.8.8,82.7.8,72.7,0,78.3-.1,80.8-1.7l2.6-1.8.3-22.5c.2-12.4-.1-22.5-.5-22.5s-.6-.4-.3-.8c.6-1-1-1.2-9.4-.9-12.3.4-109.5,0-112-.5l-2.5-.5-.2-66.3c-.1-36.4-.5-66.5-.9-66.9s-.4,0,.1.8c.6,1,.4,1.2-.5.6s-11-.9-22.7-.9C671.21,423.19,667.81,423.39,667.31,424.69Z" transform="translate(-228.18 -299.77)"/><path d="M353.41,486.69l-60,.5,59.5.2c32.7.1,60.4-.2,61.5-.7s1.3-.8.5-.7S386.41,486.39,353.41,486.69Z" transform="translate(-228.18 -299.77)"/><path d="M374.31,671.79c-.4.7-2.2.9-4.3.6l-3.6-.4.2,23.5c.2,13,.7,24,1.2,24.5a4,4,0,0,0,3.2.4c2.2-.4,2.2-.4-.3-.6-1.5,0-3-.6-3.4-1.3s-.3-.8.3-.5c1.4.9,65.6,1.3,67.1.4a3.25,3.25,0,0,0,1.1-2.5c0-1.2-.3-1.1-.9.5-1.5,3.7-1.8,2.6-.8-2.2a43.13,43.13,0,0,0,.4-10.3c-.3-3.1-.6-6.4-.7-7.2s.2-5.1.6-9.5c.5-5.7.3-8.9-.6-11a12,12,0,0,1-1.1-3.6c0-.3-1.3-.3-3-.1-2.1.3-2.9.1-2.4-.7.9-1.4.7-1.4-3-.1l-2.9,1,.2,18.3c.1,11.6-.3,18.7-1,19.5-1.5,1.8-39.3,1.4-40.9-.5-.6-.7-.7-1.3-.2-1.3s.3-.4-.5-.9a2.13,2.13,0,0,1-.7-2.7c.4-1.1.7-8.4.6-16.4-.1-12.8-.3-14.6-2-16.2C375.61,671.29,374.81,671.09,374.31,671.79Z" transform="translate(-228.18 -299.77)"/><path d="M566.71,671.19c-.3.3-14,.6-30.5.7-27.1.1-30.1.2-32.1,1.8-2.2,1.8-3.1,4.7-1.1,3.4.7-.4.9,0,.5,1.4a2.44,2.44,0,0,0,.4,2.7c1.3.8,1.3,6.8-.1,8.2-.8.8-.8,2.2,0,4.9,1.4,5,1.4,9.4,0,9.4-.6,0-.9,2.4-.7,6.5.3,6,.5,6.6,3,7.7,1.5.7,2.2,1.5,1.7,1.9s.6,1,2.6,1.3c3.9.8,6.7-.6,5.9-2.9a1.64,1.64,0,0,1,.4-1.9c.5-.3.5-2.7-.1-5.8-.9-5.5.2-10.8,2.3-10.8.6,0,.8.5.5,1-.4.7,1.7.9,5.9.7,7.4-.4,8.2-.1,17.9,8.9,9.2,8.5,10.9,9.3,16.3,8.8,3.5-.3,4.5-.1,3.4.6s-.4,1,2.8,1,4.2-.4,4.2-1.7-.3-1.4-1.2-.5a3.83,3.83,0,0,1-2.1,1.2c-.5,0-.1-.7.8-1.7,1.6-1.5,1.3-1.8-3.7-4.9-2.9-1.8-5.7-3.6-6.3-4.1a11.32,11.32,0,0,0-2.7-1.6,3.26,3.26,0,0,1-1.8-3.2c0-1.4-.5-2.5-1.1-2.5s-.9.9-.6,2.1c.4,1.6.3,1.8-.9.8-3.3-2.7.4-5.1,7.5-4.8,1.9.1,1.5.4-1.4.9-2.5.5-.6.6,5.3.4,9.6-.3,11.2-.7,11.2-2.7,0-.6-.7-.2-1.5.9-1.3,1.7-1.3,1.6-.3-1.6,1.6-5.2,2.1-10,1.2-10-1.7,0-1.6-9,.1-10.6s1.1-3.9-.6-2.8c-.5.3-.8,0-.7-.8a.81.81,0,0,0-.9-1.1c-.7.2-1.3-.2-1.3-.7C568.91,670.59,567.61,670.39,566.71,671.19Zm-16.5,2.2a7.56,7.56,0,0,1-3,0c-1-.3-.4-.5,1.2-.5S550.81,673.09,550.21,673.39Zm-29.3,7.2c0,.6,7.8.9,18.5.9,10.2,0,18.5.3,18.6.8a11.09,11.09,0,0,0,1,2.6c.6,1.1.5,1.9-.2,2.3a1.67,1.67,0,0,0-.5,2c1.1,3-1.8,3.5-20.3,3.3l-18.6-.2,17.5-.6,17.5-.6h-18.2c-9.9.1-17.9-.2-17.6-.7s-.1-.7-.7-.7-.8-.5-.5-1,.2-1-.3-1c-1.2,0-1-5.6.2-6.7.5-.5.6-.2.2.7s-.1.7.6-.3C519.51,679.59,520.91,679.09,520.91,680.59Zm-5.5,39.1a3.47,3.47,0,0,1-2.8.9c-2-.1-2-.2.3-.9,1.4-.4,2.6-.8,2.8-.9S515.71,719.09,515.41,719.69Z" transform="translate(-228.18 -299.77)"/><path d="M652.41,671.69c-.4.6-1.9,1-3.3.9-3-.4-5.2.7-5.2,2.4,0,.6.7.2,1.5-.9,1.3-1.7,1.4-1.6.5,1.3-.5,2-.5,3.5.1,3.8s.9,3.2.9,6.3c0,4.2-.3,5.3-1.1,4.2s-.9,2.2-.7,11.2c.2,6.9,0,12.4-.4,12.2-1-.6.2,2.5,2,5.3a4.47,4.47,0,0,0,3.6,2.2c1.9-.1,1.9-.2-.4-.9-1.4-.5,11.6-.8,29.3-.8,20.6.1,32.2-.3,32.8-.9s.9-4.3.7-8.6c-.2-4.8.1-7.3.7-6.9s.7.1.2-.3-3.6-.8-7-.8l-6.2.1v4.2c0,2.8-.5,4.4-1.7,5.1-2.6,1.4-38.8.5-39.8-1.1-.4-.7-.7-9-.6-18.6l.1-17.3-2.7-1.5Q653,670.64,652.41,671.69Zm-5.8,26.2c-.2,1.3-.4.5-.4-1.7s.1-3.2.4-2.3A13.39,13.39,0,0,1,646.61,697.89Zm0,10c-.2,1.3-.4.5-.4-1.7s.1-3.2.4-2.3A13.39,13.39,0,0,1,646.61,707.89Z" transform="translate(-228.18 -299.77)"/><path d="M814.71,671.39a2,2,0,0,0,1.9-.1c.4-.3-.2-.6-1.3-.5S813.91,671.09,814.71,671.39Z" transform="translate(-228.18 -299.77)"/><path d="M232.41,672.59c-3.7.6-4,.8-3.7,3.6.8,7.7,1,28.8.2,25.5-.6-2.6-.8-.9-.7,6,.2,7.5.6,9.9,2,11.5s2.1,1.8,3.8.7c2.6-1.7,53.6-1.5,58,.1,2.2.9,3.2.8,4.1-.1,1.1-1.1.9-1.2-.7-.7s-1.5.3.3-.6c1.9-1.1,2.2-1.7,1.6-5.3a40.65,40.65,0,0,1-.5-6.1c0-1.1.3-6.4.6-11.7.3-5.5.1-10.8-.5-12.4s-.7-3.1-.2-3.8.5-2.5.1-4.1l-.8-3-17.1-.2c-9.9-.1-18.4.3-20.1.9-2.2.8-3.4.7-4.2-.1C253.41,671.59,239.61,671.49,232.41,672.59Zm51.9,7.7c1.1,1,1.6,3.4,1.6,7,0,4.9-.2,5.5-2.6,6.4-3.1,1.2-17.9,1.1-21.1-.1s-5.5-.1-5.1,2.4c.4,2.9,4.9,3.7,18.1,3.1l10.7-.5v5.8c0,3.3-.5,6.4-1.2,7.1-1.7,1.7-41.9,1.7-43.6,0-1.5-1.5-1.6-9.2-.1-8.3.7.5,1-2.7.8-10.6l-.3-11.4,19.6-.5c10.8-.3,20-.8,20.4-1.3C282.51,678.49,282.51,678.49,284.31,680.29Zm12.3,11.6c-.3.8-.6.5-.6-.6s.2-1.7.5-1.3A2,2,0,0,1,296.61,691.89Z" transform="translate(-228.18 -299.77)"/><path d="M264.61,691.39a40.89,40.89,0,0,0,7,0c2.1-.2.7-.4-3.2-.4S262.91,691.19,264.61,691.39Z" transform="translate(-228.18 -299.77)"/><path d="M254.11,695.19c0,1.6.2,2.2.5,1.2a7.56,7.56,0,0,0,0-3C254.31,692.79,254.11,693.49,254.11,695.19Z" transform="translate(-228.18 -299.77)"/><path d="M255.71,700.89a3.31,3.31,0,0,0,2.8.6c1.4-.3,1.2-.5-.9-1C255.71,700.19,255.11,700.29,255.71,700.89Z" transform="translate(-228.18 -299.77)"/><path d="M809.21,673.89c-1.9,2.1-10,15.9-14.1,23.9a56.15,56.15,0,0,1-5,8.4,10.32,10.32,0,0,0-2.2,4.1,5.28,5.28,0,0,1-2,3.1c-2.5,2.2-2.8,7.5-.3,6.6.9-.4,1.4-.2,1,.3-.4.7,1.1.8,4.1.4,6.7-1,10.2-2.6,10.2-4.8,0-1,1.1-3.3,2.5-5.2s2.5-3.9,2.5-4.6a1.92,1.92,0,0,1,.8-1.6c1.1-.4,5.7-10.4,6.6-14.1.3-1.5,1.2-2.7,2-2.7,1.5,0,4.6,3.1,4.6,4.7,0,.5,1.8,3.8,4,7.2s4,6.9,4,7.9c0,1.5.2,1.5,1.1.2s1-1.1.7.5c-.3,1.8-1,2-5.9,1.7-7.2-.5-8.7,1.1-7,6.8l1.2,4,6.7-.1c5.5-.1,6-.3,3.2-.9-2.5-.5-1.3-.7,4.2-.6,4.3,0,7.2.4,6.5.8-1.8,1.2,8.1,1,10.3-.2s1.8-3.2-1-6.5a58.92,58.92,0,0,1-5-8c-5.4-10-17.3-29.9-18.7-31.5C822.21,671.49,811.31,671.59,809.21,673.89Z" transform="translate(-228.18 -299.77)"/><path d="M435,675.29c0,1.1.3,1.4.6.6a2,2,0,0,0-.1-1.9C435.21,673.59,434.91,674.19,435,675.29Z" transform="translate(-228.18 -299.77)"/><path d="M228.21,688.69c0,3,.2,4.3.4,2.7a25.28,25.28,0,0,0,0-5.5C228.41,684.39,228.21,685.69,228.21,688.69Z" transform="translate(-228.18 -299.77)"/><path d="M435,693.29c0,1.1.3,1.4.6.6a2,2,0,0,0-.1-1.9C435.21,691.59,434.91,692.19,435,693.29Z" transform="translate(-228.18 -299.77)"/><path d="M714,705.29c0,1.1.3,1.4.6.6a2,2,0,0,0-.1-1.9C714.21,703.59,713.91,704.19,714,705.29Z" transform="translate(-228.18 -299.77)"/><path d="M713.11,717.69c-.9,1.4-2.4,2-5.5,2.1s-3.5.3-1.3.6c3.9.6,7.3-.4,8-2.3C715.21,715.69,714.51,715.49,713.11,717.69Z" transform="translate(-228.18 -299.77)"/><path d="M243.21,720.39a47,47,0,0,0,7.5,0c2-.2.3-.4-3.8-.4S241.11,720.19,243.21,720.39Z" transform="translate(-228.18 -299.77)"/><path d="M263.71,720.39c3.9.2,10.5.2,14.5,0s.7-.3-7.3-.3S259.71,720.29,263.71,720.39Z" transform="translate(-228.18 -299.77)"/><path d="M386.21,720.39c3.7.2,9.6.2,13,0s.4-.3-6.8-.3S382.51,720.19,386.21,720.39Z" transform="translate(-228.18 -299.77)"/><path d="M428.71,720.39a5.28,5.28,0,0,0,2.5,0c.6-.3.1-.5-1.3-.5S428,720.09,428.71,720.39Z" transform="translate(-228.18 -299.77)"/><path d="M664.11,720.39c4.8.2,12.9.2,18,0s1.2-.3-8.7-.3S659.31,720.29,664.11,720.39Z" transform="translate(-228.18 -299.77)"/></svg>