<?xml version="1.0" encoding="utf-8"?>
<svg width="50px" height="50px" viewBox="0 0 50 50" version="1.1" xmlns:xlink="http://www.w3.org/1999/xlink" xmlns="http://www.w3.org/2000/svg">
  <defs>
    <path d="M0 0L50 0L50 50L0 50L0 0Z" id="path_1" />
    <clipPath id="mask_1">
      <use xlink:href="#path_1" />
    </clipPath>
  </defs>
  <g id="Facebook-icon">
    <path d="M0 0L50 0L50 50L0 50L0 0Z" id="Background" fill="none" fill-rule="evenodd" stroke="none" />
    <g clip-path="url(#mask_1)">
      <path d="M37 0L5 0C2.24 0 0 2.24 0 5L0 37C0 39.76 2.24 42 5 42L37 42C39.76 42 42 39.76 42 37L42 5C42 2.24 39.76 0 37 0L37 0ZM33 15L31 15C28.86 15 28 15.5 28 17L28 20L33 20L32 25L28 25L28 40L23 40L23 25L19 25L19 20L23 20L23 17C23 13 25 10 29 10C31.9 10 33 11 33 11L33 15L33 15Z" transform="translate(4 4)" id="Shape" fill="#FFFFFF" fill-rule="evenodd" stroke="none" />
    </g>
  </g>
</svg>