<?xml version="1.0" encoding="utf-8"?>
<svg width="50px" height="50px" viewBox="0 0 50 50" version="1.1" xmlns:xlink="http://www.w3.org/1999/xlink" xmlns="http://www.w3.org/2000/svg">
  <defs>
    <path d="M0 0L50 0L50 50L0 50L0 0Z" id="path_1" />
    <clipPath id="mask_1">
      <use xlink:href="#path_1" />
    </clipPath>
  </defs>
  <g id="Instagram-icon">
    <path d="M0 0L50 0L50 50L0 50L0 0Z" id="Background" fill="none" fill-rule="evenodd" stroke="none" />
    <g clip-path="url(#mask_1)">
      <path d="M13 0C5.83 0 0 5.83 0 13L0 31C0 38.17 5.83 44 13 44L31 44C38.17 44 44 38.17 44 31L44 13C44 5.83 38.17 0 31 0L13 0L13 0ZM34 8C35.1 8 36 8.9 36 10C36 11.1 35.1 12 34 12C32.9 12 32 11.1 32 10C32 8.9 32.9 8 34 8L34 8ZM22 11C28.07 11 33 15.93 33 22C33 28.07 28.07 33 22 33C15.93 33 11 28.07 11 22C11 15.93 15.93 11 22 11L22 11ZM22 13C17.04 13 13 17.04 13 22C13 26.96 17.04 31 22 31C26.96 31 31 26.96 31 22C31 17.04 26.96 13 22 13L22 13Z" transform="translate(3 3)" id="Shape" fill="#FFFFFF" fill-rule="evenodd" stroke="none" />
    </g>
  </g>
</svg>