<svg id="Layer_1" data-name="Layer 1" xmlns="http://www.w3.org/2000/svg" viewBox="0 0 300.31 421.37"><defs><style>.cls-1{fill:#fff;}</style></defs><path class="cls-1" d="M294.7.48c-.9.6-64.1.8-147.6.7C28.9,1,.9,1.08.5,2.18.3,2.88,0,97,0,211.28c0,173.6.2,208,1.3,209,1,.8,41.5,1.1,149.7,1.1,81.6,0,148.5-.2,148.7-.4.9-.9.5-42.8-.4-43.7-.6-.6-47.6-1-124.9-1.2l-123.9-.2-.3-161.4c-.1-88.8.2-161.9.6-162.3s56.2-1,123.8-1.1,123.6-.5,124.4-1,1.4-1.9,1.3-4c-.1-1.7-.2-12.7-.2-24.3C300,2,299.9.58,298.1.08A6.58,6.58,0,0,0,294.7.48Z" transform="translate(0 -0.01)"/><path class="cls-1" d="M133.38,118.74l-3.4.5.1,19.5c.1,10.7.2,20.7.2,22.2v2.7l61.6.1c33.9,0,62,.2,62.4.5s.9,19.8.9,43.4c.1,33.3-.2,43.1-1.1,43.9-1.4,1.1-116.7,1.2-120.3.1a2.84,2.84,0,0,0-3,.5c-.6.6-1,10.2-1,24.2,0,14.2.4,23.5,1,24,1.6,1.4,8.8,1.6,85,1.6s81.8-.1,83.5-1.8c1.3-1.3,1.4-179.4.1-180.7-.9-.9-144.2-1-150.1-.1a31.51,31.51,0,0,1-8-.3A26.84,26.84,0,0,0,133.38,118.74Z" transform="translate(0 -0.01)"/></svg>