<svg id="Layer_1" data-name="Layer 1" xmlns="http://www.w3.org/2000/svg" viewBox="0 0 591.76 184.56"><defs><style>.cls-1{fill:#fff;}</style></defs><path class="cls-1" d="M6.3.51a12,12,0,0,1-3.4.7L0,1.41l.2,89.5c.2,49.3.5,90.1.7,90.7.9,2.3,13.8,2.7,84.6,2.7,74.7,0,83.3-.2,84.9-1.8.6-.6.6-3.1,0-6.5-1-5.7-.5-31.8.6-36.3.5-1.9.1-3.1-1.5-4.7-2-2-2.6-2.1-6.1-1.1-3.8,1.2-108.4,1.6-114,.4-3.8-.7-4.5-2.9-3.9-13.1l.5-9.4,60.5.2c33.3.2,62,.3,63.9.4l3.4.1-.1-23.2c0-12.8-.3-23.7-.6-24.2s-2.1-.5-4.3,0c-4.2,1-119.2,1.2-121.7.3-1.3-.5-1.6-2.4-1.6-10V46h61.4c48.1,0,61.7-.3,62.3-1.3.4-.6.8-9.8.8-20.2s.4-19.8.8-20.7c.7-1.3.3-1.8-1.5-2.3-2.9-.7,5.1-.6-84.7-.6C42.5.91,7.8.71,7.5.51A1.05,1.05,0,0,0,6.3.51ZM173.49,111a1.1,1.1,0,0,1-1.1,1c-.5,0-.7-.5-.4-1s.8-1,1.1-1S173.49,110.41,173.49,111Z" transform="translate(0 0.05)"/><path class="cls-1" d="M212,1.71c-.2.7-.4,41.5-.5,90.7,0,81.6.2,89.5,1.7,90.7,1.3,1.2,15.8,1.4,82.2,1.4,44.3,0,82.3-.4,84.4-.8l3.7-.8v-24.4c0-18.9-.3-24.5-1.2-24.5-.7-.1-28.6,0-62,0-41.7.1-60.8-.2-61.3-1-.3-.6-.6-30.2-.5-65.9,0-51.1-.2-65.1-1.2-65.7-.7-.4-11-.8-23-.8C217.8.51,212.4.79,212,1.71Z" transform="translate(0 0.05)"/><path class="cls-1" d="M420.9,2a4.59,4.59,0,0,0-.6,2.2c.1.4.2,40.8.2,89.7v89l4.8.8c2.6.4,39.8.8,82.7.8,72.7,0,78.3-.1,80.8-1.7l2.6-1.8.3-22.5c.2-12.4-.1-22.5-.5-22.5s-.6-.4-.3-.8c.6-1-1-1.2-9.4-.9-12.3.4-109.5,0-112-.5l-2.5-.5L466.8,67c-.1-36.4-.5-66.5-.9-66.9s-.4,0,.1.8c.6,1,.4,1.2-.5.6s-11-.9-22.7-.9C424.8.51,421.4.71,420.9,2Z" transform="translate(0 0.05)"/><path class="cls-1" d="M107,64l-60,.5,59.5.2c32.7.1,60.4-.2,61.5-.7s1.3-.8.5-.7S140,63.71,107,64Z" transform="translate(0 0.05)"/></svg>