<?xml version="1.0" encoding="UTF-8"?>
<svg xmlns="http://www.w3.org/2000/svg" xmlns:xlink="http://www.w3.org/1999/xlink" width="262.5pt" height="52.499999pt" viewBox="0 0 262.5 52.499999" version="1.2">
<defs>
<clipPath id="clip1">
  <path d="M 0.992188 0 L 261.015625 0 L 261.015625 52.003906 L 0.992188 52.003906 Z M 0.992188 0 "/>
</clipPath>
<clipPath id="clip2">
  <path d="M 73 14.382812 L 111.488281 14.382812 L 111.488281 37.457031 L 73 37.457031 Z M 73 14.382812 "/>
</clipPath>
<clipPath id="clip3">
  <path d="M 73 14.382812 L 83 14.382812 L 83 30 L 73 30 Z M 73 14.382812 "/>
</clipPath>
<clipPath id="clip4">
  <path d="M 102 16 L 111.488281 16 L 111.488281 31 L 102 31 Z M 102 16 "/>
</clipPath>
<clipPath id="clip5">
  <path d="M 72.78125 14.382812 L 83 14.382812 L 83 30 L 72.78125 30 Z M 72.78125 14.382812 "/>
</clipPath>
<clipPath id="clip6">
  <path d="M 76 17 L 96 17 L 96 37.457031 L 76 37.457031 Z M 76 17 "/>
</clipPath>
<clipPath id="clip7">
  <path d="M 101 15 L 111.488281 15 L 111.488281 32 L 101 32 Z M 101 15 "/>
</clipPath>
<clipPath id="clip8">
  <path d="M 88 33 L 92 33 L 92 37.457031 L 88 37.457031 Z M 88 33 "/>
</clipPath>
<clipPath id="clip9">
  <path d="M 87 33 L 92 33 L 92 37.457031 L 87 37.457031 Z M 87 33 "/>
</clipPath>
<clipPath id="clip10">
  <path d="M 24.953125 11.164062 L 65.890625 11.164062 L 65.890625 40.9375 L 24.953125 40.9375 Z M 24.953125 11.164062 "/>
</clipPath>
<clipPath id="clip11">
  <path d="M 121.785156 11.164062 L 151.558594 11.164062 L 151.558594 40.9375 L 121.785156 40.9375 Z M 121.785156 11.164062 "/>
</clipPath>
</defs>
<g id="surface1">
<g clip-path="url(#clip1)" clip-rule="nonzero">
<path style=" stroke:none;fill-rule:nonzero;fill:rgb(100%,100%,100%);fill-opacity:1;" d="M 0.992188 0 L 261.507812 0 L 261.507812 58.804688 L 0.992188 58.804688 Z M 0.992188 0 "/>
<path style=" stroke:none;fill-rule:nonzero;fill:rgb(100%,100%,100%);fill-opacity:1;" d="M 0.992188 0 L 261.507812 0 L 261.507812 52.105469 L 0.992188 52.105469 Z M 0.992188 0 "/>
<path style=" stroke:none;fill-rule:nonzero;fill:rgb(0.389099%,4.708862%,11.759949%);fill-opacity:1;" d="M 0.992188 0 L 261.507812 0 L 261.507812 52.105469 L 0.992188 52.105469 Z M 0.992188 0 "/>
</g>
<g clip-path="url(#clip2)" clip-rule="nonzero">
<path style=" stroke:none;fill-rule:nonzero;fill:rgb(100%,100%,100%);fill-opacity:1;" d="M 105.277344 16.371094 L 102.058594 17.769531 L 102.824219 19.488281 L 101.144531 20.140625 L 94.667969 17.125 L 91.449219 17.964844 L 91.441406 17.925781 L 81.464844 17.925781 L 82.230469 16.207031 L 79.011719 14.808594 L 73.261719 27.734375 L 76.480469 29.128906 L 77.378906 27.117188 L 78.464844 27.117188 L 81.417969 29.257812 L 81.304688 29.371094 C 80.691406 29.976562 80.691406 30.960938 81.304688 31.566406 C 81.917969 32.171875 82.917969 32.171875 83.53125 31.566406 L 83.777344 31.324219 C 83.164062 31.929688 83.164062 32.914062 83.777344 33.519531 C 84.390625 34.125 85.390625 34.125 86.003906 33.519531 L 86.15625 33.371094 C 85.625 33.890625 85.625 34.730469 86.15625 35.25 C 86.683594 35.769531 87.535156 35.769531 88.0625 35.25 L 88.5625 34.757812 C 88.035156 35.277344 88.035156 36.117188 88.5625 36.636719 C 89.089844 37.15625 89.941406 37.15625 90.46875 36.636719 L 90.863281 36.246094 C 90.894531 36.21875 90.914062 36.199219 90.929688 36.171875 L 91.074219 36.273438 C 91.988281 36.941406 93.261719 36.859375 94.09375 36.085938 L 94.660156 35.558594 L 94.808594 35.679688 C 95.753906 36.441406 97.132812 36.375 97.980469 35.519531 L 98.527344 34.980469 L 98.300781 34.90625 C 98.332031 34.894531 98.367188 34.886719 98.398438 34.878906 L 98.40625 34.878906 C 99 35.363281 99.878906 35.296875 100.40625 34.738281 C 100.878906 34.234375 100.917969 33.5 100.558594 32.960938 L 100.613281 32.90625 L 101.160156 33.332031 C 101.859375 33.875 102.871094 33.769531 103.4375 33.089844 C 104.011719 32.402344 103.917969 31.378906 103.21875 30.8125 L 103.050781 30.671875 L 105.816406 28.664062 L 106.898438 28.664062 L 107.796875 30.671875 L 111.015625 29.277344 Z M 105.277344 16.371094 "/>
</g>
<g clip-path="url(#clip3)" clip-rule="nonzero">
<path style=" stroke:none;fill-rule:nonzero;fill:rgb(100%,8.628845%,8.628845%);fill-opacity:1;" d="M 79 14.816406 L 82.222656 16.210938 L 76.484375 29.121094 L 73.261719 27.726562 Z M 79 14.816406 "/>
</g>
<g clip-path="url(#clip4)" clip-rule="nonzero">
<path style=" stroke:none;fill-rule:nonzero;fill:rgb(100%,8.628845%,8.628845%);fill-opacity:1;" d="M 111.011719 29.289062 L 107.789062 30.679688 L 102.050781 17.769531 L 105.273438 16.378906 Z M 111.011719 29.289062 "/>
</g>
<g clip-path="url(#clip5)" clip-rule="nonzero">
<path style=" stroke:none;fill-rule:nonzero;fill:rgb(20.388794%,19.219971%,22.749329%);fill-opacity:1;" d="M 76.480469 29.546875 C 76.425781 29.546875 76.367188 29.539062 76.3125 29.507812 L 73.09375 28.113281 C 72.875 28.019531 72.78125 27.769531 72.875 27.566406 L 78.613281 14.652344 C 78.660156 14.550781 78.746094 14.464844 78.851562 14.429688 C 78.953125 14.390625 79.078125 14.390625 79.171875 14.4375 L 82.390625 15.832031 C 82.605469 15.925781 82.699219 16.175781 82.605469 16.382812 L 76.878906 29.296875 C 76.832031 29.398438 76.746094 29.480469 76.640625 29.519531 C 76.585938 29.539062 76.539062 29.546875 76.480469 29.546875 Z M 73.820312 27.519531 L 76.265625 28.570312 L 81.664062 16.429688 L 79.21875 15.367188 Z M 73.820312 27.519531 "/>
</g>
<path style=" stroke:none;fill-rule:nonzero;fill:rgb(20.388794%,19.219971%,22.749329%);fill-opacity:1;" d="M 96.320312 36.636719 C 95.699219 36.636719 95.066406 36.429688 94.546875 36.003906 L 90.535156 32.730469 C 90.355469 32.578125 90.328125 32.320312 90.476562 32.140625 C 90.628906 31.964844 90.894531 31.9375 91.074219 32.085938 L 95.082031 35.351562 C 95.859375 35.984375 96.980469 35.929688 97.6875 35.222656 L 98.234375 34.683594 C 98.398438 34.515625 98.671875 34.515625 98.839844 34.683594 C 99.011719 34.839844 99.011719 35.109375 98.839844 35.277344 L 98.292969 35.816406 C 97.746094 36.355469 97.039062 36.636719 96.320312 36.636719 Z M 96.320312 36.636719 "/>
<g clip-path="url(#clip6)" clip-rule="nonzero">
<path style=" stroke:none;fill-rule:nonzero;fill:rgb(20.388794%,19.219971%,22.749329%);fill-opacity:1;" d="M 92.480469 37.148438 C 91.902344 37.148438 91.328125 36.972656 90.828125 36.609375 L 78.332031 27.527344 L 77.378906 27.527344 C 77.238281 27.527344 77.105469 27.453125 77.019531 27.34375 C 76.933594 27.230469 76.925781 27.070312 76.980469 26.941406 L 81.058594 17.757812 C 81.125 17.609375 81.277344 17.507812 81.445312 17.507812 L 91.429688 17.507812 C 91.667969 17.507812 91.855469 17.695312 91.855469 17.925781 C 91.855469 18.160156 91.667969 18.34375 91.429688 18.34375 L 81.738281 18.34375 L 78.027344 26.691406 L 78.472656 26.691406 C 78.566406 26.691406 78.652344 26.71875 78.726562 26.773438 L 91.335938 35.9375 C 92.09375 36.488281 93.128906 36.421875 93.808594 35.78125 L 94.375 35.25 C 94.546875 35.09375 94.808594 35.101562 94.980469 35.269531 C 95.140625 35.4375 95.132812 35.695312 94.960938 35.863281 L 94.394531 36.394531 C 93.867188 36.898438 93.175781 37.148438 92.480469 37.148438 Z M 92.480469 37.148438 "/>
</g>
<path style=" stroke:none;fill-rule:nonzero;fill:rgb(20.388794%,19.219971%,22.749329%);fill-opacity:1;" d="M 102.171875 34.097656 C 101.726562 34.097656 101.273438 33.957031 100.898438 33.660156 L 94.261719 28.515625 C 94.074219 28.375 94.046875 28.105469 94.1875 27.929688 C 94.328125 27.742188 94.601562 27.714844 94.78125 27.855469 L 101.417969 33 C 101.9375 33.398438 102.679688 33.324219 103.105469 32.820312 C 103.3125 32.578125 103.410156 32.261719 103.378906 31.945312 C 103.351562 31.628906 103.191406 31.34375 102.945312 31.136719 L 92.402344 22.558594 C 92.222656 22.410156 92.195312 22.148438 92.347656 21.972656 C 92.496094 21.796875 92.761719 21.769531 92.941406 21.917969 L 103.472656 30.496094 C 103.898438 30.839844 104.164062 31.332031 104.210938 31.871094 C 104.265625 32.414062 104.097656 32.941406 103.746094 33.363281 C 103.351562 33.84375 102.765625 34.097656 102.171875 34.097656 Z M 102.171875 34.097656 "/>
<path style=" stroke:none;fill-rule:nonzero;fill:rgb(20.388794%,19.219971%,22.749329%);fill-opacity:1;" d="M 99.332031 35.613281 C 98.90625 35.613281 98.480469 35.472656 98.140625 35.195312 L 92.402344 30.589844 C 92.222656 30.441406 92.195312 30.179688 92.347656 30.003906 C 92.496094 29.824219 92.761719 29.796875 92.941406 29.945312 L 98.671875 34.550781 C 99.09375 34.894531 99.71875 34.851562 100.09375 34.460938 C 100.292969 34.246094 100.398438 33.964844 100.371094 33.675781 C 100.351562 33.390625 100.207031 33.128906 99.972656 32.953125 L 98.453125 31.78125 C 98.265625 31.640625 98.234375 31.371094 98.378906 31.195312 C 98.519531 31.015625 98.792969 30.980469 98.972656 31.121094 L 100.492188 32.292969 C 100.90625 32.617188 101.171875 33.089844 101.210938 33.613281 C 101.246094 34.132812 101.066406 34.644531 100.707031 35.027344 C 100.351562 35.40625 99.839844 35.613281 99.332031 35.613281 Z M 99.332031 35.613281 "/>
<g clip-path="url(#clip7)" clip-rule="nonzero">
<path style=" stroke:none;fill-rule:nonzero;fill:rgb(20.388794%,19.219971%,22.749329%);fill-opacity:1;" d="M 107.796875 31.101562 C 107.742188 31.101562 107.691406 31.089844 107.644531 31.074219 C 107.542969 31.035156 107.457031 30.953125 107.410156 30.847656 L 101.664062 17.9375 C 101.613281 17.832031 101.613281 17.722656 101.652344 17.621094 C 101.691406 17.515625 101.777344 17.433594 101.878906 17.386719 L 105.097656 15.992188 C 105.316406 15.898438 105.558594 15.992188 105.65625 16.207031 L 111.394531 29.117188 C 111.488281 29.332031 111.394531 29.574219 111.175781 29.667969 L 107.957031 31.0625 C 107.910156 31.082031 107.855469 31.101562 107.796875 31.101562 Z M 102.617188 17.980469 L 108.015625 30.125 L 110.457031 29.074219 L 105.058594 16.921875 Z M 102.617188 17.980469 "/>
</g>
<path style=" stroke:none;fill-rule:nonzero;fill:rgb(20.388794%,19.219971%,22.749329%);fill-opacity:1;" d="M 103.050781 31.089844 C 102.917969 31.089844 102.792969 31.035156 102.710938 30.921875 C 102.566406 30.738281 102.617188 30.476562 102.804688 30.335938 L 105.570312 28.328125 C 105.644531 28.273438 105.730469 28.246094 105.824219 28.246094 L 106.269531 28.246094 L 102.617188 20.019531 L 101.324219 20.523438 C 101.210938 20.570312 101.085938 20.558594 100.984375 20.511719 L 94.628906 17.5625 L 89.109375 19.003906 L 85.710938 23.414062 C 86.871094 24.039062 88.316406 23.945312 89.382812 23.15625 L 91.101562 21.75 C 91.222656 21.648438 91.394531 21.628906 91.535156 21.683594 C 91.582031 21.703125 92.675781 22.121094 94.027344 21.378906 C 94.234375 21.265625 94.488281 21.332031 94.601562 21.535156 C 94.714844 21.742188 94.648438 21.992188 94.441406 22.105469 C 93.121094 22.839844 91.960938 22.660156 91.460938 22.53125 L 89.921875 23.804688 C 89.910156 23.804688 89.910156 23.816406 89.902344 23.816406 C 88.476562 24.875 86.515625 24.941406 85.011719 23.984375 L 84.851562 23.878906 C 84.757812 23.816406 84.683594 23.714844 84.664062 23.601562 C 84.644531 23.488281 84.671875 23.367188 84.75 23.277344 L 88.523438 18.390625 C 88.582031 18.316406 88.664062 18.261719 88.75 18.242188 L 94.554688 16.726562 C 94.648438 16.699219 94.753906 16.707031 94.847656 16.753906 L 101.152344 19.683594 L 102.664062 19.097656 C 102.878906 19.015625 103.117188 19.117188 103.210938 19.320312 L 107.289062 28.503906 C 107.34375 28.636719 107.335938 28.785156 107.25 28.90625 C 107.164062 29.027344 107.042969 29.089844 106.890625 29.089844 L 105.9375 29.089844 L 103.285156 31.015625 C 103.21875 31.0625 103.132812 31.089844 103.050781 31.089844 Z M 103.050781 31.089844 "/>
<path style=" stroke:none;fill-rule:nonzero;fill:rgb(100%,100%,100%);fill-opacity:1;" d="M 85.109375 30.019531 L 83.542969 31.566406 C 82.925781 32.171875 81.925781 32.171875 81.3125 31.566406 C 80.699219 30.960938 80.699219 29.976562 81.3125 29.371094 L 82.878906 27.824219 C 83.492188 27.222656 84.496094 27.222656 85.109375 27.824219 C 85.722656 28.429688 85.722656 29.417969 85.109375 30.019531 Z M 85.109375 30.019531 "/>
<path style=" stroke:none;fill-rule:nonzero;fill:rgb(20.388794%,19.219971%,22.749329%);fill-opacity:1;" d="M 82.425781 32.441406 C 81.917969 32.441406 81.398438 32.246094 81.011719 31.863281 C 80.632812 31.492188 80.425781 31 80.425781 30.46875 C 80.425781 29.9375 80.632812 29.445312 81.011719 29.074219 L 82.578125 27.527344 C 83.363281 26.753906 84.625 26.753906 85.410156 27.527344 C 85.789062 27.898438 85.996094 28.394531 85.996094 28.921875 C 85.996094 29.453125 85.789062 29.945312 85.410156 30.320312 L 83.84375 31.863281 C 83.445312 32.246094 82.9375 32.441406 82.425781 32.441406 Z M 83.984375 27.789062 C 83.691406 27.789062 83.390625 27.898438 83.171875 28.125 L 81.605469 29.660156 C 81.390625 29.871094 81.265625 30.160156 81.265625 30.457031 C 81.265625 30.765625 81.390625 31.042969 81.605469 31.257812 C 82.058594 31.707031 82.785156 31.707031 83.238281 31.257812 L 84.804688 29.714844 C 85.023438 29.5 85.144531 29.210938 85.144531 28.914062 C 85.144531 28.605469 85.023438 28.328125 84.804688 28.113281 C 84.578125 27.898438 84.285156 27.789062 83.984375 27.789062 Z M 83.984375 27.789062 "/>
<path style=" stroke:none;fill-rule:nonzero;fill:rgb(100%,100%,100%);fill-opacity:1;" d="M 87.15625 32.402344 L 86.015625 33.527344 C 85.398438 34.132812 84.398438 34.132812 83.785156 33.527344 C 83.171875 32.925781 83.171875 31.9375 83.785156 31.332031 L 84.929688 30.207031 C 85.542969 29.601562 86.542969 29.601562 87.15625 30.207031 C 87.777344 30.804688 87.777344 31.789062 87.15625 32.402344 Z M 87.15625 32.402344 "/>
<path style=" stroke:none;fill-rule:nonzero;fill:rgb(20.388794%,19.219971%,22.749329%);fill-opacity:1;" d="M 84.898438 34.402344 C 84.363281 34.402344 83.863281 34.199219 83.484375 33.828125 C 83.105469 33.453125 82.898438 32.960938 82.898438 32.429688 C 82.898438 31.902344 83.105469 31.40625 83.484375 31.035156 L 84.625 29.910156 C 85.003906 29.539062 85.503906 29.332031 86.042969 29.332031 C 86.582031 29.332031 87.082031 29.539062 87.457031 29.910156 C 87.835938 30.28125 88.042969 30.773438 88.042969 31.304688 C 88.042969 31.835938 87.835938 32.328125 87.457031 32.699219 L 86.316406 33.828125 C 85.9375 34.199219 85.4375 34.402344 84.898438 34.402344 Z M 86.042969 30.160156 C 85.730469 30.160156 85.449219 30.28125 85.230469 30.496094 L 84.089844 31.621094 C 83.871094 31.835938 83.75 32.125 83.75 32.421875 C 83.75 32.730469 83.871094 33.007812 84.089844 33.222656 C 84.304688 33.4375 84.597656 33.558594 84.898438 33.558594 C 85.210938 33.558594 85.496094 33.4375 85.710938 33.222656 L 86.855469 32.097656 C 87.070312 31.882812 87.195312 31.59375 87.195312 31.296875 C 87.195312 30.988281 87.070312 30.710938 86.855469 30.496094 C 86.636719 30.28125 86.355469 30.160156 86.042969 30.160156 Z M 87.15625 32.402344 Z M 87.15625 32.402344 "/>
<path style=" stroke:none;fill-rule:nonzero;fill:rgb(100%,100%,100%);fill-opacity:1;" d="M 89.402344 33.9375 L 88.070312 35.25 C 87.542969 35.769531 86.695312 35.769531 86.164062 35.25 C 85.636719 34.730469 85.636719 33.890625 86.164062 33.371094 L 87.496094 32.058594 C 88.023438 31.539062 88.875 31.539062 89.402344 32.058594 C 89.929688 32.578125 89.929688 33.425781 89.402344 33.9375 Z M 89.402344 33.9375 "/>
<path style=" stroke:none;fill-rule:nonzero;fill:rgb(20.388794%,19.219971%,22.749329%);fill-opacity:1;" d="M 87.117188 36.058594 C 86.644531 36.058594 86.203125 35.875 85.863281 35.546875 C 85.53125 35.222656 85.34375 34.777344 85.34375 34.308594 C 85.34375 33.84375 85.53125 33.40625 85.863281 33.074219 L 87.195312 31.761719 C 87.882812 31.082031 89.003906 31.082031 89.695312 31.761719 C 90.023438 32.085938 90.214844 32.535156 90.214844 33 C 90.214844 33.464844 90.023438 33.902344 89.695312 34.234375 L 88.363281 35.546875 C 88.035156 35.882812 87.589844 36.058594 87.117188 36.058594 Z M 88.449219 32.097656 C 88.214844 32.097656 87.976562 32.1875 87.796875 32.367188 L 86.46875 33.675781 C 86.296875 33.84375 86.191406 34.078125 86.191406 34.320312 C 86.191406 34.5625 86.289062 34.792969 86.46875 34.960938 C 86.636719 35.128906 86.871094 35.230469 87.117188 35.230469 C 87.363281 35.230469 87.597656 35.136719 87.769531 34.960938 L 89.101562 33.648438 C 89.269531 33.480469 89.375 33.25 89.375 33.007812 C 89.375 32.765625 89.28125 32.535156 89.101562 32.367188 C 88.921875 32.179688 88.683594 32.097656 88.449219 32.097656 Z M 88.449219 32.097656 "/>
<g clip-path="url(#clip8)" clip-rule="nonzero">
<path style=" stroke:none;fill-rule:nonzero;fill:rgb(100%,100%,100%);fill-opacity:1;" d="M 90.875 36.246094 L 90.476562 36.636719 C 89.949219 37.15625 89.101562 37.15625 88.570312 36.636719 C 88.042969 36.117188 88.042969 35.277344 88.570312 34.757812 L 88.96875 34.367188 C 89.496094 33.84375 90.347656 33.84375 90.875 34.367188 C 91.402344 34.886719 91.402344 35.734375 90.875 36.246094 Z M 90.875 36.246094 "/>
</g>
<g clip-path="url(#clip9)" clip-rule="nonzero">
<path style=" stroke:none;fill-rule:nonzero;fill:rgb(20.388794%,19.219971%,22.749329%);fill-opacity:1;" d="M 89.523438 37.445312 C 89.054688 37.445312 88.609375 37.257812 88.269531 36.933594 C 87.582031 36.253906 87.582031 35.148438 88.269531 34.46875 L 88.664062 34.078125 C 89.355469 33.398438 90.476562 33.398438 91.167969 34.078125 C 91.496094 34.402344 91.6875 34.851562 91.6875 35.316406 C 91.6875 35.78125 91.496094 36.21875 91.167969 36.550781 L 90.769531 36.941406 C 90.441406 37.269531 89.996094 37.445312 89.523438 37.445312 Z M 89.921875 34.402344 C 89.683594 34.402344 89.449219 34.496094 89.269531 34.671875 L 88.875 35.0625 C 88.515625 35.417969 88.515625 35.996094 88.875 36.347656 C 89.042969 36.515625 89.28125 36.617188 89.523438 36.617188 C 89.769531 36.617188 90.007812 36.523438 90.175781 36.347656 L 90.574219 35.957031 C 90.742188 35.789062 90.847656 35.558594 90.847656 35.316406 C 90.847656 35.074219 90.75 34.839844 90.574219 34.671875 C 90.394531 34.488281 90.15625 34.402344 89.921875 34.402344 Z M 89.921875 34.402344 "/>
</g>
<path style=" stroke:none;fill-rule:nonzero;fill:rgb(100%,100%,100%);fill-opacity:1;" d="M 45.421875 21.316406 C 45.796875 21.316406 46.101562 21.621094 46.101562 21.992188 C 46.101562 22.363281 45.796875 22.667969 45.421875 22.667969 C 45.046875 22.667969 44.738281 22.363281 44.738281 21.992188 C 44.738281 21.621094 45.046875 21.316406 45.421875 21.316406 Z M 45.421875 24.023438 C 46.550781 24.023438 47.464844 23.113281 47.464844 21.992188 C 47.464844 20.871094 46.550781 19.960938 45.421875 19.960938 C 44.292969 19.960938 43.375 20.871094 43.375 21.992188 C 43.375 23.113281 44.292969 24.023438 45.421875 24.023438 "/>
<path style=" stroke:none;fill-rule:nonzero;fill:rgb(100%,100%,100%);fill-opacity:1;" d="M 27.695312 28.757812 L 29.058594 28.757812 L 29.058594 26.730469 L 27.695312 26.730469 L 27.695312 28.757812 "/>
<path style=" stroke:none;fill-rule:nonzero;fill:rgb(100%,100%,100%);fill-opacity:1;" d="M 30.421875 28.757812 L 31.785156 28.757812 L 31.785156 26.730469 L 30.421875 26.730469 L 30.421875 28.757812 "/>
<path style=" stroke:none;fill-rule:nonzero;fill:rgb(100%,100%,100%);fill-opacity:1;" d="M 33.148438 28.757812 L 34.511719 28.757812 L 34.511719 26.730469 L 33.148438 26.730469 L 33.148438 28.757812 "/>
<path style=" stroke:none;fill-rule:nonzero;fill:rgb(100%,100%,100%);fill-opacity:1;" d="M 35.878906 28.757812 L 37.242188 28.757812 L 37.242188 26.730469 L 35.878906 26.730469 L 35.878906 28.757812 "/>
<path style=" stroke:none;fill-rule:nonzero;fill:rgb(100%,100%,100%);fill-opacity:1;" d="M 27.695312 32.140625 L 29.058594 32.140625 L 29.058594 30.113281 L 27.695312 30.113281 L 27.695312 32.140625 "/>
<path style=" stroke:none;fill-rule:nonzero;fill:rgb(100%,100%,100%);fill-opacity:1;" d="M 30.421875 32.140625 L 31.785156 32.140625 L 31.785156 30.113281 L 30.421875 30.113281 L 30.421875 32.140625 "/>
<path style=" stroke:none;fill-rule:nonzero;fill:rgb(100%,100%,100%);fill-opacity:1;" d="M 33.148438 32.140625 L 34.511719 32.140625 L 34.511719 30.113281 L 33.148438 30.113281 L 33.148438 32.140625 "/>
<path style=" stroke:none;fill-rule:nonzero;fill:rgb(100%,100%,100%);fill-opacity:1;" d="M 35.878906 32.140625 L 37.242188 32.140625 L 37.242188 30.113281 L 35.878906 30.113281 L 35.878906 32.140625 "/>
<path style=" stroke:none;fill-rule:nonzero;fill:rgb(100%,100%,100%);fill-opacity:1;" d="M 27.695312 35.523438 L 29.058594 35.523438 L 29.058594 33.496094 L 27.695312 33.496094 L 27.695312 35.523438 "/>
<path style=" stroke:none;fill-rule:nonzero;fill:rgb(100%,100%,100%);fill-opacity:1;" d="M 30.421875 35.523438 L 31.785156 35.523438 L 31.785156 33.496094 L 30.421875 33.496094 L 30.421875 35.523438 "/>
<path style=" stroke:none;fill-rule:nonzero;fill:rgb(100%,100%,100%);fill-opacity:1;" d="M 33.148438 35.523438 L 34.511719 35.523438 L 34.511719 33.496094 L 33.148438 33.496094 L 33.148438 35.523438 "/>
<path style=" stroke:none;fill-rule:nonzero;fill:rgb(100%,100%,100%);fill-opacity:1;" d="M 35.878906 35.523438 L 37.242188 35.523438 L 37.242188 33.496094 L 35.878906 33.496094 L 35.878906 35.523438 "/>
<path style=" stroke:none;fill-rule:nonzero;fill:rgb(100%,100%,100%);fill-opacity:1;" d="M 61.78125 28.757812 L 63.144531 28.757812 L 63.144531 26.730469 L 61.78125 26.730469 L 61.78125 28.757812 "/>
<path style=" stroke:none;fill-rule:nonzero;fill:rgb(100%,100%,100%);fill-opacity:1;" d="M 59.054688 28.757812 L 60.417969 28.757812 L 60.417969 26.730469 L 59.054688 26.730469 L 59.054688 28.757812 "/>
<path style=" stroke:none;fill-rule:nonzero;fill:rgb(100%,100%,100%);fill-opacity:1;" d="M 56.328125 28.757812 L 57.691406 28.757812 L 57.691406 26.730469 L 56.328125 26.730469 L 56.328125 28.757812 "/>
<path style=" stroke:none;fill-rule:nonzero;fill:rgb(100%,100%,100%);fill-opacity:1;" d="M 53.601562 28.757812 L 54.964844 28.757812 L 54.964844 26.730469 L 53.601562 26.730469 L 53.601562 28.757812 "/>
<path style=" stroke:none;fill-rule:nonzero;fill:rgb(100%,100%,100%);fill-opacity:1;" d="M 61.78125 32.140625 L 63.144531 32.140625 L 63.144531 30.113281 L 61.78125 30.113281 L 61.78125 32.140625 "/>
<path style=" stroke:none;fill-rule:nonzero;fill:rgb(100%,100%,100%);fill-opacity:1;" d="M 59.054688 32.140625 L 60.417969 32.140625 L 60.417969 30.113281 L 59.054688 30.113281 L 59.054688 32.140625 "/>
<path style=" stroke:none;fill-rule:nonzero;fill:rgb(100%,100%,100%);fill-opacity:1;" d="M 56.328125 32.140625 L 57.691406 32.140625 L 57.691406 30.113281 L 56.328125 30.113281 L 56.328125 32.140625 "/>
<path style=" stroke:none;fill-rule:nonzero;fill:rgb(100%,100%,100%);fill-opacity:1;" d="M 53.601562 32.140625 L 54.964844 32.140625 L 54.964844 30.113281 L 53.601562 30.113281 L 53.601562 32.140625 "/>
<path style=" stroke:none;fill-rule:nonzero;fill:rgb(100%,100%,100%);fill-opacity:1;" d="M 61.78125 35.523438 L 63.144531 35.523438 L 63.144531 33.496094 L 61.78125 33.496094 L 61.78125 35.523438 "/>
<path style=" stroke:none;fill-rule:nonzero;fill:rgb(100%,100%,100%);fill-opacity:1;" d="M 59.054688 35.523438 L 60.417969 35.523438 L 60.417969 33.496094 L 59.054688 33.496094 L 59.054688 35.523438 "/>
<path style=" stroke:none;fill-rule:nonzero;fill:rgb(100%,100%,100%);fill-opacity:1;" d="M 56.328125 35.523438 L 57.691406 35.523438 L 57.691406 33.496094 L 56.328125 33.496094 L 56.328125 35.523438 "/>
<path style=" stroke:none;fill-rule:nonzero;fill:rgb(100%,100%,100%);fill-opacity:1;" d="M 53.601562 35.523438 L 54.964844 35.523438 L 54.964844 33.496094 L 53.601562 33.496094 L 53.601562 35.523438 "/>
<g clip-path="url(#clip10)" clip-rule="nonzero">
<path style=" stroke:none;fill-rule:nonzero;fill:rgb(100%,100%,100%);fill-opacity:1;" d="M 64.507812 39.585938 L 52.238281 39.585938 L 52.238281 38.230469 L 64.507812 38.230469 Z M 49.511719 38.230469 L 50.875 38.230469 L 50.875 39.585938 L 49.511719 39.585938 Z M 39.96875 39.585938 L 39.96875 38.230469 L 41.332031 38.230469 L 41.332031 39.585938 Z M 26.332031 38.230469 L 38.605469 38.230469 L 38.605469 39.585938 L 26.332031 39.585938 Z M 27.4375 22.667969 L 38.605469 22.667969 L 38.605469 24.023438 L 26.753906 24.023438 Z M 39.96875 21.039062 L 45.421875 18.03125 L 50.875 21.039062 L 50.875 28.757812 L 48.828125 28.757812 C 48.828125 26.890625 47.300781 25.375 45.421875 25.375 C 43.539062 25.375 42.011719 26.890625 42.011719 28.757812 L 39.96875 28.757812 Z M 48.347656 12.996094 C 48.917969 13.558594 49.671875 13.871094 50.476562 13.871094 L 50.875 13.871094 L 50.875 15.902344 L 49.792969 15.902344 C 49.355469 15.902344 48.941406 15.734375 48.628906 15.421875 C 48.058594 14.859375 47.304688 14.546875 46.503906 14.546875 L 46.101562 14.546875 L 46.101562 12.519531 L 47.183594 12.519531 C 47.625 12.519531 48.035156 12.6875 48.347656 12.996094 Z M 63.40625 22.667969 L 64.089844 24.023438 L 52.238281 24.023438 L 52.238281 22.667969 Z M 52.238281 32.140625 L 52.238281 25.375 L 64.507812 25.375 L 64.507812 36.878906 L 52.238281 36.878906 Z M 49.511719 32.820312 L 50.875 32.820312 L 50.875 36.878906 L 49.511719 36.878906 Z M 42.695312 38.230469 L 48.148438 38.230469 L 48.148438 39.585938 L 42.695312 39.585938 Z M 39.96875 32.820312 L 41.332031 32.820312 L 41.332031 36.878906 L 39.96875 36.878906 Z M 42.695312 32.820312 L 44.738281 32.820312 L 44.738281 36.878906 L 42.695312 36.878906 Z M 48.148438 36.878906 L 46.101562 36.878906 L 46.101562 32.820312 L 48.148438 32.820312 Z M 43.375 28.757812 C 43.375 27.636719 44.292969 26.730469 45.421875 26.730469 C 46.550781 26.730469 47.464844 27.636719 47.464844 28.757812 Z M 42.695312 30.113281 L 50.875 30.113281 L 50.875 31.464844 L 39.96875 31.464844 L 39.96875 30.113281 Z M 26.332031 25.375 L 38.605469 25.375 L 38.605469 36.878906 L 26.332031 36.878906 Z M 65.824219 24.464844 C 65.820312 24.449219 65.816406 24.433594 65.808594 24.421875 C 65.804688 24.414062 65.804688 24.40625 65.800781 24.394531 L 64.4375 21.6875 C 64.320312 21.460938 64.085938 21.316406 63.828125 21.316406 L 52.238281 21.316406 L 52.238281 20.636719 C 52.238281 20.394531 52.101562 20.164062 51.886719 20.046875 L 46.101562 16.855469 L 46.101562 15.902344 L 46.503906 15.902344 C 46.941406 15.902344 47.355469 16.070312 47.664062 16.378906 C 48.234375 16.941406 48.988281 17.253906 49.792969 17.253906 L 51.554688 17.253906 C 51.933594 17.253906 52.238281 16.949219 52.238281 16.578125 L 52.238281 13.195312 C 52.238281 12.824219 51.933594 12.519531 51.554688 12.519531 L 50.476562 12.519531 C 50.035156 12.519531 49.625 12.347656 49.3125 12.039062 C 48.742188 11.476562 47.988281 11.164062 47.183594 11.164062 L 45.421875 11.164062 C 45.046875 11.164062 44.738281 11.46875 44.738281 11.839844 L 44.738281 16.855469 L 38.957031 20.046875 C 38.738281 20.164062 38.605469 20.394531 38.605469 20.636719 L 38.605469 21.316406 L 27.015625 21.316406 C 26.757812 21.316406 26.519531 21.460938 26.40625 21.6875 L 25.042969 24.394531 C 25.039062 24.40625 25.035156 24.414062 25.035156 24.421875 C 25.027344 24.433594 25.023438 24.449219 25.019531 24.464844 C 24.992188 24.535156 24.976562 24.601562 24.976562 24.675781 C 24.976562 24.683594 24.96875 24.691406 24.96875 24.699219 L 24.96875 40.261719 C 24.96875 40.632812 25.277344 40.9375 25.652344 40.9375 L 65.191406 40.9375 C 65.566406 40.9375 65.871094 40.632812 65.871094 40.261719 L 65.871094 24.699219 C 65.871094 24.691406 65.867188 24.683594 65.867188 24.675781 C 65.863281 24.601562 65.851562 24.535156 65.824219 24.464844 "/>
</g>
<g clip-path="url(#clip11)" clip-rule="nonzero">
<path style=" stroke:none;fill-rule:nonzero;fill:rgb(100%,100%,100%);fill-opacity:1;" d="M 151.09375 28.378906 L 143.183594 28.378906 L 143.183594 19.539062 L 145.324219 20.445312 C 145.394531 20.46875 145.441406 20.492188 145.507812 20.492188 C 145.695312 20.492188 145.859375 20.375 145.929688 20.214844 C 146.019531 19.980469 145.929688 19.703125 145.671875 19.609375 L 137.136719 15.980469 L 137.136719 13.957031 L 139.460938 13.957031 C 139.71875 13.957031 139.925781 13.746094 139.925781 13.492188 L 139.925781 11.628906 C 139.925781 11.375 139.71875 11.164062 139.460938 11.164062 L 136.671875 11.164062 C 136.414062 11.164062 136.207031 11.375 136.207031 11.628906 L 136.207031 15.980469 L 127.644531 19.585938 C 127.414062 19.679688 127.296875 19.957031 127.390625 20.191406 C 127.480469 20.421875 127.761719 20.539062 127.992188 20.445312 L 130.15625 19.539062 L 130.15625 28.378906 L 122.25 28.378906 C 121.992188 28.378906 121.785156 28.585938 121.785156 28.84375 L 121.785156 40.472656 C 121.785156 40.730469 121.992188 40.9375 122.25 40.9375 L 151.09375 40.9375 C 151.347656 40.9375 151.558594 40.730469 151.558594 40.472656 L 151.558594 28.84375 C 151.558594 28.585938 151.347656 28.378906 151.09375 28.378906 Z M 137.136719 12.09375 L 138.996094 12.09375 L 138.996094 13.027344 L 137.136719 13.027344 Z M 139.460938 40.007812 L 133.878906 40.007812 L 133.878906 34.425781 C 133.878906 32.890625 135.136719 31.632812 136.671875 31.632812 C 138.207031 31.632812 139.460938 32.890625 139.460938 34.425781 Z M 150.625 40.007812 L 140.390625 40.007812 L 140.390625 34.425781 C 140.390625 32.378906 138.71875 30.703125 136.671875 30.703125 C 134.625 30.703125 132.949219 32.378906 132.949219 34.425781 L 132.949219 40.007812 L 122.714844 40.007812 L 122.714844 29.308594 L 130.621094 29.308594 C 130.878906 29.308594 131.085938 29.097656 131.085938 28.84375 L 131.085938 19.144531 L 136.671875 16.792969 L 142.253906 19.144531 L 142.253906 28.84375 C 142.253906 29.097656 142.460938 29.308594 142.71875 29.308594 L 150.625 29.308594 Z M 150.625 40.007812 "/>
</g>
<path style=" stroke:none;fill-rule:nonzero;fill:rgb(100%,100%,100%);fill-opacity:1;" d="M 126.4375 30.703125 L 124.109375 30.703125 C 123.855469 30.703125 123.644531 30.914062 123.644531 31.167969 L 123.644531 33.496094 C 123.644531 33.75 123.855469 33.960938 124.109375 33.960938 L 126.4375 33.960938 C 126.691406 33.960938 126.902344 33.75 126.902344 33.496094 L 126.902344 31.167969 C 126.902344 30.914062 126.691406 30.703125 126.4375 30.703125 Z M 125.96875 33.03125 L 124.574219 33.03125 L 124.574219 31.632812 L 125.96875 31.632812 Z M 125.96875 33.03125 "/>
<path style=" stroke:none;fill-rule:nonzero;fill:rgb(100%,100%,100%);fill-opacity:1;" d="M 126.4375 35.355469 L 124.109375 35.355469 C 123.855469 35.355469 123.644531 35.566406 123.644531 35.820312 L 123.644531 38.148438 C 123.644531 38.402344 123.855469 38.613281 124.109375 38.613281 L 126.4375 38.613281 C 126.691406 38.613281 126.902344 38.402344 126.902344 38.148438 L 126.902344 35.820312 C 126.902344 35.566406 126.691406 35.355469 126.4375 35.355469 Z M 125.96875 37.683594 L 124.574219 37.683594 L 124.574219 36.285156 L 125.96875 36.285156 Z M 125.96875 37.683594 "/>
<path style=" stroke:none;fill-rule:nonzero;fill:rgb(100%,100%,100%);fill-opacity:1;" d="M 130.621094 30.703125 L 128.296875 30.703125 C 128.039062 30.703125 127.832031 30.914062 127.832031 31.167969 L 127.832031 33.496094 C 127.832031 33.75 128.039062 33.960938 128.296875 33.960938 L 130.621094 33.960938 C 130.878906 33.960938 131.085938 33.75 131.085938 33.496094 L 131.085938 31.167969 C 131.085938 30.914062 130.878906 30.703125 130.621094 30.703125 Z M 130.15625 33.03125 L 128.761719 33.03125 L 128.761719 31.632812 L 130.15625 31.632812 Z M 130.15625 33.03125 "/>
<path style=" stroke:none;fill-rule:nonzero;fill:rgb(100%,100%,100%);fill-opacity:1;" d="M 130.621094 35.355469 L 128.296875 35.355469 C 128.039062 35.355469 127.832031 35.566406 127.832031 35.820312 L 127.832031 38.148438 C 127.832031 38.402344 128.039062 38.613281 128.296875 38.613281 L 130.621094 38.613281 C 130.878906 38.613281 131.085938 38.402344 131.085938 38.148438 L 131.085938 35.820312 C 131.085938 35.566406 130.878906 35.355469 130.621094 35.355469 Z M 130.15625 37.683594 L 128.761719 37.683594 L 128.761719 36.285156 L 130.15625 36.285156 Z M 130.15625 37.683594 "/>
<path style=" stroke:none;fill-rule:nonzero;fill:rgb(100%,100%,100%);fill-opacity:1;" d="M 146.90625 33.960938 L 149.230469 33.960938 C 149.488281 33.960938 149.695312 33.75 149.695312 33.496094 L 149.695312 31.167969 C 149.695312 30.914062 149.488281 30.703125 149.230469 30.703125 L 146.90625 30.703125 C 146.648438 30.703125 146.441406 30.914062 146.441406 31.167969 L 146.441406 33.496094 C 146.441406 33.75 146.648438 33.960938 146.90625 33.960938 Z M 147.371094 31.632812 L 148.765625 31.632812 L 148.765625 33.03125 L 147.371094 33.03125 Z M 147.371094 31.632812 "/>
<path style=" stroke:none;fill-rule:nonzero;fill:rgb(100%,100%,100%);fill-opacity:1;" d="M 146.90625 38.613281 L 149.230469 38.613281 C 149.488281 38.613281 149.695312 38.402344 149.695312 38.148438 L 149.695312 35.820312 C 149.695312 35.566406 149.488281 35.355469 149.230469 35.355469 L 146.90625 35.355469 C 146.648438 35.355469 146.441406 35.566406 146.441406 35.820312 L 146.441406 38.148438 C 146.441406 38.402344 146.648438 38.613281 146.90625 38.613281 Z M 147.371094 36.285156 L 148.765625 36.285156 L 148.765625 37.683594 L 147.371094 37.683594 Z M 147.371094 36.285156 "/>
<path style=" stroke:none;fill-rule:nonzero;fill:rgb(100%,100%,100%);fill-opacity:1;" d="M 142.253906 31.167969 L 142.253906 33.496094 C 142.253906 33.75 142.460938 33.960938 142.71875 33.960938 L 145.042969 33.960938 C 145.300781 33.960938 145.507812 33.75 145.507812 33.496094 L 145.507812 31.167969 C 145.507812 30.914062 145.300781 30.703125 145.042969 30.703125 L 142.71875 30.703125 C 142.460938 30.703125 142.253906 30.914062 142.253906 31.167969 Z M 143.183594 31.632812 L 144.578125 31.632812 L 144.578125 33.03125 L 143.183594 33.03125 Z M 143.183594 31.632812 "/>
<path style=" stroke:none;fill-rule:nonzero;fill:rgb(100%,100%,100%);fill-opacity:1;" d="M 145.042969 35.355469 L 142.71875 35.355469 C 142.460938 35.355469 142.253906 35.566406 142.253906 35.820312 L 142.253906 38.148438 C 142.253906 38.402344 142.460938 38.613281 142.71875 38.613281 L 145.042969 38.613281 C 145.300781 38.613281 145.507812 38.402344 145.507812 38.148438 L 145.507812 35.820312 C 145.507812 35.566406 145.300781 35.355469 145.042969 35.355469 Z M 144.578125 37.683594 L 143.183594 37.683594 L 143.183594 36.285156 L 144.578125 36.285156 Z M 144.578125 37.683594 "/>
<path style=" stroke:none;fill-rule:nonzero;fill:rgb(100%,100%,100%);fill-opacity:1;" d="M 135.507812 21.398438 L 133.179688 21.398438 C 132.925781 21.398438 132.714844 21.609375 132.714844 21.863281 L 132.714844 24.191406 C 132.714844 24.445312 132.925781 24.65625 133.179688 24.65625 L 135.507812 24.65625 C 135.761719 24.65625 135.972656 24.445312 135.972656 24.191406 L 135.972656 21.863281 C 135.972656 21.609375 135.761719 21.398438 135.507812 21.398438 Z M 135.042969 23.726562 L 133.644531 23.726562 L 133.644531 22.332031 L 135.042969 22.332031 Z M 135.042969 23.726562 "/>
<path style=" stroke:none;fill-rule:nonzero;fill:rgb(100%,100%,100%);fill-opacity:1;" d="M 135.507812 26.050781 L 133.179688 26.050781 C 132.925781 26.050781 132.714844 26.261719 132.714844 26.515625 L 132.714844 28.84375 C 132.714844 29.097656 132.925781 29.308594 133.179688 29.308594 L 135.507812 29.308594 C 135.761719 29.308594 135.972656 29.097656 135.972656 28.84375 L 135.972656 26.515625 C 135.972656 26.261719 135.761719 26.050781 135.507812 26.050781 Z M 135.042969 28.378906 L 133.644531 28.378906 L 133.644531 26.980469 L 135.042969 26.980469 Z M 135.042969 28.378906 "/>
<path style=" stroke:none;fill-rule:nonzero;fill:rgb(100%,100%,100%);fill-opacity:1;" d="M 140.160156 21.398438 L 137.832031 21.398438 C 137.578125 21.398438 137.367188 21.609375 137.367188 21.863281 L 137.367188 24.191406 C 137.367188 24.445312 137.578125 24.65625 137.832031 24.65625 L 140.160156 24.65625 C 140.414062 24.65625 140.625 24.445312 140.625 24.191406 L 140.625 21.863281 C 140.625 21.609375 140.414062 21.398438 140.160156 21.398438 Z M 139.695312 23.726562 L 138.296875 23.726562 L 138.296875 22.332031 L 139.695312 22.332031 Z M 139.695312 23.726562 "/>
<path style=" stroke:none;fill-rule:nonzero;fill:rgb(100%,100%,100%);fill-opacity:1;" d="M 140.160156 26.050781 L 137.832031 26.050781 C 137.578125 26.050781 137.367188 26.261719 137.367188 26.515625 L 137.367188 28.84375 C 137.367188 29.097656 137.578125 29.308594 137.832031 29.308594 L 140.160156 29.308594 C 140.414062 29.308594 140.625 29.097656 140.625 28.84375 L 140.625 26.515625 C 140.625 26.261719 140.414062 26.050781 140.160156 26.050781 Z M 139.695312 28.378906 L 138.296875 28.378906 L 138.296875 26.980469 L 139.695312 26.980469 Z M 139.695312 28.378906 "/>
<path style=" stroke:none;fill-rule:nonzero;fill:rgb(100%,100%,100%);fill-opacity:1;" d="M 138.066406 19.304688 C 138.066406 18.539062 137.4375 17.910156 136.671875 17.910156 C 135.902344 17.910156 135.273438 18.539062 135.273438 19.304688 C 135.273438 20.074219 135.902344 20.703125 136.671875 20.703125 C 137.4375 20.703125 138.066406 20.074219 138.066406 19.304688 Z M 136.671875 19.773438 C 136.414062 19.773438 136.207031 19.5625 136.207031 19.304688 C 136.207031 19.050781 136.414062 18.839844 136.671875 18.839844 C 136.925781 18.839844 137.136719 19.050781 137.136719 19.304688 C 137.136719 19.5625 136.925781 19.773438 136.671875 19.773438 Z M 136.671875 19.773438 "/>
</g>
</svg>
