<?xml version="1.0" encoding="UTF-8"?>
<svg xmlns="http://www.w3.org/2000/svg" xmlns:xlink="http://www.w3.org/1999/xlink" width="262.5pt" height="52.499999pt" viewBox="0 0 262.5 52.499999" version="1.2">
<defs>
<clipPath id="clip1">
  <path d="M 0.992188 0 L 261.015625 0 L 261.015625 52.003906 L 0.992188 52.003906 Z M 0.992188 0 "/>
</clipPath>
<clipPath id="clip2">
  <path d="M 22 11.164062 L 37 11.164062 L 37 25 L 22 25 Z M 22 11.164062 "/>
</clipPath>
<clipPath id="clip3">
  <path d="M 16.429688 22 L 33 22 L 33 40.9375 L 16.429688 40.9375 Z M 16.429688 22 "/>
</clipPath>
<clipPath id="clip4">
  <path d="M 33 28 L 48.4375 28 L 48.4375 40.9375 L 33 40.9375 Z M 33 28 "/>
</clipPath>
<clipPath id="clip5">
  <path d="M 57.3125 11.164062 L 87.085938 11.164062 L 87.085938 40.9375 L 57.3125 40.9375 Z M 57.3125 11.164062 "/>
</clipPath>
<clipPath id="clip6">
  <path d="M 100.230469 11.164062 L 125 11.164062 L 125 40.9375 L 100.230469 40.9375 Z M 100.230469 11.164062 "/>
</clipPath>
<clipPath id="clip7">
  <path d="M 119 25 L 129.261719 25 L 129.261719 36 L 119 36 Z M 119 25 "/>
</clipPath>
<clipPath id="clip8">
  <path d="M 146 20 L 162 20 L 162 40.9375 L 146 40.9375 Z M 146 20 "/>
</clipPath>
<clipPath id="clip9">
  <path d="M 139.035156 11.164062 L 148 11.164062 L 148 21 L 139.035156 21 Z M 139.035156 11.164062 "/>
</clipPath>
<clipPath id="clip10">
  <path d="M 156 11.164062 L 168.808594 11.164062 L 168.808594 20 L 156 20 Z M 156 11.164062 "/>
</clipPath>
<clipPath id="clip11">
  <path d="M 139.035156 31 L 147 31 L 147 40.9375 L 139.035156 40.9375 Z M 139.035156 31 "/>
</clipPath>
<clipPath id="clip12">
  <path d="M 157 30 L 168.808594 30 L 168.808594 40.9375 L 157 40.9375 Z M 157 30 "/>
</clipPath>
</defs>
<g id="surface1">
<g clip-path="url(#clip1)" clip-rule="nonzero">
<path style=" stroke:none;fill-rule:nonzero;fill:rgb(100%,100%,100%);fill-opacity:1;" d="M 0.992188 0 L 261.507812 0 L 261.507812 58.804688 L 0.992188 58.804688 Z M 0.992188 0 "/>
<path style=" stroke:none;fill-rule:nonzero;fill:rgb(100%,100%,100%);fill-opacity:1;" d="M 0.992188 0 L 261.507812 0 L 261.507812 52.105469 L 0.992188 52.105469 Z M 0.992188 0 "/>
<path style=" stroke:none;fill-rule:nonzero;fill:rgb(19.60907%,80.389404%,19.60907%);fill-opacity:1;" d="M 0.992188 0 L 261.507812 0 L 261.507812 52.105469 L 0.992188 52.105469 Z M 0.992188 0 "/>
</g>
<path style=" stroke:none;fill-rule:nonzero;fill:rgb(0%,0%,0%);fill-opacity:1;" d="M 28.101562 24.9375 L 27.019531 32.304688 C 26.96875 32.648438 27.066406 33.023438 27.320312 33.296875 L 28.65625 34.859375 C 28.65625 34.859375 28.679688 34.882812 28.679688 34.882812 C 28.90625 35.105469 29.210938 35.253906 29.539062 35.253906 C 29.867188 35.253906 30.167969 35.128906 30.371094 34.90625 C 30.371094 34.90625 30.394531 34.882812 30.394531 34.882812 L 31.707031 33.394531 C 31.957031 33.121094 32.085938 32.773438 32.035156 32.402344 L 31 24.9375 C 30.671875 25.011719 30.34375 25.035156 29.992188 25.058594 L 31.050781 32.5 C 31.050781 32.550781 31.050781 32.625 31 32.675781 C 31 32.675781 30.976562 32.699219 30.976562 32.699219 L 29.664062 34.1875 C 29.613281 34.238281 29.589844 34.238281 29.539062 34.238281 C 29.511719 34.238281 29.460938 34.238281 29.414062 34.1875 L 28.078125 32.625 C 28.078125 32.625 28.050781 32.601562 28.050781 32.601562 C 28.027344 32.550781 28.027344 32.5 28.027344 32.425781 L 29.109375 25.035156 C 28.757812 25.035156 28.429688 24.984375 28.101562 24.9375 Z M 28.101562 24.9375 "/>
<g clip-path="url(#clip2)" clip-rule="nonzero">
<path style=" stroke:none;fill-rule:nonzero;fill:rgb(0%,0%,0%);fill-opacity:1;" d="M 29.539062 24.066406 C 33.167969 24.066406 36.09375 21.191406 36.09375 17.617188 C 36.09375 14.046875 33.167969 11.167969 29.539062 11.167969 C 25.910156 11.167969 22.984375 14.046875 22.984375 17.617188 C 22.984375 21.191406 25.910156 24.066406 29.539062 24.066406 Z M 29.539062 12.160156 C 32.589844 12.160156 35.082031 14.617188 35.082031 17.617188 C 35.082031 20.621094 32.589844 23.074219 29.539062 23.074219 C 26.488281 23.074219 23.992188 20.621094 23.992188 17.617188 C 23.992188 14.617188 26.488281 12.160156 29.539062 12.160156 Z M 29.539062 12.160156 "/>
</g>
<path style=" stroke:none;fill-rule:nonzero;fill:rgb(0%,0%,0%);fill-opacity:1;" d="M 33.722656 23.820312 L 33.796875 23.820312 C 36.445312 23.820312 39.140625 24.910156 40.578125 27.042969 L 41.738281 27.042969 C 40.476562 24.738281 38.007812 23.175781 34.882812 22.875 C 34.527344 23.222656 34.125 23.546875 33.722656 23.820312 Z M 33.722656 23.820312 "/>
<g clip-path="url(#clip3)" clip-rule="nonzero">
<path style=" stroke:none;fill-rule:nonzero;fill:rgb(0%,0%,0%);fill-opacity:1;" d="M 22.734375 39.941406 L 22.734375 36.46875 C 22.734375 36.195312 22.503906 35.972656 22.226562 35.972656 C 21.949219 35.972656 21.722656 36.195312 21.722656 36.46875 L 21.722656 39.941406 L 17.867188 39.941406 C 17.640625 39.941406 17.4375 39.746094 17.4375 39.519531 L 17.4375 30.691406 C 17.4375 26.175781 21.398438 23.820312 25.304688 23.820312 L 25.378906 23.820312 C 24.949219 23.546875 24.574219 23.222656 24.21875 22.875 C 19.632812 23.324219 16.429688 26.472656 16.429688 30.691406 L 16.429688 39.519531 C 16.429688 40.289062 17.085938 40.933594 17.867188 40.933594 L 32.5625 40.933594 C 32.335938 40.636719 32.183594 40.316406 32.109375 39.941406 Z M 22.734375 39.941406 "/>
</g>
<g clip-path="url(#clip4)" clip-rule="nonzero">
<path style=" stroke:none;fill-rule:nonzero;fill:rgb(0%,0%,0%);fill-opacity:1;" d="M 47.183594 30.019531 L 43.90625 30.019531 L 43.90625 28.980469 C 43.90625 28.457031 43.425781 28.035156 42.847656 28.035156 L 38.914062 28.035156 C 38.335938 28.035156 37.855469 28.457031 37.855469 28.980469 L 37.855469 30.019531 L 34.578125 30.019531 C 33.746094 30.019531 33.066406 30.691406 33.066406 31.507812 L 33.066406 39.445312 C 33.066406 40.265625 33.746094 40.933594 34.578125 40.933594 L 47.183594 40.933594 C 48.015625 40.933594 48.695312 40.265625 48.695312 39.445312 L 48.695312 31.507812 C 48.695312 30.691406 48.015625 30.019531 47.183594 30.019531 Z M 38.863281 29.027344 C 38.890625 29.027344 38.890625 29.027344 38.914062 29.027344 L 42.847656 29.027344 C 42.871094 29.027344 42.898438 29.027344 42.898438 29.027344 L 42.898438 30.019531 L 38.863281 30.019531 Z M 34.578125 31.011719 L 47.183594 31.011719 C 47.460938 31.011719 47.6875 31.234375 47.6875 31.507812 L 47.6875 35.230469 L 34.074219 35.230469 L 34.074219 31.507812 C 34.074219 31.234375 34.300781 31.011719 34.578125 31.011719 Z M 47.183594 39.941406 L 34.578125 39.941406 C 34.300781 39.941406 34.074219 39.71875 34.074219 39.445312 L 34.074219 36.222656 L 35.589844 36.222656 L 35.589844 36.71875 C 35.589844 36.992188 35.816406 37.214844 36.09375 37.214844 C 36.371094 37.214844 36.597656 36.992188 36.597656 36.71875 L 36.597656 36.222656 L 45.167969 36.222656 L 45.167969 36.964844 C 45.167969 37.238281 45.394531 37.460938 45.671875 37.460938 C 45.949219 37.460938 46.175781 37.238281 46.175781 36.964844 L 46.175781 36.222656 L 47.6875 36.222656 L 47.6875 39.445312 C 47.6875 39.71875 47.460938 39.941406 47.183594 39.941406 Z M 47.183594 39.941406 "/>
</g>
<path style=" stroke:none;fill-rule:nonzero;fill:rgb(0%,0%,0%);fill-opacity:1;" d="M 66.152344 21.8125 C 64.28125 24.734375 64.707031 28.632812 67.160156 31.089844 C 68.566406 32.496094 70.4375 33.269531 72.425781 33.269531 C 74.414062 33.269531 76.28125 32.496094 77.6875 31.089844 C 79.09375 29.683594 79.867188 27.8125 79.867188 25.824219 C 79.867188 23.835938 79.09375 21.96875 77.6875 20.5625 C 74.785156 17.660156 70.0625 17.660156 67.160156 20.5625 C 67.058594 20.664062 66.960938 20.769531 66.867188 20.875 L 67.605469 21.535156 C 67.691406 21.445312 67.773438 21.351562 67.863281 21.265625 C 70.378906 18.75 74.472656 18.75 76.988281 21.265625 C 78.203125 22.484375 78.875 24.101562 78.875 25.824219 C 78.875 27.550781 78.203125 29.167969 76.988281 30.386719 C 75.769531 31.605469 74.148438 32.277344 72.425781 32.277344 C 70.703125 32.277344 69.082031 31.605469 67.863281 30.386719 C 65.734375 28.257812 65.367188 24.878906 66.988281 22.351562 Z M 66.152344 21.8125 "/>
<path style=" stroke:none;fill-rule:nonzero;fill:rgb(0%,0%,0%);fill-opacity:1;" d="M 68.726562 29.027344 L 68.726562 29.527344 C 68.726562 29.800781 68.949219 30.023438 69.222656 30.023438 L 76.167969 30.023438 C 76.441406 30.023438 76.664062 29.800781 76.664062 29.527344 L 76.664062 29.027344 C 76.664062 27.425781 75.707031 26.042969 74.335938 25.417969 C 74.847656 24.964844 75.175781 24.308594 75.175781 23.570312 C 75.175781 22.203125 74.0625 21.089844 72.695312 21.089844 C 71.328125 21.089844 70.214844 22.203125 70.214844 23.570312 C 70.214844 24.308594 70.542969 24.964844 71.054688 25.417969 C 69.683594 26.042969 68.726562 27.425781 68.726562 29.027344 Z M 71.207031 23.570312 C 71.207031 22.75 71.875 22.082031 72.695312 22.082031 C 73.515625 22.082031 74.183594 22.75 74.183594 23.570312 C 74.183594 24.390625 73.515625 25.058594 72.695312 25.058594 C 71.875 25.058594 71.207031 24.390625 71.207031 23.570312 Z M 72.695312 26.050781 C 74.335938 26.050781 75.671875 27.386719 75.671875 29.027344 L 69.71875 29.027344 C 69.71875 27.386719 71.054688 26.050781 72.695312 26.050781 Z M 72.695312 26.050781 "/>
<g clip-path="url(#clip5)" clip-rule="nonzero">
<path style=" stroke:none;fill-rule:nonzero;fill:rgb(0%,0%,0%);fill-opacity:1;" d="M 86.589844 11.164062 L 69.71875 11.164062 C 69.445312 11.164062 69.222656 11.386719 69.222656 11.660156 L 69.222656 16.957031 C 68.984375 17.042969 68.75 17.136719 68.519531 17.242188 L 68.929688 18.144531 C 72.113281 16.695312 75.914062 17.386719 78.390625 19.859375 C 79.984375 21.453125 80.859375 23.570312 80.859375 25.824219 C 80.859375 28.078125 79.984375 30.199219 78.390625 31.789062 C 75.101562 35.078125 69.75 35.078125 66.460938 31.789062 C 64.867188 30.199219 63.988281 28.078125 63.988281 25.824219 C 63.988281 23.570312 64.867188 21.453125 66.460938 19.859375 C 66.925781 19.394531 67.441406 18.988281 67.992188 18.644531 L 67.472656 17.800781 C 66.855469 18.183594 66.277344 18.640625 65.757812 19.160156 C 63.976562 20.941406 62.996094 23.308594 62.996094 25.824219 C 62.996094 27.492188 63.4375 29.089844 64.242188 30.5 L 62.601562 32.140625 C 62.039062 31.578125 61.058594 31.578125 60.496094 32.140625 C 60.214844 32.421875 60.058594 32.796875 60.058594 33.195312 C 60.058594 33.589844 60.214844 33.964844 60.496094 34.246094 L 58.039062 36.703125 C 57.570312 37.171875 57.3125 37.792969 57.3125 38.457031 C 57.3125 39.121094 57.570312 39.742188 58.039062 40.210938 C 58.523438 40.695312 59.15625 40.9375 59.792969 40.9375 C 60.429688 40.9375 61.0625 40.695312 61.546875 40.210938 L 64.003906 37.757812 C 64.292969 38.046875 64.675781 38.191406 65.058594 38.191406 C 65.4375 38.191406 65.820312 38.046875 66.109375 37.757812 C 66.691406 37.175781 66.691406 36.230469 66.109375 35.648438 L 67.753906 34.003906 C 68.226562 34.273438 68.71875 34.5 69.222656 34.683594 L 69.222656 40.441406 C 69.222656 40.71875 69.445312 40.9375 69.71875 40.9375 L 86.589844 40.9375 C 86.863281 40.9375 87.085938 40.71875 87.085938 40.441406 L 87.085938 11.660156 C 87.085938 11.386719 86.863281 11.164062 86.589844 11.164062 Z M 60.847656 39.511719 C 60.265625 40.089844 59.320312 40.089844 58.742188 39.511719 C 58.460938 39.230469 58.304688 38.855469 58.304688 38.457031 C 58.304688 38.058594 58.460938 37.6875 58.742188 37.40625 L 61.195312 34.949219 L 63.300781 37.054688 Z M 65.40625 37.054688 C 65.214844 37.25 64.898438 37.25 64.707031 37.054688 L 61.195312 33.546875 C 61.101562 33.453125 61.050781 33.328125 61.050781 33.195312 C 61.050781 33.0625 61.101562 32.9375 61.195312 32.84375 C 61.292969 32.746094 61.421875 32.699219 61.546875 32.699219 C 61.675781 32.699219 61.800781 32.746094 61.898438 32.84375 L 65.40625 36.351562 C 65.601562 36.546875 65.601562 36.859375 65.40625 37.054688 Z M 65.40625 34.949219 L 63.300781 32.84375 L 64.796875 31.351562 C 65.085938 31.75 65.402344 32.136719 65.757812 32.492188 C 66.117188 32.851562 66.503906 33.164062 66.902344 33.453125 Z M 86.09375 39.945312 L 70.214844 39.945312 L 70.214844 34.976562 C 70.941406 35.152344 71.683594 35.25 72.425781 35.25 C 74.839844 35.25 77.253906 34.332031 79.09375 32.492188 C 80.875 30.710938 81.855469 28.34375 81.855469 25.824219 C 81.855469 23.304688 80.871094 20.9375 79.09375 19.160156 C 76.753906 16.820312 73.359375 15.914062 70.214844 16.667969 L 70.214844 12.15625 L 86.09375 12.15625 Z M 86.09375 39.945312 "/>
</g>
<path style=" stroke:none;fill-rule:nonzero;fill:rgb(0%,0%,0%);fill-opacity:1;" d="M 73.191406 13.644531 L 84.605469 13.644531 L 84.605469 14.640625 L 73.191406 14.640625 Z M 73.191406 13.644531 "/>
<path style=" stroke:none;fill-rule:nonzero;fill:rgb(0%,0%,0%);fill-opacity:1;" d="M 80.136719 16.128906 L 84.605469 16.128906 L 84.605469 17.121094 L 80.136719 17.121094 Z M 80.136719 16.128906 "/>
<path style=" stroke:none;fill-rule:nonzero;fill:rgb(0%,0%,0%);fill-opacity:1;" d="M 107.207031 16.746094 C 107.699219 16.351562 108.007812 15.769531 108.007812 15.121094 C 108.007812 13.957031 107.066406 13.027344 105.890625 13.027344 C 104.714844 13.027344 103.773438 13.957031 103.773438 15.121094 C 103.773438 15.769531 104.082031 16.375 104.574219 16.746094 C 103.210938 16.792969 102.128906 18.027344 102.128906 19.539062 L 102.128906 21.398438 C 102.128906 21.65625 102.339844 21.863281 102.601562 21.863281 C 102.859375 21.863281 103.070312 21.65625 103.070312 21.398438 L 103.070312 19.539062 C 103.070312 18.515625 103.773438 17.679688 104.667969 17.679688 L 107.136719 17.679688 C 108.007812 17.679688 108.734375 18.515625 108.734375 19.539062 L 108.734375 21.398438 C 108.734375 21.65625 108.945312 21.863281 109.203125 21.863281 C 109.464844 21.863281 109.675781 21.65625 109.675781 21.398438 L 109.675781 19.539062 C 109.652344 18.027344 108.570312 16.792969 107.207031 16.746094 Z M 105.890625 16.28125 C 105.234375 16.28125 104.714844 15.769531 104.714844 15.121094 C 104.714844 14.46875 105.234375 13.957031 105.890625 13.957031 C 106.550781 13.957031 107.066406 14.46875 107.066406 15.121094 C 107.066406 15.769531 106.550781 16.28125 105.890625 16.28125 Z M 105.890625 16.28125 "/>
<path style=" stroke:none;fill-rule:nonzero;fill:rgb(0%,0%,0%);fill-opacity:1;" d="M 122.34375 17.210938 L 111.0625 17.210938 C 110.804688 17.210938 110.589844 17.421875 110.589844 17.679688 C 110.589844 17.933594 110.804688 18.144531 111.0625 18.144531 L 122.34375 18.144531 C 122.601562 18.144531 122.8125 17.933594 122.8125 17.679688 C 122.8125 17.421875 122.601562 17.210938 122.34375 17.210938 Z M 122.34375 17.210938 "/>
<path style=" stroke:none;fill-rule:nonzero;fill:rgb(0%,0%,0%);fill-opacity:1;" d="M 122.34375 19.074219 L 116.703125 19.074219 C 116.445312 19.074219 116.234375 19.28125 116.234375 19.539062 C 116.234375 19.792969 116.445312 20.003906 116.703125 20.003906 L 122.34375 20.003906 C 122.601562 20.003906 122.8125 19.792969 122.8125 19.539062 C 122.8125 19.28125 122.601562 19.074219 122.34375 19.074219 Z M 122.34375 19.074219 "/>
<path style=" stroke:none;fill-rule:nonzero;fill:rgb(0%,0%,0%);fill-opacity:1;" d="M 122.34375 20.933594 L 116.703125 20.933594 C 116.445312 20.933594 116.234375 21.144531 116.234375 21.398438 C 116.234375 21.65625 116.445312 21.863281 116.703125 21.863281 L 122.34375 21.863281 C 122.601562 21.863281 122.8125 21.65625 122.8125 21.398438 C 122.8125 21.144531 122.601562 20.933594 122.34375 20.933594 Z M 122.34375 20.933594 "/>
<path style=" stroke:none;fill-rule:nonzero;fill:rgb(0%,0%,0%);fill-opacity:1;" d="M 122.34375 38.148438 L 116.703125 38.148438 C 116.445312 38.148438 116.234375 38.355469 116.234375 38.613281 C 116.234375 38.867188 116.445312 39.078125 116.703125 39.078125 L 122.34375 39.078125 C 122.601562 39.078125 122.8125 38.867188 122.8125 38.613281 C 122.8125 38.355469 122.601562 38.148438 122.34375 38.148438 Z M 122.34375 38.148438 "/>
<path style=" stroke:none;fill-rule:nonzero;fill:rgb(0%,0%,0%);fill-opacity:1;" d="M 102.601562 25.585938 L 108.242188 25.585938 C 108.5 25.585938 108.710938 25.378906 108.710938 25.121094 C 108.710938 24.867188 108.5 24.65625 108.242188 24.65625 L 102.601562 24.65625 C 102.339844 24.65625 102.128906 24.867188 102.128906 25.121094 C 102.128906 25.378906 102.339844 25.585938 102.601562 25.585938 Z M 102.601562 25.585938 "/>
<path style=" stroke:none;fill-rule:nonzero;fill:rgb(0%,0%,0%);fill-opacity:1;" d="M 102.601562 31.167969 L 108.242188 31.167969 C 108.5 31.167969 108.710938 30.960938 108.710938 30.703125 C 108.710938 30.449219 108.5 30.238281 108.242188 30.238281 L 102.601562 30.238281 C 102.339844 30.238281 102.128906 30.449219 102.128906 30.703125 C 102.128906 30.960938 102.339844 31.167969 102.601562 31.167969 Z M 102.601562 31.167969 "/>
<path style=" stroke:none;fill-rule:nonzero;fill:rgb(0%,0%,0%);fill-opacity:1;" d="M 102.601562 34.890625 L 116.703125 34.890625 C 116.960938 34.890625 117.171875 34.679688 117.171875 34.425781 C 117.171875 34.167969 116.960938 33.960938 116.703125 33.960938 L 102.601562 33.960938 C 102.339844 33.960938 102.128906 34.167969 102.128906 34.425781 C 102.128906 34.679688 102.339844 34.890625 102.601562 34.890625 Z M 102.601562 34.890625 "/>
<path style=" stroke:none;fill-rule:nonzero;fill:rgb(0%,0%,0%);fill-opacity:1;" d="M 122.789062 36.589844 C 122.484375 36.519531 122.179688 36.425781 121.898438 36.285156 L 111.0625 36.285156 C 110.804688 36.285156 110.589844 36.496094 110.589844 36.75 C 110.589844 37.007812 110.804688 37.21875 111.0625 37.21875 L 122.34375 37.21875 C 122.601562 37.21875 122.8125 37.007812 122.8125 36.75 C 122.8125 36.683594 122.789062 36.636719 122.789062 36.589844 Z M 122.789062 36.589844 "/>
<path style=" stroke:none;fill-rule:nonzero;fill:rgb(0%,0%,0%);fill-opacity:1;" d="M 119.828125 26.515625 L 102.601562 26.515625 C 102.339844 26.515625 102.128906 26.726562 102.128906 26.980469 C 102.128906 27.238281 102.339844 27.449219 102.601562 27.449219 L 119.078125 27.449219 C 119.289062 27.121094 119.546875 26.796875 119.828125 26.515625 Z M 119.828125 26.515625 "/>
<path style=" stroke:none;fill-rule:nonzero;fill:rgb(0%,0%,0%);fill-opacity:1;" d="M 102.128906 28.84375 C 102.128906 29.097656 102.339844 29.308594 102.601562 29.308594 L 118.277344 29.308594 C 118.347656 28.984375 118.464844 28.679688 118.582031 28.378906 L 102.601562 28.378906 C 102.339844 28.378906 102.128906 28.585938 102.128906 28.84375 Z M 102.128906 28.84375 "/>
<path style=" stroke:none;fill-rule:nonzero;fill:rgb(0%,0%,0%);fill-opacity:1;" d="M 102.601562 33.03125 L 118.582031 33.03125 C 118.464844 32.726562 118.347656 32.425781 118.277344 32.101562 L 102.601562 32.101562 C 102.339844 32.101562 102.128906 32.308594 102.128906 32.566406 C 102.128906 32.820312 102.339844 33.03125 102.601562 33.03125 Z M 102.601562 33.03125 "/>
<g clip-path="url(#clip6)" clip-rule="nonzero">
<path style=" stroke:none;fill-rule:nonzero;fill:rgb(0%,0%,0%);fill-opacity:1;" d="M 123.753906 36.726562 L 123.753906 39.542969 C 123.753906 39.800781 123.542969 40.007812 123.285156 40.007812 L 101.660156 40.007812 C 101.402344 40.007812 101.191406 39.800781 101.191406 39.542969 L 101.191406 23.726562 L 123.753906 23.726562 L 123.753906 24.679688 C 123.917969 24.65625 124.058594 24.65625 124.222656 24.65625 C 124.390625 24.65625 124.53125 24.65625 124.695312 24.679688 L 124.695312 12.5625 C 124.695312 11.792969 124.058594 11.164062 123.285156 11.164062 L 101.660156 11.164062 C 100.882812 11.164062 100.25 11.792969 100.25 12.5625 L 100.25 39.542969 C 100.25 40.3125 100.882812 40.9375 101.660156 40.9375 L 123.285156 40.9375 C 124.058594 40.9375 124.695312 40.3125 124.695312 39.542969 L 124.695312 36.726562 C 124.53125 36.75 124.390625 36.75 124.222656 36.75 C 124.058594 36.75 123.917969 36.75 123.753906 36.726562 Z M 101.191406 12.5625 C 101.191406 12.304688 101.402344 12.09375 101.660156 12.09375 L 123.285156 12.09375 C 123.542969 12.09375 123.753906 12.304688 123.753906 12.5625 L 123.753906 22.796875 L 101.191406 22.796875 Z M 101.191406 12.5625 "/>
</g>
<g clip-path="url(#clip7)" clip-rule="nonzero">
<path style=" stroke:none;fill-rule:nonzero;fill:rgb(0%,0%,0%);fill-opacity:1;" d="M 124.222656 25.585938 C 121.378906 25.585938 119.054688 27.890625 119.054688 30.703125 C 119.054688 33.519531 121.378906 35.820312 124.222656 35.820312 C 127.070312 35.820312 129.394531 33.519531 129.394531 30.703125 C 129.394531 27.890625 127.070312 25.585938 124.222656 25.585938 Z M 124.222656 34.890625 C 121.898438 34.890625 119.992188 33.007812 119.992188 30.703125 C 119.992188 28.402344 121.898438 26.515625 124.222656 26.515625 C 126.550781 26.515625 128.457031 28.402344 128.457031 30.703125 C 128.457031 33.007812 126.550781 34.890625 124.222656 34.890625 Z M 124.222656 34.890625 "/>
</g>
<path style=" stroke:none;fill-rule:nonzero;fill:rgb(0%,0%,0%);fill-opacity:1;" d="M 125.585938 29.402344 L 123.519531 30.984375 L 122.933594 30.285156 C 122.765625 30.074219 122.460938 30.050781 122.273438 30.214844 C 122.085938 30.378906 122.039062 30.679688 122.203125 30.867188 L 123.074219 31.890625 C 123.167969 32.007812 123.308594 32.054688 123.425781 32.054688 C 123.519531 32.054688 123.636719 32.03125 123.707031 31.960938 L 126.128906 30.097656 C 126.339844 29.9375 126.363281 29.65625 126.222656 29.449219 C 126.082031 29.285156 125.777344 29.238281 125.585938 29.402344 Z M 125.585938 29.402344 "/>
<g clip-path="url(#clip8)" clip-rule="nonzero">
<path style=" stroke:none;fill-rule:nonzero;fill:rgb(0%,0%,0%);fill-opacity:1;" d="M 147.96875 20.097656 C 147.148438 20.097656 146.480469 20.765625 146.480469 21.585938 C 146.480469 21.617188 146.484375 21.644531 146.488281 21.675781 L 147.332031 26.316406 C 147.457031 27.011719 148.046875 27.515625 148.746094 27.539062 L 150.945312 27.953125 L 150.945312 37.085938 C 150.679688 37.015625 150.410156 36.941406 150.152344 36.855469 L 149.835938 37.796875 C 150.160156 37.90625 150.496094 38 150.828125 38.082031 L 150.945312 37.609375 L 150.945312 39.203125 C 150.945312 40.160156 151.726562 40.9375 152.683594 40.9375 C 153.167969 40.9375 153.609375 40.738281 153.921875 40.414062 C 154.238281 40.738281 154.679688 40.9375 155.164062 40.9375 C 156.121094 40.9375 156.902344 40.160156 156.902344 39.203125 L 156.902344 27.953125 L 159.167969 27.539062 C 159.820312 27.519531 160.382812 27.074219 160.558594 26.445312 L 161.847656 21.71875 C 161.855469 21.671875 161.863281 21.628906 161.863281 21.585938 C 161.863281 20.765625 161.195312 20.097656 160.375 20.097656 C 159.578125 20.097656 158.925781 20.722656 158.886719 21.507812 L 158.117188 24.203125 C 158.058594 24.414062 157.863281 24.5625 157.640625 24.5625 L 155.894531 24.5625 C 156.210938 24.148438 156.40625 23.636719 156.40625 23.074219 C 156.40625 21.707031 155.292969 20.59375 153.921875 20.59375 C 152.554688 20.59375 151.441406 21.707031 151.441406 23.074219 C 151.441406 23.636719 151.636719 24.148438 151.953125 24.5625 L 150.320312 24.5625 C 150.074219 24.5625 149.863281 24.378906 149.828125 24.136719 L 149.457031 21.546875 C 149.4375 20.746094 148.777344 20.097656 147.96875 20.097656 Z M 152.433594 23.074219 C 152.433594 22.253906 153.101562 21.585938 153.921875 21.585938 C 154.746094 21.585938 155.414062 22.253906 155.414062 23.074219 C 155.414062 23.894531 154.746094 24.5625 153.921875 24.5625 C 153.101562 24.5625 152.433594 23.894531 152.433594 23.074219 Z M 150.316406 25.554688 L 157.640625 25.554688 C 158.300781 25.554688 158.890625 25.113281 159.074219 24.476562 L 159.859375 21.722656 C 159.871094 21.679688 159.878906 21.632812 159.878906 21.585938 C 159.878906 21.3125 160.101562 21.089844 160.375 21.089844 C 160.628906 21.089844 160.839844 21.28125 160.867188 21.53125 L 159.597656 26.183594 C 159.539062 26.398438 159.34375 26.546875 159.121094 26.546875 C 159.089844 26.546875 159.0625 26.550781 159.03125 26.554688 L 156.316406 27.050781 C 156.078125 27.09375 155.910156 27.300781 155.910156 27.539062 L 155.910156 39.203125 C 155.910156 39.613281 155.574219 39.945312 155.164062 39.945312 C 154.753906 39.945312 154.421875 39.613281 154.421875 39.203125 L 154.421875 32.503906 L 153.425781 32.503906 L 153.425781 39.203125 C 153.425781 39.613281 153.09375 39.945312 152.683594 39.945312 C 152.273438 39.945312 151.9375 39.613281 151.9375 39.203125 L 151.9375 27.539062 C 151.9375 27.300781 151.769531 27.097656 151.535156 27.054688 L 148.890625 26.554688 C 148.859375 26.550781 148.828125 26.546875 148.796875 26.546875 C 148.558594 26.546875 148.351562 26.375 148.308594 26.140625 L 147.472656 21.546875 C 147.492188 21.292969 147.707031 21.089844 147.96875 21.089844 C 148.242188 21.089844 148.464844 21.3125 148.464844 21.585938 C 148.464844 21.609375 148.464844 21.632812 148.46875 21.65625 L 148.84375 24.277344 C 148.949219 25.007812 149.582031 25.554688 150.316406 25.554688 Z M 150.316406 25.554688 "/>
</g>
<g clip-path="url(#clip9)" clip-rule="nonzero">
<path style=" stroke:none;fill-rule:nonzero;fill:rgb(0%,0%,0%);fill-opacity:1;" d="M 143.503906 20.097656 C 145.964844 20.097656 147.96875 18.09375 147.96875 15.632812 C 147.96875 13.167969 145.964844 11.164062 143.503906 11.164062 C 141.039062 11.164062 139.035156 13.167969 139.035156 15.632812 C 139.035156 18.09375 141.039062 20.097656 143.503906 20.097656 Z M 143.503906 12.15625 C 145.417969 12.15625 146.976562 13.714844 146.976562 15.632812 C 146.976562 17.546875 145.417969 19.105469 143.503906 19.105469 C 141.589844 19.105469 140.03125 17.546875 140.03125 15.632812 C 140.03125 13.714844 141.589844 12.15625 143.503906 12.15625 Z M 143.503906 12.15625 "/>
</g>
<path style=" stroke:none;fill-rule:nonzero;fill:rgb(0%,0%,0%);fill-opacity:1;" d="M 143.007812 16.625 L 144.992188 16.625 L 144.992188 15.632812 L 143.503906 15.632812 L 143.503906 13.644531 L 142.511719 13.644531 L 142.511719 16.128906 C 142.511719 16.402344 142.730469 16.625 143.007812 16.625 Z M 143.007812 16.625 "/>
<g clip-path="url(#clip10)" clip-rule="nonzero">
<path style=" stroke:none;fill-rule:nonzero;fill:rgb(0%,0%,0%);fill-opacity:1;" d="M 168.3125 16.128906 L 167.816406 16.128906 L 167.816406 11.660156 C 167.816406 11.386719 167.597656 11.164062 167.320312 11.164062 L 158.390625 11.164062 C 158.117188 11.164062 157.894531 11.386719 157.894531 11.660156 L 157.894531 16.128906 L 157.398438 16.128906 C 157.121094 16.128906 156.902344 16.351562 156.902344 16.625 C 156.902344 17.992188 158.015625 19.105469 159.382812 19.105469 L 166.328125 19.105469 C 167.699219 19.105469 168.808594 17.992188 168.808594 16.625 C 168.808594 16.351562 168.589844 16.128906 168.3125 16.128906 Z M 158.886719 12.15625 L 166.824219 12.15625 L 166.824219 16.128906 L 158.886719 16.128906 Z M 166.328125 18.113281 L 159.382812 18.113281 C 158.734375 18.113281 158.183594 17.699219 157.976562 17.121094 L 167.734375 17.121094 C 167.527344 17.699219 166.976562 18.113281 166.328125 18.113281 Z M 166.328125 18.113281 "/>
</g>
<path style=" stroke:none;fill-rule:nonzero;fill:rgb(0%,0%,0%);fill-opacity:1;" d="M 160.375 13.644531 L 161.367188 13.644531 L 161.367188 15.136719 L 160.375 15.136719 Z M 160.375 13.644531 "/>
<path style=" stroke:none;fill-rule:nonzero;fill:rgb(0%,0%,0%);fill-opacity:1;" d="M 162.359375 13.148438 L 163.351562 13.148438 L 163.351562 15.136719 L 162.359375 15.136719 Z M 162.359375 13.148438 "/>
<path style=" stroke:none;fill-rule:nonzero;fill:rgb(0%,0%,0%);fill-opacity:1;" d="M 164.34375 13.644531 L 165.335938 13.644531 L 165.335938 15.136719 L 164.34375 15.136719 Z M 164.34375 13.644531 "/>
<g clip-path="url(#clip11)" clip-rule="nonzero">
<path style=" stroke:none;fill-rule:nonzero;fill:rgb(0%,0%,0%);fill-opacity:1;" d="M 139.53125 40.9375 L 146.480469 40.9375 C 146.753906 40.9375 146.976562 40.714844 146.976562 40.441406 L 146.976562 33.496094 C 146.976562 33.34375 146.90625 33.203125 146.789062 33.109375 L 144.308594 31.121094 C 144.222656 31.050781 144.113281 31.015625 144 31.015625 L 139.53125 31.015625 C 139.257812 31.015625 139.035156 31.238281 139.035156 31.511719 L 139.035156 40.441406 C 139.035156 40.714844 139.257812 40.9375 139.53125 40.9375 Z M 140.03125 32.007812 L 143.824219 32.007812 L 145.984375 33.734375 L 145.984375 39.945312 L 140.03125 39.945312 Z M 140.03125 32.007812 "/>
</g>
<g clip-path="url(#clip12)" clip-rule="nonzero">
<path style=" stroke:none;fill-rule:nonzero;fill:rgb(0%,0%,0%);fill-opacity:1;" d="M 163.351562 30.023438 C 160.34375 30.023438 157.894531 32.46875 157.894531 35.480469 C 157.894531 37.257812 158.75 38.832031 160.066406 39.832031 C 160.070312 39.832031 160.074219 39.835938 160.074219 39.839844 C 160.097656 39.855469 160.117188 39.867188 160.140625 39.882812 C 160.230469 39.949219 160.316406 40.011719 160.410156 40.070312 C 160.453125 40.097656 160.496094 40.125 160.542969 40.152344 C 160.628906 40.203125 160.71875 40.257812 160.8125 40.308594 C 160.890625 40.347656 160.972656 40.386719 161.050781 40.421875 C 161.152344 40.46875 161.253906 40.515625 161.359375 40.554688 C 161.464844 40.597656 161.570312 40.636719 161.679688 40.671875 C 161.734375 40.691406 161.792969 40.707031 161.847656 40.722656 C 161.953125 40.753906 162.0625 40.78125 162.167969 40.804688 C 162.226562 40.816406 162.285156 40.828125 162.339844 40.839844 C 162.457031 40.863281 162.570312 40.878906 162.6875 40.894531 C 162.738281 40.898438 162.789062 40.90625 162.84375 40.914062 C 163.011719 40.929688 163.179688 40.9375 163.351562 40.9375 C 163.523438 40.9375 163.691406 40.929688 163.859375 40.914062 C 163.914062 40.90625 163.964844 40.902344 164.015625 40.894531 C 164.132812 40.878906 164.25 40.863281 164.363281 40.839844 C 164.421875 40.828125 164.476562 40.816406 164.535156 40.804688 C 164.644531 40.78125 164.75 40.753906 164.855469 40.722656 C 164.910156 40.707031 164.96875 40.691406 165.023438 40.675781 C 165.132812 40.640625 165.238281 40.597656 165.347656 40.554688 C 165.449219 40.515625 165.550781 40.46875 165.652344 40.421875 C 165.730469 40.386719 165.8125 40.351562 165.890625 40.308594 C 165.984375 40.257812 166.074219 40.207031 166.164062 40.152344 C 166.207031 40.125 166.25 40.097656 166.292969 40.070312 C 166.386719 40.011719 166.476562 39.949219 166.5625 39.882812 C 166.585938 39.871094 166.605469 39.855469 166.628906 39.839844 C 166.632812 39.835938 166.632812 39.832031 166.636719 39.832031 C 167.953125 38.832031 168.808594 37.257812 168.808594 35.480469 C 168.808594 32.46875 166.363281 30.023438 163.351562 30.023438 Z M 160.871094 39.1875 L 160.871094 37.960938 C 160.871094 36.867188 161.761719 35.976562 162.855469 35.976562 L 163.847656 35.976562 C 164.941406 35.976562 165.832031 36.867188 165.832031 37.960938 L 165.832031 39.1875 C 165.648438 39.3125 165.457031 39.421875 165.257812 39.511719 C 165.257812 39.511719 165.257812 39.515625 165.253906 39.515625 C 164.0625 40.074219 162.640625 40.074219 161.449219 39.515625 C 161.449219 39.515625 161.445312 39.511719 161.445312 39.511719 C 161.246094 39.421875 161.054688 39.3125 160.871094 39.1875 Z M 163.351562 34.984375 C 162.804688 34.984375 162.359375 34.539062 162.359375 33.992188 C 162.359375 33.445312 162.804688 33 163.351562 33 C 163.898438 33 164.34375 33.445312 164.34375 33.992188 C 164.34375 34.539062 163.898438 34.984375 163.351562 34.984375 Z M 166.824219 38.28125 L 166.824219 37.960938 C 166.824219 36.699219 166.035156 35.621094 164.925781 35.1875 C 165.179688 34.855469 165.335938 34.441406 165.335938 33.992188 C 165.335938 32.898438 164.445312 32.007812 163.351562 32.007812 C 162.257812 32.007812 161.367188 32.898438 161.367188 33.992188 C 161.367188 34.441406 161.523438 34.855469 161.777344 35.1875 C 160.667969 35.621094 159.878906 36.699219 159.878906 37.960938 L 159.878906 38.28125 C 159.257812 37.515625 158.886719 36.539062 158.886719 35.480469 C 158.886719 33.019531 160.890625 31.015625 163.351562 31.015625 C 165.816406 31.015625 167.816406 33.019531 167.816406 35.480469 C 167.816406 36.539062 167.445312 37.515625 166.824219 38.28125 Z M 166.824219 38.28125 "/>
</g>
<path style=" stroke:none;fill-rule:nonzero;fill:rgb(0%,0%,0%);fill-opacity:1;" d="M 141.023438 33.496094 L 144.496094 33.496094 L 144.496094 34.488281 L 141.023438 34.488281 Z M 141.023438 33.496094 "/>
<path style=" stroke:none;fill-rule:nonzero;fill:rgb(0%,0%,0%);fill-opacity:1;" d="M 141.023438 35.480469 L 144.992188 35.480469 L 144.992188 36.472656 L 141.023438 36.472656 Z M 141.023438 35.480469 "/>
<path style=" stroke:none;fill-rule:nonzero;fill:rgb(0%,0%,0%);fill-opacity:1;" d="M 141.023438 37.464844 L 144.992188 37.464844 L 144.992188 38.457031 L 141.023438 38.457031 Z M 141.023438 37.464844 "/>
<path style=" stroke:none;fill-rule:nonzero;fill:rgb(0%,0%,0%);fill-opacity:1;" d="M 156.792969 12.972656 C 156.457031 12.898438 156.117188 12.835938 155.78125 12.785156 L 155.640625 13.769531 C 155.949219 13.8125 156.265625 13.871094 156.574219 13.941406 Z M 156.792969 12.972656 "/>
<path style=" stroke:none;fill-rule:nonzero;fill:rgb(0%,0%,0%);fill-opacity:1;" d="M 149.117188 14.65625 L 148.714844 13.746094 C 148.402344 13.886719 148.089844 14.039062 147.789062 14.203125 L 148.261719 15.074219 C 148.542969 14.925781 148.828125 14.78125 149.117188 14.65625 Z M 149.117188 14.65625 "/>
<path style=" stroke:none;fill-rule:nonzero;fill:rgb(0%,0%,0%);fill-opacity:1;" d="M 153.921875 13.644531 C 154.183594 13.644531 154.4375 13.65625 154.691406 13.671875 L 154.753906 12.679688 C 154.480469 12.664062 154.203125 12.652344 153.921875 12.652344 L 153.722656 12.65625 L 153.738281 13.648438 Z M 153.921875 13.644531 "/>
<path style=" stroke:none;fill-rule:nonzero;fill:rgb(0%,0%,0%);fill-opacity:1;" d="M 150.914062 14.03125 L 150.664062 13.070312 C 150.335938 13.15625 150.003906 13.253906 149.675781 13.367188 L 150.003906 14.308594 C 150.304688 14.203125 150.609375 14.109375 150.914062 14.03125 Z M 150.914062 14.03125 "/>
<path style=" stroke:none;fill-rule:nonzero;fill:rgb(0%,0%,0%);fill-opacity:1;" d="M 152.789062 13.699219 L 152.695312 12.710938 C 152.351562 12.742188 152.007812 12.789062 151.671875 12.847656 L 151.84375 13.828125 C 152.15625 13.773438 152.472656 13.730469 152.789062 13.699219 Z M 152.789062 13.699219 "/>
<path style=" stroke:none;fill-rule:nonzero;fill:rgb(0%,0%,0%);fill-opacity:1;" d="M 142.808594 29.84375 C 142.695312 29.546875 142.59375 29.246094 142.503906 28.941406 L 141.550781 29.222656 C 141.648438 29.550781 141.757812 29.878906 141.882812 30.199219 Z M 142.808594 29.84375 "/>
<path style=" stroke:none;fill-rule:nonzero;fill:rgb(0%,0%,0%);fill-opacity:1;" d="M 141.101562 24.117188 L 142.085938 24.226562 C 142.121094 23.910156 142.171875 23.59375 142.230469 23.285156 L 141.257812 23.097656 C 141.191406 23.433594 141.140625 23.773438 141.101562 24.117188 Z M 141.101562 24.117188 "/>
<path style=" stroke:none;fill-rule:nonzero;fill:rgb(0%,0%,0%);fill-opacity:1;" d="M 141.023438 25.554688 C 141.023438 25.761719 141.027344 25.96875 141.035156 26.175781 L 142.027344 26.128906 C 142.019531 25.941406 142.015625 25.75 142.015625 25.554688 C 142.015625 25.429688 142.015625 25.304688 142.019531 25.175781 L 141.027344 25.144531 C 141.023438 25.28125 141.023438 25.417969 141.023438 25.554688 Z M 141.023438 25.554688 "/>
<path style=" stroke:none;fill-rule:nonzero;fill:rgb(0%,0%,0%);fill-opacity:1;" d="M 142.269531 28.019531 C 142.203125 27.707031 142.152344 27.390625 142.109375 27.078125 L 141.125 27.203125 C 141.167969 27.542969 141.226562 27.882812 141.296875 28.222656 Z M 142.269531 28.019531 "/>
<path style=" stroke:none;fill-rule:nonzero;fill:rgb(0%,0%,0%);fill-opacity:1;" d="M 142.742188 21.449219 L 141.808594 21.109375 C 141.691406 21.433594 141.582031 21.761719 141.492188 22.089844 L 142.449219 22.355469 C 142.53125 22.054688 142.628906 21.75 142.742188 21.449219 Z M 142.742188 21.449219 "/>
<path style=" stroke:none;fill-rule:nonzero;fill:rgb(0%,0%,0%);fill-opacity:1;" d="M 147.941406 36.988281 C 148.246094 37.148438 148.558594 37.296875 148.871094 37.429688 L 149.261719 36.519531 C 148.972656 36.394531 148.679688 36.257812 148.402344 36.109375 Z M 147.941406 36.988281 "/>
<path style=" stroke:none;fill-rule:nonzero;fill:rgb(0%,0%,0%);fill-opacity:1;" d="M 165.488281 28.414062 L 166.453125 28.652344 C 166.511719 28.410156 166.5625 28.167969 166.609375 27.921875 L 165.632812 27.738281 C 165.589844 27.964844 165.542969 28.191406 165.488281 28.414062 Z M 165.488281 28.414062 "/>
<path style=" stroke:none;fill-rule:nonzero;fill:rgb(0%,0%,0%);fill-opacity:1;" d="M 165.726562 23.945312 C 165.769531 24.257812 165.796875 24.578125 165.816406 24.894531 L 166.804688 24.839844 C 166.789062 24.5 166.753906 24.152344 166.707031 23.8125 Z M 165.726562 23.945312 "/>
<path style=" stroke:none;fill-rule:nonzero;fill:rgb(0%,0%,0%);fill-opacity:1;" d="M 166.820312 25.871094 L 165.828125 25.847656 C 165.820312 26.160156 165.800781 26.480469 165.769531 26.796875 L 166.757812 26.898438 C 166.792969 26.554688 166.8125 26.207031 166.820312 25.871094 Z M 166.820312 25.871094 "/>
<path style=" stroke:none;fill-rule:nonzero;fill:rgb(0%,0%,0%);fill-opacity:1;" d="M 164.621094 20.316406 C 164.761719 20.597656 164.890625 20.890625 165.007812 21.1875 L 165.929688 20.820312 C 165.804688 20.503906 165.664062 20.183594 165.511719 19.878906 Z M 164.621094 20.316406 "/>
<path style=" stroke:none;fill-rule:nonzero;fill:rgb(0%,0%,0%);fill-opacity:1;" d="M 165.320312 22.085938 C 165.410156 22.386719 165.492188 22.695312 165.5625 23.007812 L 166.53125 22.796875 C 166.457031 22.457031 166.367188 22.121094 166.269531 21.796875 Z M 165.320312 22.085938 "/>
</g>
</svg>
