<?xml version="1.0" encoding="UTF-8"?>
<svg xmlns="http://www.w3.org/2000/svg" xmlns:xlink="http://www.w3.org/1999/xlink" width="262.5pt" height="52.499999pt" viewBox="0 0 262.5 52.499999" version="1.2">
<defs>
<clipPath id="clip1">
  <path d="M 0.992188 0 L 261.015625 0 L 261.015625 52.003906 L 0.992188 52.003906 Z M 0.992188 0 "/>
</clipPath>
<clipPath id="clip2">
  <path d="M 20.289062 14 L 44.855469 14 L 44.855469 40.9375 L 20.289062 40.9375 Z M 20.289062 14 "/>
</clipPath>
<clipPath id="clip3">
  <path d="M 28 11.164062 L 34 11.164062 L 34 17 L 28 17 Z M 28 11.164062 "/>
</clipPath>
<clipPath id="clip4">
  <path d="M 27 33 L 44.855469 33 L 44.855469 40.9375 L 27 40.9375 Z M 27 33 "/>
</clipPath>
<clipPath id="clip5">
  <path d="M 64 11.164062 L 68 11.164062 L 68 15 L 64 15 Z M 64 11.164062 "/>
</clipPath>
<clipPath id="clip6">
  <path d="M 56 14 L 71.222656 14 L 71.222656 40 L 56 40 Z M 56 14 "/>
</clipPath>
<clipPath id="clip7">
  <path d="M 68 38 L 71 38 L 71 40.9375 L 68 40.9375 Z M 68 38 "/>
</clipPath>
<clipPath id="clip8">
  <path d="M 62 38 L 65 38 L 65 40.9375 L 62 40.9375 Z M 62 38 "/>
</clipPath>
<clipPath id="clip9">
  <path d="M 55.589844 11.164062 L 59 11.164062 L 59 15 L 55.589844 15 Z M 55.589844 11.164062 "/>
</clipPath>
<clipPath id="clip10">
  <path d="M 91 26 L 101 26 L 101 40.9375 L 91 40.9375 Z M 91 26 "/>
</clipPath>
<clipPath id="clip11">
  <path d="M 107 26 L 117 26 L 117 40.9375 L 107 40.9375 Z M 107 26 "/>
</clipPath>
<clipPath id="clip12">
  <path d="M 112 28 L 118.902344 28 L 118.902344 38 L 112 38 Z M 112 28 "/>
</clipPath>
<clipPath id="clip13">
  <path d="M 90 11.164062 L 99 11.164062 L 99 22 L 90 22 Z M 90 11.164062 "/>
</clipPath>
<clipPath id="clip14">
  <path d="M 83.175781 17 L 94 17 L 94 26 L 83.175781 26 Z M 83.175781 17 "/>
</clipPath>
<clipPath id="clip15">
  <path d="M 141 39 L 146 39 L 146 40.9375 L 141 40.9375 Z M 141 39 "/>
</clipPath>
<clipPath id="clip16">
  <path d="M 142 12 L 157.675781 12 L 157.675781 28 L 142 28 Z M 142 12 "/>
</clipPath>
<clipPath id="clip17">
  <path d="M 128.648438 18 L 133 18 L 133 21 L 128.648438 21 Z M 128.648438 18 "/>
</clipPath>
<clipPath id="clip18">
  <path d="M 133 11.164062 L 136 11.164062 L 136 16 L 133 16 Z M 133 11.164062 "/>
</clipPath>
</defs>
<g id="surface1">
<g clip-path="url(#clip1)" clip-rule="nonzero">
<path style=" stroke:none;fill-rule:nonzero;fill:rgb(100%,100%,100%);fill-opacity:1;" d="M 0.992188 0 L 261.507812 0 L 261.507812 58.804688 L 0.992188 58.804688 Z M 0.992188 0 "/>
<path style=" stroke:none;fill-rule:nonzero;fill:rgb(100%,100%,100%);fill-opacity:1;" d="M 0.992188 0 L 261.507812 0 L 261.507812 52.105469 L 0.992188 52.105469 Z M 0.992188 0 "/>
<path style=" stroke:none;fill-rule:nonzero;fill:rgb(0.389099%,4.708862%,11.759949%);fill-opacity:1;" d="M 0.992188 0 L 261.507812 0 L 261.507812 52.105469 L 0.992188 52.105469 Z M 0.992188 0 "/>
</g>
<g clip-path="url(#clip2)" clip-rule="nonzero">
<path style=" stroke:none;fill-rule:nonzero;fill:rgb(100%,100%,100%);fill-opacity:1;" d="M 44.386719 14.425781 L 41.097656 15.28125 C 41.082031 15.285156 41.066406 15.292969 41.050781 15.296875 L 32.886719 17.414062 L 28.28125 17.414062 C 28.199219 17.414062 28.121094 17.425781 28.042969 17.445312 C 25.910156 17.769531 23.707031 20.449219 23.277344 20.996094 C 23.0625 21.269531 23.011719 21.632812 23.144531 21.953125 L 24.351562 24.898438 L 24.496094 25.257812 L 23.789062 24.976562 L 23.34375 26.0625 L 22.15625 25.589844 L 20.300781 30.121094 L 26.214844 32.472656 L 28.070312 27.941406 L 26.882812 27.46875 L 27.328125 26.382812 L 26.550781 26.074219 C 26.597656 25.992188 26.632812 25.902344 26.652344 25.8125 C 26.699219 25.625 26.6875 25.421875 26.609375 25.226562 L 25.1875 21.757812 C 25.789062 21.066406 26.597656 20.289062 27.332031 19.8125 L 27.332031 26.082031 L 27.695312 26.226562 L 27.25 27.3125 L 28.4375 27.785156 L 26.371094 32.835938 L 25.195312 32.367188 L 22.699219 38.703125 C 22.394531 39.472656 22.78125 40.34375 23.566406 40.640625 C 24.347656 40.941406 25.230469 40.558594 25.535156 39.789062 L 30.0625 28.300781 C 30.371094 28.957031 31.125 29.3125 31.851562 29.105469 L 35.710938 28.007812 L 36.992188 32.503906 C 37.179688 33.160156 37.785156 33.585938 38.445312 33.585938 C 38.578125 33.585938 38.714844 33.570312 38.851562 33.53125 C 39.652344 33.3125 40.121094 32.492188 39.894531 31.703125 L 38.203125 25.765625 C 38.09375 25.382812 37.835938 25.058594 37.484375 24.867188 C 37.132812 24.675781 36.71875 24.628906 36.335938 24.738281 L 33.984375 25.40625 L 33.984375 19.132812 L 42.78125 16.851562 C 43.101562 16.769531 43.042969 16.046875 42.828125 15.523438 L 44.558594 15.074219 C 44.742188 15.027344 44.851562 14.84375 44.800781 14.664062 C 44.753906 14.488281 44.570312 14.378906 44.386719 14.425781 Z M 26.367188 27.265625 L 23.859375 26.265625 L 24.097656 25.683594 L 24.785156 25.960938 C 24.871094 26.164062 25.019531 26.320312 25.199219 26.425781 C 25.28125 26.472656 25.371094 26.507812 25.464844 26.53125 C 25.542969 26.546875 25.617188 26.558594 25.695312 26.558594 C 25.820312 26.558594 25.945312 26.535156 26.066406 26.488281 C 26.074219 26.484375 26.082031 26.480469 26.089844 26.476562 L 26.605469 26.683594 Z M 30.660156 26.226562 L 29.488281 24.773438 L 30.164062 19.886719 C 30.320312 19.945312 30.488281 19.976562 30.65625 19.976562 L 30.660156 19.976562 C 30.828125 19.976562 30.996094 19.945312 31.152344 19.886719 L 31.828125 24.773438 Z M 30.191406 18.410156 L 31.125 18.410156 L 31.359375 19.320312 L 31.324219 19.375 C 31.132812 19.53125 30.894531 19.613281 30.65625 19.613281 C 30.421875 19.613281 30.183594 19.53125 29.992188 19.375 L 29.957031 19.320312 Z M 30.191406 18.410156 "/>
</g>
<g clip-path="url(#clip3)" clip-rule="nonzero">
<path style=" stroke:none;fill-rule:nonzero;fill:rgb(100%,100%,100%);fill-opacity:1;" d="M 28.453125 15.058594 C 28.925781 16.492188 30.488281 17.277344 31.941406 16.8125 C 33.394531 16.351562 34.195312 14.8125 33.722656 13.378906 C 33.253906 11.949219 31.691406 11.160156 30.238281 11.625 C 28.78125 12.089844 27.984375 13.625 28.453125 15.058594 Z M 33.378906 14.796875 C 33.378906 14.796875 32.210938 17.210938 30.410156 15.179688 C 30.410156 15.179688 32.242188 15.515625 33.378906 14.796875 Z M 33.378906 14.796875 "/>
</g>
<g clip-path="url(#clip4)" clip-rule="nonzero">
<path style=" stroke:none;fill-rule:nonzero;fill:rgb(100%,100%,100%);fill-opacity:1;" d="M 41.691406 33.546875 L 39.230469 34.515625 L 37.34375 34.515625 L 34.964844 35.242188 L 31.601562 35.972656 L 29.878906 39.082031 L 28.320312 39.929688 L 27.910156 40.574219 L 44.5625 40.574219 L 42.921875 34.679688 Z M 41.691406 33.546875 "/>
</g>
<path style=" stroke:none;fill-rule:nonzero;fill:rgb(100%,100%,100%);fill-opacity:1;" d="M 43.988281 22.828125 C 43.988281 21.488281 42.886719 20.402344 41.527344 20.402344 C 40.167969 20.402344 39.066406 21.488281 39.066406 22.828125 C 39.066406 24.164062 40.167969 25.25 41.527344 25.25 C 42.886719 25.25 43.988281 24.164062 43.988281 22.828125 Z M 41.527344 24.789062 C 40.429688 24.789062 39.535156 23.910156 39.535156 22.828125 C 39.535156 21.746094 40.429688 20.863281 41.527344 20.863281 C 42.625 20.863281 43.519531 21.746094 43.519531 22.828125 C 43.519531 23.910156 42.625 24.789062 41.527344 24.789062 Z M 41.527344 24.789062 "/>
<g clip-path="url(#clip5)" clip-rule="nonzero">
<path style=" stroke:none;fill-rule:nonzero;fill:rgb(100%,100%,100%);fill-opacity:1;" d="M 64.964844 14.414062 L 64.878906 13.910156 L 64.882812 12.960938 L 65.109375 12.464844 L 65.417969 12.085938 L 66.058594 11.890625 L 66.570312 11.921875 L 67.171875 12.253906 L 67.519531 12.785156 L 67.652344 13.347656 L 67.699219 14.203125 L 64.964844 14.414062 "/>
</g>
<g clip-path="url(#clip6)" clip-rule="nonzero">
<path style=" stroke:none;fill-rule:nonzero;fill:rgb(100%,100%,100%);fill-opacity:1;" d="M 69.921875 38.800781 L 69.308594 38.828125 L 68.585938 39.027344 L 68.050781 38.539062 C 68.125 37.253906 68.0625 35.945312 67.867188 34.613281 C 67.882812 34.539062 67.671875 33.691406 67.234375 32.074219 L 66.929688 30.589844 L 66.28125 28.722656 L 65.214844 32.417969 C 65.097656 32.957031 64.984375 33.664062 64.871094 34.535156 L 64.867188 37.65625 L 64.96875 38.21875 L 64.457031 38.953125 C 63.390625 38.832031 62.875 38.796875 62.910156 38.851562 C 62.851562 38.320312 62.730469 37.714844 62.546875 37.035156 L 62.546875 36.378906 C 62.753906 34.699219 62.890625 33.015625 62.945312 31.328125 L 62.808594 29.808594 L 62.890625 27.316406 L 63.203125 25.378906 L 62.253906 25.078125 L 62 25.175781 L 61.332031 26 L 61.144531 26.0625 L 60.480469 25.535156 C 60.558594 25.136719 60.917969 24.070312 61.554688 22.339844 L 61.9375 20.917969 L 62.207031 19.28125 L 61.710938 19.105469 L 59.753906 18.160156 L 59.09375 17.683594 C 58.929688 17.660156 58.1875 16.832031 56.867188 15.203125 L 58.316406 14.078125 C 59.996094 15.921875 60.972656 16.820312 61.246094 16.773438 L 62.230469 16.847656 L 62.683594 16.308594 L 65.027344 16.296875 L 65.257812 16.054688 L 67.53125 15.8125 L 68.132812 16.449219 L 70.28125 17.316406 C 70.644531 18.777344 70.894531 20.097656 71.035156 21.285156 L 71.222656 27.105469 L 69.472656 26.859375 L 69.488281 24.308594 L 69.242188 21.390625 L 69.074219 23.53125 L 69.722656 29.386719 L 69.5625 31.355469 C 69.601562 31.796875 69.753906 32.808594 70.019531 34.390625 L 70.308594 37.769531 L 69.921875 38.800781 "/>
</g>
<path style=" stroke:none;fill-rule:nonzero;fill:rgb(100%,100%,100%);fill-opacity:1;" d="M 67.527344 15.847656 L 66.820312 16.550781 L 66.382812 16.792969 L 66.09375 16.644531 L 65.304688 16.058594 C 65.257812 16.484375 65.230469 16.914062 65.222656 17.347656 L 65.078125 17.730469 L 64.480469 19.675781 L 63.871094 21.207031 L 63.765625 21.777344 L 63.457031 24.195312 C 63.601562 24.292969 63.886719 24.445312 64.308594 24.652344 L 64.839844 24.824219 L 65.351562 24.863281 L 66.898438 24.761719 L 67.066406 20.738281 L 67.082031 19.441406 C 67.214844 18.175781 67.363281 16.976562 67.527344 15.847656 "/>
<path style=" stroke:none;fill-rule:nonzero;fill:rgb(100%,100%,100%);fill-opacity:1;" d="M 66.277344 16.832031 L 65.980469 17.191406 L 66.246094 17.546875 L 65.988281 18.339844 L 65.609375 19.933594 L 65.621094 21.984375 L 65.722656 25.15625 L 66.488281 25.921875 L 66.945312 25.441406 L 67.039062 19.867188 L 66.585938 17.535156 L 66.738281 17.296875 L 66.519531 16.898438 L 66.277344 16.832031 "/>
<g clip-path="url(#clip7)" clip-rule="nonzero">
<path style=" stroke:none;fill-rule:nonzero;fill:rgb(100%,100%,100%);fill-opacity:1;" d="M 69.835938 38.5625 L 70.027344 39.039062 L 70.445312 39.703125 L 70.558594 40.230469 L 70.511719 40.683594 L 70.269531 40.863281 L 69.917969 40.914062 L 69.519531 40.835938 L 69.125 40.65625 L 68.832031 40.347656 C 68.835938 40.082031 68.832031 39.839844 68.816406 39.617188 L 68.527344 39.394531 L 68.492188 39.230469 L 68.523438 38.773438 L 68.585938 38.507812 L 69.835938 38.5625 "/>
</g>
<g clip-path="url(#clip8)" clip-rule="nonzero">
<path style=" stroke:none;fill-rule:nonzero;fill:rgb(100%,100%,100%);fill-opacity:1;" d="M 64.550781 38.695312 L 64.664062 39.394531 L 64.316406 39.625 L 64.097656 39.648438 L 64.046875 40.019531 L 63.957031 40.425781 L 63.550781 40.792969 L 63.089844 40.867188 L 62.511719 40.800781 L 62.269531 40.671875 L 62.242188 40.089844 L 62.308594 39.71875 L 62.84375 39.019531 L 63.035156 38.503906 L 64.550781 38.695312 "/>
</g>
<path style=" stroke:none;fill-rule:nonzero;fill:rgb(100%,100%,100%);fill-opacity:1;" d="M 57.363281 15.535156 L 57.054688 15.027344 L 56.859375 14.675781 L 56.980469 14.289062 L 58.03125 13.691406 L 58.34375 14.222656 L 58.351562 14.796875 L 58.046875 15.246094 L 57.363281 15.535156 "/>
<g clip-path="url(#clip9)" clip-rule="nonzero">
<path style=" stroke:none;fill-rule:nonzero;fill:rgb(100%,100%,100%);fill-opacity:1;" d="M 57.183594 14.5625 L 57.015625 14.199219 C 56.792969 14.066406 56.585938 13.929688 56.398438 13.789062 L 56.046875 13.4375 L 55.867188 13.230469 L 55.855469 13.085938 L 55.988281 12.96875 C 55.996094 12.867188 55.992188 12.78125 55.972656 12.714844 L 56.042969 12.582031 L 56.09375 12.429688 L 56.089844 12.28125 L 56.253906 12.167969 L 56.382812 12.121094 L 56.050781 11.800781 L 55.636719 11.472656 L 55.589844 11.296875 L 55.71875 11.1875 L 55.925781 11.203125 C 56.0625 11.339844 56.488281 11.671875 57.195312 12.203125 L 57.324219 12.351562 C 57.367188 12.445312 57.441406 12.667969 57.554688 13.015625 L 57.683594 13.359375 L 57.722656 13.527344 L 58.007812 13.859375 L 57.183594 14.5625 "/>
</g>
<path style=" stroke:none;fill-rule:nonzero;fill:rgb(100%,100%,100%);fill-opacity:1;" d="M 70.90625 27.023438 L 70.941406 27.460938 L 70.925781 28.035156 L 70.820312 28.308594 C 70.738281 28.390625 70.613281 28.523438 70.449219 28.699219 L 70.199219 28.824219 L 69.894531 29 L 69.667969 29.0625 L 69.507812 29.058594 L 69.429688 28.917969 L 69.59375 28.546875 L 69.652344 28.28125 L 69.636719 27.957031 L 69.601562 27.660156 L 69.476562 28.007812 L 69.292969 28.28125 L 69.167969 28.386719 C 69.132812 28.414062 69.105469 28.402344 69.085938 28.359375 C 69.078125 28.359375 69.050781 28.253906 69.003906 28.042969 L 69.15625 27.726562 L 69.28125 27.414062 C 69.382812 27.195312 69.480469 27.003906 69.574219 26.835938 L 70.90625 27.023438 "/>
<path style=" stroke:none;fill-rule:nonzero;fill:rgb(100%,100%,100%);fill-opacity:1;" d="M 65.328125 16.097656 L 65.40625 15.824219 L 65.351562 15.691406 C 65.308594 15.640625 65.261719 15.558594 65.207031 15.445312 L 65.148438 15.285156 C 65.121094 15.1875 65.105469 15.070312 65.097656 14.933594 C 65.042969 14.953125 64.96875 14.964844 64.882812 14.960938 L 64.792969 14.914062 L 64.730469 14.773438 L 64.675781 14.320312 L 64.660156 14.125 L 64.691406 13.988281 L 64.800781 13.9375 L 64.914062 13.992188 L 64.996094 14.140625 L 65.097656 14.117188 L 65.046875 13.917969 C 65.023438 13.789062 65.007812 13.636719 64.996094 13.460938 L 65.039062 13.238281 L 65.117188 13.019531 L 65.265625 12.804688 L 65.398438 12.730469 L 65.648438 12.726562 C 66.023438 12.746094 66.226562 12.757812 66.257812 12.769531 L 66.464844 12.742188 L 66.867188 12.628906 L 67.027344 12.671875 L 67.402344 13.09375 L 67.457031 13.300781 L 67.484375 13.558594 C 67.480469 13.78125 67.484375 13.949219 67.5 14.050781 C 67.542969 14.003906 67.660156 13.992188 67.84375 14.015625 L 67.851562 14.242188 L 67.820312 14.492188 L 67.757812 14.703125 L 67.699219 14.832031 C 67.644531 14.871094 67.585938 14.886719 67.515625 14.875 L 67.546875 14.867188 C 67.519531 15.082031 67.476562 15.359375 67.414062 15.699219 L 67.492188 15.984375 C 67.054688 16.386719 66.808594 16.601562 66.75 16.636719 C 66.667969 16.707031 66.527344 16.769531 66.332031 16.828125 C 65.964844 16.574219 65.628906 16.332031 65.328125 16.097656 "/>
<path style=" stroke:none;fill-rule:nonzero;fill:rgb(100%,100%,100%);fill-opacity:1;" d="M 65.414062 15.804688 L 65.445312 15.828125 L 65.71875 16.039062 C 65.769531 16.078125 65.816406 16.105469 65.855469 16.125 C 66.054688 16.214844 66.199219 16.25 66.296875 16.234375 C 66.398438 16.226562 66.503906 16.191406 66.617188 16.121094 C 66.679688 16.085938 66.734375 16.050781 66.78125 16.019531 C 67.074219 15.804688 67.230469 15.695312 67.246094 15.691406 L 66.320312 16.835938 L 65.414062 15.804688 "/>
<path style=" stroke:none;fill-rule:nonzero;fill:rgb(100%,100%,100%);fill-opacity:1;" d="M 65.261719 16.746094 L 65.5 17.039062 L 65.742188 17.328125 L 66.097656 17.097656 L 65.75 17.238281 Z M 67.441406 16.613281 L 66.824219 17.332031 L 66.542969 17.144531 L 66.84375 17.398438 L 67.144531 17.003906 Z M 67.441406 16.613281 "/>
<path style=" stroke:none;fill-rule:nonzero;fill:rgb(100%,100%,100%);fill-opacity:1;" d="M 98.828125 24.46875 C 98.828125 24.757812 98.773438 25.039062 98.660156 25.308594 C 98.550781 25.578125 98.390625 25.816406 98.1875 26.019531 C 97.980469 26.226562 97.742188 26.386719 97.472656 26.496094 C 97.207031 26.609375 96.925781 26.664062 96.632812 26.664062 C 96.34375 26.664062 96.0625 26.609375 95.792969 26.496094 C 95.527344 26.386719 95.289062 26.226562 95.082031 26.019531 C 94.875 25.816406 94.71875 25.578125 94.605469 25.308594 C 94.496094 25.039062 94.441406 24.757812 94.441406 24.46875 C 94.441406 24.175781 94.496094 23.898438 94.605469 23.628906 C 94.71875 23.359375 94.875 23.121094 95.082031 22.914062 C 95.289062 22.707031 95.527344 22.550781 95.792969 22.4375 C 96.0625 22.328125 96.34375 22.273438 96.632812 22.273438 C 96.925781 22.273438 97.207031 22.328125 97.472656 22.4375 C 97.742188 22.550781 97.980469 22.707031 98.1875 22.914062 C 98.390625 23.121094 98.550781 23.359375 98.660156 23.628906 C 98.773438 23.898438 98.828125 24.175781 98.828125 24.46875 Z M 98.828125 24.46875 "/>
<g clip-path="url(#clip10)" clip-rule="nonzero">
<path style=" stroke:none;fill-rule:nonzero;fill:rgb(100%,100%,100%);fill-opacity:1;" d="M 99.957031 33.644531 C 99.726562 33.347656 99.371094 33.175781 98.992188 33.175781 L 95.414062 33.195312 C 95.421875 32.117188 95.625 30.996094 95.816406 30.035156 L 94.253906 29.585938 C 93.722656 29.429688 93.414062 28.871094 93.566406 28.339844 C 93.691406 27.910156 94.089844 27.613281 94.53125 27.613281 C 94.625 27.613281 94.71875 27.625 94.8125 27.652344 L 96.03125 28.003906 C 95.90625 27.433594 95.574219 26.957031 95.070312 26.832031 C 94.238281 26.625 93.03125 27.078125 92.542969 28.507812 C 91.878906 30.476562 91.734375 31.757812 91.988281 33.925781 C 92.292969 35.5 93.367188 35.660156 94.261719 35.648438 C 94.363281 35.648438 94.457031 35.644531 94.542969 35.640625 L 97.433594 35.625 L 96.476562 39.417969 C 96.3125 40.070312 96.707031 40.734375 97.359375 40.902344 C 97.460938 40.925781 97.558594 40.9375 97.660156 40.9375 C 98.203125 40.9375 98.699219 40.570312 98.839844 40.015625 L 100.179688 34.695312 C 100.273438 34.328125 100.191406 33.941406 99.957031 33.644531 Z M 99.957031 33.644531 "/>
</g>
<path style=" stroke:none;fill-rule:nonzero;fill:rgb(100%,100%,100%);fill-opacity:1;" d="M 93.785156 28.402344 C 93.664062 28.816406 93.902344 29.25 94.316406 29.367188 L 101.269531 31.371094 C 101.34375 31.394531 101.414062 31.402344 101.488281 31.402344 C 101.824219 31.402344 102.136719 31.179688 102.234375 30.839844 C 102.355469 30.425781 102.117188 29.992188 101.703125 29.871094 L 94.75 27.867188 C 94.335938 27.75 93.902344 27.988281 93.785156 28.402344 Z M 93.785156 28.402344 "/>
<path style=" stroke:none;fill-rule:nonzero;fill:rgb(100%,100%,100%);fill-opacity:1;" d="M 95.992188 36.769531 C 95.992188 36.554688 95.816406 36.378906 95.601562 36.378906 L 91.722656 36.378906 L 90.132812 29.113281 C 90.085938 28.902344 89.878906 28.765625 89.667969 28.8125 C 89.457031 28.859375 89.324219 29.066406 89.371094 29.277344 L 91.027344 36.847656 C 91.066406 37.027344 91.226562 37.160156 91.410156 37.160156 L 95.601562 37.160156 C 95.816406 37.160156 95.992188 36.984375 95.992188 36.769531 Z M 95.992188 36.769531 "/>
<g clip-path="url(#clip11)" clip-rule="nonzero">
<path style=" stroke:none;fill-rule:nonzero;fill:rgb(100%,100%,100%);fill-opacity:1;" d="M 110.53125 40.9375 C 110.628906 40.9375 110.730469 40.925781 110.828125 40.898438 C 111.480469 40.734375 111.878906 40.070312 111.714844 39.417969 L 110.757812 35.625 L 113.644531 35.640625 C 113.734375 35.644531 113.828125 35.648438 113.925781 35.648438 C 114.820312 35.660156 115.898438 35.5 116.203125 33.925781 C 116.453125 31.757812 116.3125 30.476562 115.648438 28.507812 C 115.15625 27.078125 113.949219 26.625 113.117188 26.832031 C 112.285156 27.042969 111.917969 28.203125 112.199219 29.175781 C 112.238281 29.378906 112.285156 29.597656 112.328125 29.824219 L 112.679688 28.378906 C 112.789062 27.929688 113.191406 27.613281 113.65625 27.613281 C 113.734375 27.613281 113.816406 27.621094 113.894531 27.640625 C 114.15625 27.703125 114.375 27.867188 114.515625 28.09375 C 114.652344 28.324219 114.695312 28.59375 114.632812 28.855469 L 113.757812 32.453125 C 113.671875 32.8125 113.398438 33.09375 113.042969 33.1875 L 109.664062 34.097656 C 109.578125 34.121094 109.488281 34.132812 109.402344 34.132812 C 108.964844 34.132812 108.578125 33.847656 108.445312 33.433594 C 108.367188 33.492188 108.292969 33.5625 108.230469 33.644531 C 107.996094 33.941406 107.914062 34.328125 108.007812 34.695312 L 109.347656 40.015625 C 109.488281 40.570312 109.984375 40.9375 110.53125 40.9375 Z M 110.53125 40.9375 "/>
</g>
<g clip-path="url(#clip12)" clip-rule="nonzero">
<path style=" stroke:none;fill-rule:nonzero;fill:rgb(100%,100%,100%);fill-opacity:1;" d="M 117.160156 36.847656 L 118.820312 29.277344 C 118.867188 29.066406 118.734375 28.855469 118.523438 28.8125 C 118.3125 28.765625 118.105469 28.902344 118.058594 29.113281 L 116.46875 36.378906 L 112.585938 36.378906 C 112.371094 36.378906 112.195312 36.554688 112.195312 36.769531 C 112.195312 36.984375 112.371094 37.160156 112.585938 37.160156 L 116.78125 37.160156 C 116.964844 37.160156 117.121094 37.027344 117.160156 36.847656 Z M 117.160156 36.847656 "/>
</g>
<path style=" stroke:none;fill-rule:nonzero;fill:rgb(100%,100%,100%);fill-opacity:1;" d="M 109.140625 32.15625 L 110.554688 31.777344 L 110.554688 31.691406 L 97.683594 31.691406 L 97.683594 32.667969 L 108.488281 32.667969 C 108.5 32.667969 108.515625 32.632812 108.53125 32.605469 C 108.664062 32.371094 108.878906 32.226562 109.140625 32.15625 Z M 109.140625 32.15625 "/>
<path style=" stroke:none;fill-rule:nonzero;fill:rgb(100%,100%,100%);fill-opacity:1;" d="M 102.597656 26.40625 L 102.03125 26.546875 L 103.234375 31.207031 L 107.824219 31.207031 L 107.824219 30.621094 L 103.6875 30.621094 Z M 102.597656 26.40625 "/>
<path style=" stroke:none;fill-rule:nonzero;fill:rgb(100%,100%,100%);fill-opacity:1;" d="M 100.90625 21.625 C 101.5625 22.121094 102.378906 22.414062 103.265625 22.414062 C 105.425781 22.414062 107.179688 20.660156 107.179688 18.496094 C 107.179688 16.332031 105.425781 14.578125 103.265625 14.578125 C 101.101562 14.578125 99.351562 16.332031 99.351562 18.496094 C 99.351562 19.464844 99.699219 20.347656 100.28125 21.03125 L 99.246094 22.890625 Z M 99.785156 18.648438 C 99.785156 16.800781 101.28125 15.304688 103.125 15.304688 C 104.96875 15.304688 106.464844 16.800781 106.464844 18.648438 C 106.464844 20.492188 104.96875 21.988281 103.125 21.988281 C 101.28125 21.988281 99.785156 20.492188 99.785156 18.648438 Z M 99.785156 18.648438 "/>
<g clip-path="url(#clip13)" clip-rule="nonzero">
<path style=" stroke:none;fill-rule:nonzero;fill:rgb(100%,100%,100%);fill-opacity:1;" d="M 92.425781 19.003906 C 93.253906 19.5 94.191406 19.652344 95.074219 19.503906 L 96.140625 21.347656 L 95.90625 19.273438 C 96.667969 18.964844 97.339844 18.414062 97.792969 17.652344 C 98.902344 15.796875 98.300781 13.390625 96.445312 12.277344 C 94.589844 11.167969 92.1875 11.769531 91.074219 13.628906 C 89.964844 15.484375 90.570312 17.890625 92.425781 19.003906 Z M 91.625 14.121094 C 92.574219 12.539062 94.625 12.023438 96.207031 12.96875 C 97.789062 13.917969 98.304688 15.96875 97.355469 17.554688 C 96.410156 19.136719 94.359375 19.652344 92.777344 18.707031 C 91.195312 17.757812 90.679688 15.707031 91.625 14.121094 Z M 91.625 14.121094 "/>
</g>
<g clip-path="url(#clip14)" clip-rule="nonzero">
<path style=" stroke:none;fill-rule:nonzero;fill:rgb(100%,100%,100%);fill-opacity:1;" d="M 89.082031 25.355469 C 89.980469 25 90.671875 24.347656 91.09375 23.554688 L 93.203125 23.828125 L 91.414062 22.753906 C 91.632812 21.960938 91.605469 21.09375 91.277344 20.269531 C 90.480469 18.257812 88.203125 17.273438 86.195312 18.070312 C 84.183594 18.871094 83.203125 21.148438 84 23.160156 C 84.796875 25.171875 87.074219 26.152344 89.082031 25.355469 Z M 84.726562 23.023438 C 84.046875 21.304688 84.882812 19.363281 86.597656 18.683594 C 88.3125 18 90.253906 18.839844 90.933594 20.554688 C 91.613281 22.273438 90.777344 24.214844 89.0625 24.894531 C 87.347656 25.578125 85.40625 24.738281 84.726562 23.023438 Z M 84.726562 23.023438 "/>
</g>
<path style=" stroke:none;fill-rule:nonzero;fill:rgb(100%,100%,100%);fill-opacity:1;" d="M 87.816406 23.90625 L 87.878906 23.476562 C 87.980469 23.472656 88.082031 23.460938 88.1875 23.441406 L 88.347656 23.84375 L 88.890625 23.625 L 88.730469 23.222656 C 88.820312 23.167969 88.902344 23.109375 88.976562 23.039062 L 89.316406 23.308594 L 89.679688 22.847656 L 89.339844 22.582031 C 89.390625 22.488281 89.433594 22.394531 89.464844 22.296875 L 89.890625 22.359375 L 89.976562 21.78125 L 89.546875 21.71875 C 89.546875 21.613281 89.535156 21.511719 89.511719 21.410156 L 89.914062 21.25 L 89.699219 20.707031 L 89.296875 20.867188 C 89.242188 20.777344 89.179688 20.695312 89.113281 20.617188 L 89.382812 20.277344 L 88.921875 19.914062 L 88.65625 20.253906 C 88.5625 20.203125 88.46875 20.164062 88.371094 20.132812 L 88.433594 19.703125 L 87.855469 19.617188 L 87.792969 20.046875 C 87.6875 20.050781 87.585938 20.0625 87.484375 20.082031 L 87.324219 19.679688 L 86.78125 19.894531 L 86.941406 20.296875 C 86.851562 20.351562 86.769531 20.414062 86.695312 20.484375 L 86.355469 20.214844 L 85.992188 20.671875 L 86.328125 20.941406 C 86.28125 21.03125 86.238281 21.128906 86.207031 21.226562 L 85.78125 21.164062 L 85.695312 21.742188 L 86.121094 21.804688 C 86.125 21.90625 86.136719 22.011719 86.160156 22.113281 L 85.757812 22.273438 L 85.972656 22.816406 L 86.375 22.65625 C 86.429688 22.746094 86.492188 22.828125 86.558594 22.90625 L 86.289062 23.246094 L 86.75 23.609375 L 87.015625 23.269531 C 87.109375 23.316406 87.203125 23.359375 87.300781 23.390625 L 87.238281 23.820312 Z M 86.667969 22.226562 C 86.414062 21.578125 86.726562 20.847656 87.371094 20.59375 C 88.015625 20.335938 88.746094 20.652344 89.003906 21.296875 C 89.257812 21.941406 88.941406 22.671875 88.296875 22.929688 C 87.652344 23.1875 86.925781 22.871094 86.667969 22.226562 Z M 86.667969 22.226562 "/>
<path style=" stroke:none;fill-rule:nonzero;fill:rgb(100%,100%,100%);fill-opacity:1;" d="M 88.351562 21.554688 C 88.40625 21.699219 88.40625 21.839844 88.34375 21.980469 C 88.285156 22.121094 88.183594 22.222656 88.039062 22.277344 C 87.898438 22.332031 87.757812 22.332031 87.617188 22.269531 C 87.476562 22.210938 87.375 22.109375 87.320312 21.964844 C 87.261719 21.824219 87.265625 21.683594 87.328125 21.542969 C 87.386719 21.402344 87.488281 21.300781 87.632812 21.246094 C 87.773438 21.1875 87.914062 21.191406 88.054688 21.25 C 88.195312 21.3125 88.292969 21.414062 88.351562 21.554688 Z M 88.351562 21.554688 "/>
<path style=" stroke:none;fill-rule:nonzero;fill:rgb(100%,100%,100%);fill-opacity:1;" d="M 113.75 24.46875 C 113.75 24.757812 113.695312 25.039062 113.582031 25.308594 C 113.472656 25.578125 113.3125 25.816406 113.105469 26.019531 C 112.902344 26.226562 112.664062 26.386719 112.394531 26.496094 C 112.125 26.609375 111.847656 26.664062 111.554688 26.664062 C 111.265625 26.664062 110.984375 26.609375 110.714844 26.496094 C 110.445312 26.386719 110.210938 26.226562 110.003906 26.019531 C 109.796875 25.816406 109.640625 25.578125 109.527344 25.308594 C 109.417969 25.039062 109.359375 24.757812 109.359375 24.46875 C 109.359375 24.175781 109.417969 23.898438 109.527344 23.628906 C 109.640625 23.359375 109.796875 23.121094 110.003906 22.914062 C 110.210938 22.707031 110.445312 22.550781 110.714844 22.4375 C 110.984375 22.328125 111.265625 22.273438 111.554688 22.273438 C 111.847656 22.273438 112.125 22.328125 112.394531 22.4375 C 112.664062 22.550781 112.902344 22.707031 113.105469 22.914062 C 113.3125 23.121094 113.472656 23.359375 113.582031 23.628906 C 113.695312 23.898438 113.75 24.175781 113.75 24.46875 Z M 113.75 24.46875 "/>
<path style=" stroke:none;fill-rule:nonzero;fill:rgb(100%,100%,100%);fill-opacity:1;" d="M 102.21875 19.101562 L 101.992188 19.101562 L 102.050781 20.371094 L 102.210938 20.371094 C 102.257812 20.273438 102.269531 20.210938 102.355469 20.210938 C 102.480469 20.210938 102.625 20.273438 102.871094 20.3125 L 102.792969 20.820312 L 103.058594 20.851562 L 103.136719 20.335938 C 103.183594 20.34375 103.230469 20.34375 103.28125 20.34375 C 104.140625 20.34375 104.609375 19.867188 104.609375 19.226562 C 104.609375 18.507812 104.042969 18.328125 103.464844 18.183594 L 103.628906 17.101562 C 103.894531 17.175781 104.078125 17.34375 104.21875 17.832031 L 104.429688 17.832031 L 104.390625 16.757812 L 104.246094 16.757812 C 104.207031 16.855469 104.175781 16.875 104.097656 16.875 C 104.003906 16.875 103.867188 16.828125 103.671875 16.78125 L 103.75 16.277344 L 103.488281 16.25 L 103.410156 16.757812 C 103.367188 16.753906 103.328125 16.753906 103.28125 16.753906 C 102.464844 16.753906 102.070312 17.242188 102.070312 17.796875 C 102.070312 18.40625 102.441406 18.640625 103.097656 18.789062 L 102.917969 19.988281 C 102.511719 19.882812 102.367188 19.589844 102.21875 19.101562 Z M 104.101562 19.453125 C 104.101562 19.832031 103.804688 20.078125 103.269531 20.078125 L 103.183594 20.078125 L 103.359375 18.875 C 103.886719 19.003906 104.101562 19.09375 104.101562 19.453125 Z M 102.589844 17.585938 C 102.589844 17.25 102.871094 17.050781 103.269531 17.050781 L 103.367188 17.050781 L 103.203125 18.125 C 102.800781 18.015625 102.589844 17.910156 102.589844 17.585938 Z M 102.589844 17.585938 "/>
<path style=" stroke:none;fill-rule:nonzero;fill:rgb(100%,100%,100%);fill-opacity:1;" d="M 94.449219 17.925781 C 95.632812 17.925781 96.59375 16.964844 96.59375 15.78125 C 96.59375 15.453125 96.519531 15.144531 96.390625 14.867188 L 94.519531 15.910156 C 94.5 15.921875 94.476562 15.925781 94.449219 15.925781 C 94.425781 15.925781 94.402344 15.921875 94.382812 15.910156 C 94.339844 15.886719 94.308594 15.84375 94.304688 15.796875 L 94.078125 13.667969 C 93.070312 13.84375 92.308594 14.722656 92.308594 15.78125 C 92.308594 16.964844 93.265625 17.925781 94.449219 17.925781 Z M 94.449219 17.925781 "/>
<path style=" stroke:none;fill-rule:nonzero;fill:rgb(100%,100%,100%);fill-opacity:1;" d="M 94.574219 15.546875 L 96.246094 14.613281 C 95.863281 14.023438 95.203125 13.636719 94.449219 13.636719 C 94.421875 13.636719 94.394531 13.636719 94.371094 13.636719 Z M 94.574219 15.546875 "/>
<path style=" stroke:none;fill-rule:nonzero;fill:rgb(100%,100%,100%);fill-opacity:1;" d="M 109.402344 33.910156 C 109.46875 33.910156 109.535156 33.902344 109.605469 33.882812 L 112.984375 32.972656 C 113.261719 32.898438 113.472656 32.679688 113.539062 32.402344 L 114.414062 28.804688 C 114.515625 28.382812 114.257812 27.960938 113.839844 27.859375 C 113.421875 27.757812 113 28.015625 112.898438 28.433594 L 112.132812 31.582031 L 109.199219 32.375 C 108.78125 32.484375 108.535156 32.914062 108.648438 33.332031 C 108.742188 33.679688 109.058594 33.910156 109.402344 33.910156 Z M 109.402344 33.910156 "/>
<path style=" stroke:none;fill-rule:nonzero;fill:rgb(100%,100%,100%);fill-opacity:1;" d="M 152.035156 26.300781 L 152.011719 26.265625 C 151.820312 26.011719 151.554688 26.058594 151.480469 26.078125 C 151.402344 26.097656 151.148438 26.1875 151.101562 26.503906 L 150.820312 28.492188 C 150.816406 28.519531 150.800781 28.542969 150.792969 28.566406 C 151.308594 27.878906 151.726562 27.117188 152.035156 26.300781 Z M 152.035156 26.300781 "/>
<path style=" stroke:none;fill-rule:nonzero;fill:rgb(100%,100%,100%);fill-opacity:1;" d="M 150.316406 28.929688 C 150.292969 28.929688 150.269531 28.929688 150.246094 28.925781 L 147.230469 28.492188 C 146.953125 28.449219 146.757812 28.191406 146.800781 27.910156 L 147.082031 25.921875 C 147.125 25.609375 146.90625 25.449219 146.835938 25.410156 C 146.769531 25.367188 146.527344 25.25 146.273438 25.441406 L 144.679688 26.644531 C 144.453125 26.816406 144.136719 26.769531 143.96875 26.542969 L 142.140625 24.089844 C 141.972656 23.863281 142.015625 23.542969 142.242188 23.371094 L 143.835938 22.167969 C 144.089844 21.976562 144.042969 21.707031 144.023438 21.628906 C 144.003906 21.554688 143.917969 21.296875 143.605469 21.25 L 141.628906 20.96875 C 141.496094 20.949219 141.375 20.875 141.296875 20.765625 C 141.214844 20.660156 141.179688 20.523438 141.199219 20.386719 L 141.628906 17.347656 C 141.667969 17.070312 141.925781 16.875 142.203125 16.914062 L 144.179688 17.199219 C 144.488281 17.242188 144.648438 17.023438 144.6875 16.953125 C 144.730469 16.886719 144.847656 16.640625 144.65625 16.386719 L 143.460938 14.777344 C 143.378906 14.667969 143.34375 14.535156 143.363281 14.398438 C 143.382812 14.265625 143.453125 14.144531 143.5625 14.0625 L 143.851562 13.84375 C 143.390625 13.828125 142.925781 13.832031 142.453125 13.882812 C 138.207031 14.355469 134.796875 17.851562 134.398438 22.136719 C 134.058594 25.761719 135.800781 29 138.5625 30.789062 C 139.402344 31.332031 139.9375 32.238281 139.9375 33.242188 L 139.9375 35.3125 C 139.9375 36.160156 140.621094 36.847656 141.460938 36.847656 L 145.523438 36.847656 C 146.363281 36.847656 147.046875 36.160156 147.046875 35.3125 L 147.046875 33.285156 C 147.046875 32.257812 147.59375 31.328125 148.453125 30.769531 C 149.253906 30.246094 149.96875 29.597656 150.570312 28.855469 C 150.492188 28.902344 150.40625 28.929688 150.316406 28.929688 Z M 144 35.3125 L 142.984375 35.3125 L 142.984375 33.777344 L 144 33.777344 Z M 142.984375 32.753906 C 142.984375 31.402344 142.167969 30.203125 140.902344 29.703125 C 138.15625 28.621094 136.382812 26.003906 136.382812 23.035156 C 136.382812 20.5625 137.625 18.296875 139.703125 16.972656 L 140.246094 17.839844 C 138.464844 18.972656 137.398438 20.914062 137.398438 23.035156 C 137.398438 25.578125 138.917969 27.824219 141.273438 28.753906 C 142.929688 29.40625 144 30.976562 144 32.753906 Z M 142.984375 32.753906 "/>
<g clip-path="url(#clip15)" clip-rule="nonzero">
<path style=" stroke:none;fill-rule:nonzero;fill:rgb(100%,100%,100%);fill-opacity:1;" d="M 142.476562 40.9375 L 144.507812 40.9375 C 145.066406 40.9375 145.523438 40.480469 145.523438 39.914062 L 145.523438 39.402344 L 141.460938 39.402344 L 141.460938 39.914062 C 141.460938 40.480469 141.917969 40.9375 142.476562 40.9375 Z M 142.476562 40.9375 "/>
</g>
<path style=" stroke:none;fill-rule:nonzero;fill:rgb(100%,100%,100%);fill-opacity:1;" d="M 131.679688 29.171875 C 131.679688 27.609375 132.847656 26.316406 134.347656 26.128906 C 134.164062 25.566406 134.03125 24.988281 133.945312 24.394531 L 133.859375 24.820312 C 133.789062 25.15625 133.558594 25.433594 133.242188 25.558594 C 132.925781 25.6875 132.570312 25.648438 132.289062 25.453125 L 131.234375 24.71875 L 130.308594 25.652344 L 131.035156 26.714844 C 131.230469 26.996094 131.269531 27.355469 131.144531 27.675781 C 131.015625 27.992188 130.742188 28.226562 130.40625 28.296875 L 129.144531 28.5625 L 129.144531 29.78125 L 130.410156 30.046875 C 130.742188 30.117188 131.015625 30.351562 131.144531 30.667969 C 131.269531 30.988281 131.230469 31.347656 131.035156 31.628906 L 130.308594 32.691406 L 131.234375 33.625 L 132.289062 32.890625 C 132.570312 32.695312 132.925781 32.65625 133.242188 32.785156 C 133.558594 32.910156 133.789062 33.1875 133.859375 33.523438 L 134.125 34.800781 L 135.332031 34.800781 L 135.597656 33.523438 C 135.667969 33.1875 135.898438 32.914062 136.214844 32.785156 C 136.53125 32.65625 136.886719 32.699219 137.167969 32.894531 L 138.222656 33.625 L 139.308594 32.527344 C 139.136719 32.003906 138.785156 31.539062 138.289062 31.21875 C 137.984375 31.023438 137.695312 30.804688 137.417969 30.578125 C 136.902344 31.574219 135.875 32.242188 134.726562 32.242188 C 133.046875 32.242188 131.679688 30.867188 131.679688 29.171875 Z M 131.679688 29.171875 "/>
<path style=" stroke:none;fill-rule:nonzero;fill:rgb(100%,100%,100%);fill-opacity:1;" d="M 141.460938 37.359375 L 145.523438 37.359375 L 145.523438 38.378906 L 141.460938 38.378906 Z M 141.460938 37.359375 "/>
<g clip-path="url(#clip16)" clip-rule="nonzero">
<path style=" stroke:none;fill-rule:nonzero;fill:rgb(100%,100%,100%);fill-opacity:1;" d="M 156.167969 19.960938 C 155.546875 19.871094 155.066406 19.433594 154.910156 18.820312 C 154.753906 18.207031 154.96875 17.59375 155.472656 17.210938 L 156.660156 16.3125 L 155.441406 14.675781 L 154.253906 15.574219 C 153.75 15.953125 153.101562 15.992188 152.5625 15.667969 C 152.023438 15.34375 151.742188 14.757812 151.832031 14.128906 L 152.042969 12.648438 L 150.03125 12.359375 L 149.820312 13.839844 C 149.730469 14.46875 149.300781 14.953125 148.691406 15.109375 C 148.082031 15.269531 147.472656 15.050781 147.09375 14.542969 L 146.203125 13.347656 L 144.578125 14.574219 L 145.46875 15.773438 C 145.847656 16.277344 145.882812 16.929688 145.5625 17.476562 C 145.242188 18.019531 144.660156 18.300781 144.035156 18.210938 L 142.5625 18 L 142.277344 20.027344 L 143.75 20.238281 C 144.371094 20.328125 144.851562 20.761719 145.007812 21.375 C 145.164062 21.988281 144.949219 22.605469 144.445312 22.984375 L 143.257812 23.886719 L 144.476562 25.519531 L 145.664062 24.621094 C 146.167969 24.242188 146.816406 24.207031 147.355469 24.53125 C 147.894531 24.851562 148.175781 25.441406 148.085938 26.066406 L 147.875 27.550781 L 149.886719 27.839844 L 150.097656 26.355469 C 150.1875 25.730469 150.617188 25.242188 151.226562 25.085938 C 151.835938 24.929688 152.445312 25.144531 152.824219 25.652344 L 153.714844 26.851562 L 155.339844 25.625 L 154.449219 24.425781 C 154.070312 23.917969 154.035156 23.265625 154.355469 22.722656 C 154.675781 22.179688 155.253906 21.894531 155.882812 21.984375 L 157.355469 22.195312 L 157.640625 20.171875 Z M 149.957031 23.167969 C 148.277344 23.167969 146.914062 21.792969 146.914062 20.097656 C 146.914062 18.40625 148.277344 17.03125 149.957031 17.03125 C 151.636719 17.03125 153.003906 18.40625 153.003906 20.097656 C 153.003906 21.792969 151.636719 23.167969 149.957031 23.167969 Z M 149.957031 23.167969 "/>
</g>
<path style=" stroke:none;fill-rule:nonzero;fill:rgb(100%,100%,100%);fill-opacity:1;" d="M 153.140625 30.195312 L 156.691406 30.195312 L 156.691406 31.21875 L 153.140625 31.21875 Z M 153.140625 30.195312 "/>
<path style=" stroke:none;fill-rule:nonzero;fill:rgb(100%,100%,100%);fill-opacity:1;" d="M 152.304688 33.65625 L 152.957031 32.871094 L 156.003906 35.429688 L 155.351562 36.214844 Z M 152.304688 33.65625 "/>
<path style=" stroke:none;fill-rule:nonzero;fill:rgb(100%,100%,100%);fill-opacity:1;" d="M 150.09375 34.289062 L 151.109375 34.289062 L 151.109375 37.871094 L 150.09375 37.871094 Z M 150.09375 34.289062 "/>
<g clip-path="url(#clip17)" clip-rule="nonzero">
<path style=" stroke:none;fill-rule:nonzero;fill:rgb(100%,100%,100%);fill-opacity:1;" d="M 128.644531 19.980469 L 132.707031 18.957031 L 132.953125 19.949219 L 128.890625 20.972656 Z M 128.644531 19.980469 "/>
</g>
<path style=" stroke:none;fill-rule:nonzero;fill:rgb(100%,100%,100%);fill-opacity:1;" d="M 129.488281 14.753906 L 130.078125 13.921875 L 133.632812 16.480469 L 133.042969 17.3125 Z M 129.488281 14.753906 "/>
<g clip-path="url(#clip18)" clip-rule="nonzero">
<path style=" stroke:none;fill-rule:nonzero;fill:rgb(100%,100%,100%);fill-opacity:1;" d="M 133.839844 11.394531 L 134.824219 11.140625 L 135.859375 15.234375 L 134.878906 15.484375 Z M 133.839844 11.394531 "/>
</g>
</g>
</svg>
