<svg xmlns="http://www.w3.org/2000/svg" viewBox="0 0 750 500"><defs><style>.cls-1{fill:#fafafa;}.cls-2,.cls-3,.cls-4{fill:#d7e8ff;}.cls-20,.cls-21,.cls-3,.cls-4{stroke:#fff;}.cls-13,.cls-19,.cls-22,.cls-23,.cls-3,.cls-6{stroke-linecap:round;stroke-linejoin:round;}.cls-3{stroke-width:2.96px;}.cls-20,.cls-21,.cls-4{stroke-miterlimit:10;}.cls-4{stroke-width:0.9px;}.cls-5{fill:#6c47d4;}.cls-13,.cls-19,.cls-20,.cls-21,.cls-22,.cls-23,.cls-6{fill:none;}.cls-13,.cls-19,.cls-22,.cls-23,.cls-6{stroke:#20181f;}.cls-6{stroke-width:1.05px;}.cls-7{fill:#fff;}.cls-8{fill:#f9a9a3;}.cls-9{fill:#4d2e3c;}.cls-10{fill:#e88585;}.cls-11{fill:#fca0a0;}.cls-12{fill:#20181f;}.cls-13{stroke-width:1.23px;}.cls-14{fill:#f4eded;}.cls-15{fill:#ee75ae;}.cls-16{fill:#4684e6;}.cls-17{fill:#ed908e;}.cls-18{fill:#f7de9e;}.cls-19{stroke-width:1.18px;}.cls-20{stroke-width:1.34px;}.cls-21{stroke-width:1.32px;}.cls-22{stroke-width:1.25px;}.cls-23{stroke-width:1.2px;}</style></defs><g id="BACKGROUND"><rect class="cls-1" width="750" height="500"/></g><g id="OBJECTS"><path class="cls-2" d="M113.23,293.32S192.56,477,475,396s142.66-262,14.86-204.25-238.37-26.24-238.37-26.24-74.89-48.79-130,13.57C121.56,179.1,81.37,219.57,113.23,293.32Z" transform="translate(-0.22)"/><path class="cls-2" d="M282.15,116.25S272.8,171,374.68,174.93,523,103.59,489.74,83c-29.1-18.06-67.48,8.93-108.49-5.73C328.59,58.43,282,82.83,282.15,116.25Z" transform="translate(-0.22)"/><path class="cls-3" d="M675.54,199.53A7.52,7.52,0,1,1,668,191.9,7.57,7.57,0,0,1,675.54,199.53Z" transform="translate(-0.22)"/><path class="cls-3" d="M68.44,265.31a7.76,7.76,0,1,1-7.76-7.87A7.82,7.82,0,0,1,68.44,265.31Z" transform="translate(-0.22)"/><line class="cls-3" x1="589.06" y1="152.2" x2="626.28" y2="152.2"/><line class="cls-3" x1="96.11" y1="328.7" x2="164.83" y2="328.7"/><path class="cls-2" d="M190.15,97.74H106.66a3.57,3.57,0,0,1-3.57-3.57h0a3.56,3.56,0,0,1,3.57-3.56h83.49a3.56,3.56,0,0,1,3.56,3.56h0A3.56,3.56,0,0,1,190.15,97.74Z" transform="translate(-0.22)"/><path class="cls-2" d="M663,357.27H626.12a3.56,3.56,0,0,1-3.57-3.56h0a3.57,3.57,0,0,1,3.57-3.57H663a3.56,3.56,0,0,1,3.56,3.57h0A3.56,3.56,0,0,1,663,357.27Z" transform="translate(-0.22)"/><rect class="cls-2" x="379.51" y="34.56" width="11.04" height="10.69" rx="2.69"/><rect class="cls-2" x="85.13" y="370.27" width="11.04" height="10.69" rx="2.69"/><rect class="cls-2" x="541.84" y="87.55" width="76.64" height="24.24" rx="2.31"/><line class="cls-4" x1="552.91" y1="95.87" x2="602.79" y2="95.87"/><line class="cls-4" x1="552.91" y1="102.37" x2="575.12" y2="102.37"/><polygon class="cls-2" points="550.69 109.15 550.69 118.25 562.13 109.15 550.69 109.15"/><path class="cls-5" d="M489.13,356.28l9.79,69.87H534c-2.52-45.15-7.11-117-12.22-147.52l-25.28,44.2Z" transform="translate(-0.22)"/><path class="cls-5" d="M457.3,279.67c-8.66,39-16.86,104-21.71,146.48h39.25l15.34-69.87,6.29-33.45,25.28-44.2Z" transform="translate(-0.22)"/><polyline class="cls-6" points="489.46 358.95 495.58 320.98 505.12 314.68"/><path class="cls-7" d="M470.19,199.77a14.86,14.86,0,0,0-20-3l-62.48,37.84a16,16,0,0,0-4.53,21.77h0c5,7.89,11.27,9.51,18.75,3.91,6.62-5,64.94-35.47,69.73-39.08C478.39,216.17,475.42,206.31,470.19,199.77Z" transform="translate(-0.22)"/><path class="cls-7" d="M448.12,294.37l-44.54-55a13.33,13.33,0,0,0-19.27-.49h0c-5.45,5.43-4.06,16,1.7,21.06l51,44.06Z" transform="translate(-0.22)"/><path class="cls-8" d="M474.69,298.29l-13.21-7.35,1.43-2.91a2.61,2.61,0,0,0-3.86-3.29L446,294l-8.93,10c7,6.5,11.8,6.6,14.58,5.5.32.12.63.25.95.35l11.07,3.63a2.15,2.15,0,0,0,2.79-.89c.39-.72.57-1.89-1.55-3.06l2.12,1.17a2.2,2.2,0,0,0,2.91-1c.52-.94,0-2.22-1.26-3.09l1.63.71a2.27,2.27,0,0,0,3.09-1.22,2.36,2.36,0,0,0-1.12-2.88L469.9,302l2.8.79a2.45,2.45,0,0,0,3.23-1.48A2.55,2.55,0,0,0,474.69,298.29Z" transform="translate(-0.22)"/><path class="cls-7" d="M510.65,199.69c4.2-6.05,11.7-7.34,17.23-3l53.83,38c6.14,4.86,7.85,14.49,3.86,21.77h0c-4.32,7.88-9.75,9.49-16.19,3.87-5.7-5-56-35.6-60.09-39.22C503.53,216.07,506.11,206.21,510.65,199.69Z" transform="translate(-0.22)"/><path class="cls-7" d="M529.47,294.33,568,239.47c4.42-5.62,12-5.82,16.63-.45h0c4.69,5.44,3.46,16-1.52,21.06L539,304Z" transform="translate(-0.22)"/><path class="cls-8" d="M506.53,298.19,518,290.87,516.72,288a2.91,2.91,0,0,1,.53-3.11,2,2,0,0,1,2.81-.17L531.34,294,539,304c-6.09,6.48-10.2,6.57-12.6,5.46-.27.12-.54.25-.82.35l-9.56,3.61a1.72,1.72,0,0,1-2.4-.9c-.34-.72-.49-1.88,1.34-3.05l-1.83,1.17a1.81,1.81,0,0,1-2.52-1,2.72,2.72,0,0,1,1.1-3.08l-1.41.71a1.88,1.88,0,0,1-2.67-1.23,2.55,2.55,0,0,1,1-2.88l2-1.28-2.42.78a2.06,2.06,0,0,1-2.79-1.49A2.74,2.74,0,0,1,506.53,298.19Z" transform="translate(-0.22)"/><path class="cls-7" d="M454.14,194.88s15.58-6.2,39.06-6.2S530.66,199,530.66,199l-8.91,79.65-64.45,1-10.65-57.28Z" transform="translate(-0.22)"/><line class="cls-6" x1="526.67" y1="232.71" x2="528.11" y2="219.78"/><path class="cls-9" d="M466.3,147.82s-14.74-22.52,3-25.11c10.6-1.55,13.66-4.87,26.63-9.41,15-5.25,35.63,11.53,13.38,28.17l-34.76-7.56Z" transform="translate(-0.22)"/><circle class="cls-10" cx="505.6" cy="152.74" r="8.08" transform="translate(39.86 402.25) rotate(-45)"/><path class="cls-11" d="M497.77,162.73l.4,27.77c.06,7.8-5.29,8.39-13,8.39h0c-6.56,0-9.89-2.37-10.71-8.88l1.09-29.52Z" transform="translate(-0.22)"/><polygon class="cls-12" points="497.92 187.63 479.68 174.53 497.67 169.37 497.92 187.63"/><path class="cls-11" d="M489.42,176.86H491a18.91,18.91,0,0,0,18.9-19.53l-.64-19.41a19.72,19.72,0,0,0-19.71-19.07h0c-10.89,0-21.62,8.83-21.62,19.72l.93,18.72A20.6,20.6,0,0,0,489.42,176.86Z" transform="translate(-0.22)"/><polyline class="cls-13" points="498.52 150.98 499.82 158.35 497.23 158.35"/><path class="cls-12" d="M488.57,142.35s4.36-.51,4.46,1.31c0,0,0,1.22-3.77,1.6s-4.81.12-5.2-1S486.52,142.43,488.57,142.35Z" transform="translate(-0.22)"/><path class="cls-12" d="M505.27,142.25s-3.62-.25-3.86,1.46c0,0-.13,1.16,3,1.31s4.19-.28,4.46-1.23S507,142.22,505.27,142.25Z" transform="translate(-0.22)"/><path class="cls-7" d="M500.5,161.74H488.29s0,4.27,7.06,4.28A4.9,4.9,0,0,0,500.5,161.74Z" transform="translate(-0.22)"/><path class="cls-13" d="M492.34,151a4.8,4.8,0,0,0-5,0" transform="translate(-0.22)"/><path class="cls-13" d="M507,151s-1.44-1.56-4.32,0" transform="translate(-0.22)"/><path class="cls-9" d="M471.44,152.82s12.42-7.9,8-19c0,0,20.12-9.71,29.37.41l2.48-12.93-15.89-6.42-24.89,9.81-6.42,9.59,2.16,12.38Z" transform="translate(-0.22)"/><circle class="cls-11" cx="466.31" cy="152.74" r="8.08" transform="translate(145.76 524.45) rotate(-67.38)"/><path class="cls-13" d="M469.14,155.15s0-5.86-5.61-4.94" transform="translate(-0.22)"/><polygon class="cls-5" points="479.29 199.44 485.76 205.43 492.95 197.21 485.76 196.08 479.29 199.44"/><polygon class="cls-5" points="484.47 204.2 477.39 263.21 485.96 272.93 493.72 263.09 486.84 203.96 484.47 204.2"/><polygon class="cls-14" points="474.37 187.28 485.76 196.08 478.15 205.43 466.94 191.28 474.37 187.28"/><polygon class="cls-14" points="497.92 187.63 485.76 196.08 493.37 205.43 504.94 191.28 497.92 187.63"/><path class="cls-7" d="M259,204.7a10.62,10.62,0,0,1,20.76-4.46c1,4.16,1.7,11.5,2.37,19.3l-21.86,6.67Z" transform="translate(-0.22)"/><path class="cls-8" d="M260.3,226.21l21.86-6.67,2.89,30.1a10.27,10.27,0,0,1-9,11.06l-.2,0h0a11.44,11.44,0,0,1-13-9.18Z" transform="translate(-0.22)"/><path class="cls-8" d="M292.63,334.27,284.12,240s-4,.95-9.35,1.8h0A9.53,9.53,0,0,0,267,253.27l14,81.2Z" transform="translate(-0.22)"/><path class="cls-8" d="M278,332.69a11.43,11.43,0,1,1,6.45,14.81A11.42,11.42,0,0,1,278,332.69Z" transform="translate(-0.22)"/><path class="cls-8" d="M295,345.61s3.05,3.32,5.66-2.07,2.53-12.28-7.82-17.31Z" transform="translate(-0.22)"/><path class="cls-15" d="M223.66,142l44.93,10.19s16.7,23.67,8.06,57.52H202.17s-6.08-13.63,7.38-32.5c8.27-11.59,14.11-35.21,14.11-35.21" transform="translate(-0.22)"/><path class="cls-16" d="M249.45,370.74l11.31,55.41h38.83c-2.24-18.29-5.58-42.16-10.53-71.72C275.89,275.87,267.5,257,267.5,257l-29.24-5.25L235,256.45l25.29.79Z" transform="translate(-0.22)"/><path class="cls-16" d="M235,256.45l-11.28-.35s-19.26,20.54-20.27,58.56c-.67,25.36,0,74.53.73,111.49h39.93l5.31-55.41,10.87-113.5Z" transform="translate(-0.22)"/><line class="cls-6" x1="249.23" y1="370.74" x2="254.37" y2="295.75"/><line class="cls-6" x1="254.37" y1="295.75" x2="263.46" y2="288.6"/><path class="cls-7" d="M245.78,189.79,218,193.67a5.74,5.74,0,0,0-4.85,6.69L222.75,257H267.5l11.67-54.39a8.53,8.53,0,0,0-7.48-10Z" transform="translate(-0.22)"/><line class="cls-6" x1="274.85" y1="221.71" x2="278.09" y2="207.65"/><path class="cls-8" d="M193.82,203.51l10.1,27.94S172.7,242,165.83,246.14c-7.73,4.73-13.66,2.59-17.75-5.51h0A15.53,15.53,0,0,1,154.45,220Z" transform="translate(-0.22)"/><path class="cls-7" d="M213.34,195.33a14.43,14.43,0,0,1,19,4.73c4.46,6.8,6.42,16.61-.51,20.87-5,3-27.93,10.52-27.93,10.52l-10.1-27.94Z" transform="translate(-0.22)"/><line class="cls-6" x1="216.93" y1="226.93" x2="226.82" y2="222.89"/><path class="cls-8" d="M207.31,283.34l-38-57.22a13,13,0,0,0-18.59-2.25h0c-5.76,4.75-5.39,15.06-.29,20.52l45.25,47.29Z" transform="translate(-0.22)"/><path class="cls-8" d="M232.63,289.57l-12.09-8.32,1.65-2.68a2.54,2.54,0,0,0-3.43-3.53l-13.51,7.78-9.56,8.86c6.21,6.93,10.79,7.47,13.59,6.65.29.15.58.3.88.43l10.37,4.53a2.08,2.08,0,0,0,2.78-.61c.44-.65.72-1.77-1.22-3.1l1.94,1.33a2.15,2.15,0,0,0,2.91-.67c.58-.86.18-2.14-.94-3.1l1.51.84a2.22,2.22,0,0,0,3.11-.9,2.3,2.3,0,0,0-.82-2.89l-2.14-1.46,2.63,1a2.4,2.4,0,0,0,3.27-1.13A2.49,2.49,0,0,0,232.63,289.57Z" transform="translate(-0.22)"/><path class="cls-17" d="M262,152.81a7.87,7.87,0,1,0,8.4-7.3A7.88,7.88,0,0,0,262,152.81Z" transform="translate(-0.22)"/><path class="cls-15" d="M250.17,124.1c1-1.75-.29-5-.29-5-9.85,0-18.35,3.16-23.24,12.16-7.2,13.24-2,33.72,15,39.95,16.26,6,7.6-45.42,7.6-45.42Z" transform="translate(-0.22)"/><path class="cls-8" d="M259.45,174.46l-1.09,17.12c-.37,6-4.27,9-10.19,8.6h0c-5-.36-9.62-3.29-9.89-8.35l3-26.87Z" transform="translate(-0.22)"/><polygon class="cls-12" points="258.49 188.73 238.46 169.13 259.38 172.7 258.49 188.73"/><path class="cls-8" d="M254.24,177.22h0c10.12,0,18.48-7.93,18.78-16.2l.59-19.5a19.2,19.2,0,0,0-17.86-19.86h0c-7.77-.54-21.88,11-22.35,17.7l-.31,15.69C232.85,167.18,242.13,176.38,254.24,177.22Z" transform="translate(-0.22)"/><path class="cls-18" d="M249.84,119.11l.14,0Z" transform="translate(-0.22)"/><path class="cls-15" d="M273.22,136.86c.42-10.17-8.5-16.54-15.18-18.17a30.32,30.32,0,0,0-16.81.65c-6.47,2.17-13.46,7-8.69,17.59-3.12,1.54-5.9,3.3-5.9,3.3l11.64,13.94s.84-3.84,2.06-12c6.07-2.4,5.84-5.95,6.47-9.77A103.38,103.38,0,0,0,273.22,136.86Z" transform="translate(-0.22)"/><path class="cls-8" d="M223.64,152.81a7.88,7.88,0,1,0,8.41-7.3A7.89,7.89,0,0,0,223.64,152.81Z" transform="translate(-0.22)"/><path class="cls-19" d="M234.08,155.89s.4-5.7-5.11-5.18" transform="translate(-0.22)"/><polyline class="cls-19" points="261.8 154.02 262.42 159.16 259.75 159.26"/><path class="cls-12" d="M250.31,143.44s4.54-.38,4.59,1.47c0,0,0,1.25-4,1.5s-5,0-5.35-1.22S248.18,143.45,250.31,143.44Z" transform="translate(-0.22)"/><path class="cls-12" d="M268.6,143.93s-3.75-.38-4.06,1.35c0,0-.17,1.18,3.11,1.44s4.35-.15,4.66-1.1S270.38,144,268.6,143.93Z" transform="translate(-0.22)"/><path class="cls-12" d="M250,151.31a1.71,1.71,0,1,0,3.41.12,1.71,1.71,0,1,0-3.41-.12Z" transform="translate(-0.22)"/><path class="cls-12" d="M265.75,151.31a1.71,1.71,0,1,0,3.41.12,1.71,1.71,0,1,0-3.41-.12Z" transform="translate(-0.22)"/><path class="cls-19" d="M261.42,163.82s-5.65,1.58-8.59-2.52" transform="translate(-0.22)"/><line class="cls-20" x1="262.84" y1="150.35" x2="259.04" y2="150.35"/><line class="cls-20" x1="243.24" y1="150.35" x2="238.46" y2="150.35"/><circle class="cls-20" cx="251.31" cy="150.2" r="7.85" transform="translate(-28.08 61.98) rotate(-13.33)"/><circle class="cls-21" cx="270.41" cy="149.73" r="7.38" transform="translate(-26.89 235.07) rotate(-45)"/><path class="cls-9" d="M396.63,283.52l-69.16,2.87c-7.35,29.09-11.21,94.19-13.09,139.76h45.17L367.14,367l10.24,59.14h42.31C412.21,375.24,400.47,297.43,396.63,283.52Z" transform="translate(-0.22)"/><polyline class="cls-6" points="366.92 367.01 372.59 323.4 386.09 316.93"/><path class="cls-5" d="M306.58,197.09s31.48-11.63,59.29-12.57c0,0,14.8-.94,39.92,5.76a1.92,1.92,0,0,1,1.41,2.07l-10.57,91.17-69.46,2.87Z" transform="translate(-0.22)"/><polygon class="cls-5" points="337.76 280.57 409.82 249.09 363.85 241.97 336.75 252.35 337.76 280.57"/><path class="cls-5" d="M296.38,218.9c3.81,16.32,19.64,52,19.64,52a16.85,16.85,0,0,0,22,9.71h0a16.84,16.84,0,0,0,9.54-21.64L327.8,207a16.8,16.8,0,0,0-22.95-9.19h0C297,201.56,294.4,210.4,296.38,218.9Z" transform="translate(-0.22)"/><line class="cls-6" x1="337.32" y1="232.64" x2="328.62" y2="209.72"/><path class="cls-5" d="M389.48,218.38C399.5,231.81,426.2,254,426.2,254a16.84,16.84,0,0,0,24,.11h0c6.49-6.53,6.54-15,.1-21.58L413.52,194.9a16.8,16.8,0,0,0-24.71.75h0C383.1,202.25,384.26,211.38,389.48,218.38Z" transform="translate(-0.22)"/><path class="cls-11" d="M401.76,228.2s1.58-8.56,14.15-11.6L429.34,226l-4.76,4.21Z" transform="translate(-0.22)"/><polygon class="cls-11" points="353.85 226.03 337.32 232.64 343.78 249.66 352.77 246.21 353.85 226.03"/><polygon class="cls-5" points="353.85 226.03 445.36 231.49 439.75 259.02 352.77 246.21 353.85 226.03"/><polyline class="cls-6" points="353.85 226.03 401.54 228.2 404.84 205.01"/><polyline class="cls-6" points="353.85 273.54 399.73 253.47 352.77 246.21"/><path class="cls-9" d="M351.43,113.39c-4.78.32-20.95,4.13-15.54,20.11,6.55,19.33,9.78,21.8,9.78,21.8l-.54-28.75Z" transform="translate(-0.22)"/><path class="cls-9" d="M383,114.76s18.89,5.53,5,26.32l-19.18-21.67Z" transform="translate(-0.22)"/><path class="cls-10" d="M377.35,147.61a8.07,8.07,0,0,0,7.77,8.32,8,8,0,0,0,8-8,8.08,8.08,0,0,0-7.77-8.32A8,8,0,0,0,377.35,147.61Z" transform="translate(-0.22)"/><path class="cls-11" d="M375.72,164.28l1.07,21.23c.38,7.17-3.75,10.4-10.59,10.67h0c-5.84.23-12.39-2.28-12.45-8.61l-.11-32.2Z" transform="translate(-0.22)"/><path class="cls-12" d="M376.67,182.19,352,166.14c-.71-6.08,23.7-4,23.7-4Z" transform="translate(-0.22)"/><path class="cls-11" d="M368.54,173h0c11.11-.54,19.83-10,19.68-19.43l-.41-19.63c-.18-11.77-9.37-21.29-20.76-21.53h0c-11.67-.24-23.33,9.28-23.53,21.32L344,149C344.47,162.79,355.19,172.71,368.54,173Z" transform="translate(-0.22)"/><path class="cls-12" d="M364.47,133.62s6-1.2,6.24.55c0,0,.13,1.19-3.48,1.82s-6.46.86-6.91-.22S362.52,133.85,364.47,133.62Z" transform="translate(-0.22)"/><path class="cls-12" d="M381.81,136s5.3.15,5.14,1.91c0,0,.68,1.19-3,1s-5.47-.54-5.67-1.69S379.86,135.74,381.81,136Z" transform="translate(-0.22)"/><path class="cls-22" d="M367.42,155.34c0,.32,3.29,3.19,7.85,1.79" transform="translate(-0.22)"/><path class="cls-12" d="M381,144.24a1.83,1.83,0,1,0,1.79-1.87A1.82,1.82,0,0,0,381,144.24Z" transform="translate(-0.22)"/><path class="cls-12" d="M363.83,145.19a1.82,1.82,0,0,0,1.71,1.94,1.83,1.83,0,1,0-1.71-1.94Z" transform="translate(-0.22)"/><path class="cls-22" d="M376.34,146.82l2.54,4.48a.75.75,0,0,1-.14,1l-1.57.86" transform="translate(-0.22)"/><path class="cls-9" d="M349.28,147.7s-3.48-16.16,4-24.36c0,0,31,9.38,35.75-3.21,6.79-17.87-12.82-23.24-24-17.9a36.32,36.32,0,0,0-13.59,11.16s-21.12,4.58-9.68,27.84Z" transform="translate(-0.22)"/><path class="cls-11" d="M333.79,149.14a8,8,0,0,0,7.69,8.24,7.92,7.92,0,0,0,8-7.91,8,8,0,0,0-7.69-8.24A7.92,7.92,0,0,0,333.79,149.14Z" transform="translate(-0.22)"/><path class="cls-22" d="M344.25,151.3s-.73-5.27-5.34-5.05" transform="translate(-0.22)"/><path class="cls-11" d="M354.06,185.48l-8.26,1.24s10,8.28,29.42,14l6.68-15.27L370.37,184Z" transform="translate(-0.22)"/><line class="cls-23" x1="113" y1="426.15" x2="629.36" y2="426.15"/></g></svg>