<svg id="Layer_1" data-name="Layer 1" xmlns="http://www.w3.org/2000/svg" viewBox="0 0 952.9 424.01"><defs><style>.cls-1{fill:#fff;}</style></defs><path class="cls-1" d="M313.7,22.1c-.9.6-64.1.8-147.6.7-118.2-.2-146.2-.1-146.6,1-.2.7-.5,94.8-.5,209.1,0,173.6.2,208,1.3,209,1,.8,41.5,1.1,149.7,1.1,81.6,0,148.5-.2,148.7-.4.9-.9.5-42.8-.4-43.7-.6-.6-47.6-1-124.9-1.2l-123.9-.2-.3-161.4c-.1-88.8.2-161.9.6-162.3s56.2-1,123.8-1.1,123.6-.5,124.4-1,1.4-1.9,1.3-4c-.1-1.7-.2-12.7-.2-24.3-.1-19.8-.2-21.2-2-21.7A6.54,6.54,0,0,0,313.7,22.1Z" transform="translate(-19 -21.62)"/><path class="cls-1" d="M411.9,24.9a5,5,0,0,1,3.2,2.6c.7,1.9.8,1.9.8-.1.1-2.2-1.7-3.5-4.7-3.3C410.2,24.2,410.5,24.5,411.9,24.9Z" transform="translate(-19 -21.62)"/><path class="cls-1" d="M348.6,28.4a13.15,13.15,0,0,0,3,5.7c1.3,1.4,2.4,2.8,2.4,3.2,0,.7,18.7,33.6,20.2,35.4.5.7,2.5,1,4.6.8s5.1-.4,6.8-.4c3-.1,3.7-.9,10.8-12.8,4.2-7,7.6-13.6,7.6-14.5a3.26,3.26,0,0,1,1.3-2.5c2.1-1.3,8.7-12.8,8.7-15.2,0-1.6-.6-2.1-2.7-2.1-1.6,0-5.6-.2-9-.4a47.67,47.67,0,0,0-9.8.4c-1.9.4-3.7.5-4,.1s-1.8-.6-3.5-.3c-3.5.5-4.9,3.7-3,7.2,1,1.8,1.8,2.1,5.7,1.7,7.4-.6,8.7,2.3,3.6,7.8-1.1,1.1-3.1,4.6-4.6,7.8-3.5,7.4-6.3,7.8-9.4,1.4C374,44.8,363.9,27,362.9,26.5c-.4-.3-4-.7-7.8-.8l-7.1-.3Z" transform="translate(-19 -21.62)"/><path class="cls-1" d="M486,25.2c-.1.2-.2,5.6-.2,12s-.5,11.5-.9,11.3-.6.6-.6,2,.3,2.3.7,2,1.6.5,2.8,1.5c1.8,1.7,3.4,2,9.9,1.8l7.8-.2L498,55c-7-.6-6.8-.7,4.6-.8,8.2-.1,12.4.2,13.2,1s1.2.9,1.2-.1c0-1.6,21.7-1.2,22.9.4,2,2.5,2.2,5.7.5,7.6-1.4,1.6-3.1,1.9-10.1,1.9-5.4,0-8.2-.4-7.8-1s-2.8-1-8.9-1c-5.7,0-9.6.4-9.6,1s-2.7,1-6,1-6-.4-6-.9c0-1.4-4.9-.8-5.5.7-.3.7-.9,1.1-1.4.8-1.1-.7-.2,3.4,1,5,.5.6.7,1.3.4,1.6-.8.7,1.2.9,11.5,1.2l9.5.3L499,73c-5.3-.4,2.3-.6,20-.7,16.7,0,26.9.3,24.5.8-3.5.7-3.2.7,1.8.4,4.2-.3,5.5,0,5,.8-.3.7.2.4,1.3-.5,1.8-1.6,2-2.9,1.8-13.3-.2-6.4-.7-12.2-1.3-12.9a1.73,1.73,0,0,1-.3-2.1c.4-.5.1-.5-.7,0s-12.1.8-25.3.9c-18.1.1-24.4-.2-25.8-1.1-2.1-1.5-3.4-6.3-2.5-9.2.6-1.9,1.6-1.9,27.9-1.8,15.1.1,27.2-.1,27-.5s0-.9.6-1.3,1-.1,1,.5.5.8,1.1.4c.8-.4.7-.9-.2-1.4a4.18,4.18,0,0,1-1.4-2.7c-.3-4.3-.6-4.3-25.8-4.1-16.9.1-21.5.4-15.2.8,8,.6,7.3.6-6,.7-8.7,0-13.7-.3-12-.7,2.5-.6,2-.8-2.7-.9C488.6,25.1,486,25.1,486,25.2Zm49.3,1.5a35.28,35.28,0,0,1-6.5,0c-1.8-.2-.4-.4,3.2-.4S537,26.5,535.3,26.7Zm10,0a7.56,7.56,0,0,1-3,0c-1-.3-.4-.5,1.2-.5S545.9,26.4,545.3,26.7Zm-29.5,38a30,30,0,0,1-6,0c-1.8-.2-.6-.4,2.7-.4S517.3,64.5,515.8,64.7Z" transform="translate(-19 -21.62)"/><path class="cls-1" d="M624.4,26.3c-1.9,1.1-2.1,1.9-1.8,13.5.2,6.7.6,12.7.9,13.2s.1,1-.4,1a1.11,1.11,0,0,1-1.1-1.1c0-.5-.5-.7-1-.4-1.9,1.2.2,2.6,3,2,1.5-.3,3.1-.2,3.4.3s2.3.8,4.3.5a58.88,58.88,0,0,1,6.8-.5c4.8.1,31.7,0,34.5-.2a6.13,6.13,0,0,1,3.8,1.1c1.5,1.4,1.6,5.9.1,6.9-.6.3-12.7.7-27,.8-26.8.1-28.4.4-28.4,4.3,0,1,1.1,2.8,2.4,4.1,2,2,2.7,2.2,4.8,1.3a19.75,19.75,0,0,1,7.1-.9l4.7.1-5,.7c-2.9.4,4.6.8,17.8.8,15.6.2,23.3-.2,24.6-.9a5.69,5.69,0,0,1,4.7-.4,12.79,12.79,0,0,0,4.3.6c.8-.1,1,.2.5,1s-.3,1,.7.4c2.6-1.5,4.9-3.8,4.9-4.9,0-.7-.3-.7-.8.1-.4.6-.6-4.2-.5-10.8.2-13.6-.4-15-6.5-14.7l-3.7.1,3.5.4c3.7.5,6,1.9,6,3.6,0,.6-.6.3-1.2-.6-1.1-1.4-4.5-1.6-26.6-1.8-18.9-.2-25.5-.6-26.3-1.5-1.5-1.8-1.8-8.2-.5-9.3.6-.5,12.8-.8,27-.7,22.4.2,26.2,0,27.6-1.3s1.4-2.1.4-4.6l-1.2-3-31.9-.2C635.5,25.2,625.9,25.5,624.4,26.3Z" transform="translate(-19 -21.62)"/><path class="cls-1" d="M766.2,25.9a13.7,13.7,0,0,1-.2,1.6c-.1.5-.2,9.3-.2,19.5-.1,16.7-.2,17.5-.8,8l-.7-10.5.1,12.5c.1,6.9.5,13.1.9,13.7.6,1,8.1,1.3,31.8,1.3,17.1,0,30.8.4,30.5.8-.6,1,3.5.9,5.2-.1a3.92,3.92,0,0,0,1.1-3c-.1-2.1-.1-2.1-.8.2-.4,1.4-1.2,2.6-1.9,2.7s-.8,0-.2-.3c1.4-.6,1.4-43.9,0-44.8-.6-.4-.8-.9-.6-1.3s-1.8-.5-4.6-.3-5.1.8-5.4,1.5c-.8,2.2-1,29.7-.2,30.2,1.5.9.8,5.3-.9,6.2-1.4.7-38.4,1-41.5.3-.4,0-.6-1.3-.6-2.9.2-11.6-.4-32.9-1-33.8C775.5,26.2,766,24.8,766.2,25.9Z" transform="translate(-19 -21.62)"/><path class="cls-1" d="M905.8,26a2.75,2.75,0,0,1-2.5,1.2c-1.4.2-1.9.7-1.5,1.7.3.8.1,1.2-.5.8s-1,0-1,.8.3,1.3.5,1,1,.2,1.6,1c.8,1.1,4,1.5,13.4,1.7,8.6.1,12.6.6,13.4,1.5s.8,6.6.4,17.9c-.4,9.2-.8,17.2-.9,17.8s1.5.9,3.8.9c3.8-.2,3.8-.1,1,.7s-2.8.8,1.3.9c3,.1,4.1-.2,3.6-1.1-.5-.7-.1-.9,1.3-.6,1.1.3,2,0,2-.6a24.64,24.64,0,0,1,.7-4.1c.5-2.2.4-2.6-.4-1.5s-1-2.5-1-12c0-7.4-.3-14.5-.6-15.7-.9-3.4,2-4.1,17.2-4.5l13.9-.3.2-2.5.2-2.5L971,31c-.8,2.3-.9,2.2-.7-1,.1-2.8-.1-3.4-1.6-3.2-.9.2-1.7-.2-1.7-.8,0-.8-3.4-1-11.2-.6-6.2.3-18,.7-26.3.9l-15,.3L929,26l14.5-.6-18.7-.2C912.6,25.1,906,25.4,905.8,26Zm50,.7a30,30,0,0,1-6,0c-1.8-.2-.6-.4,2.7-.4S957.3,26.5,955.8,26.7Z" transform="translate(-19 -21.62)"/><path class="cls-1" d="M484.2,31c0,1.9.2,2.7.5,1.7a10.28,10.28,0,0,0,0-3.5C484.4,28.3,484.2,29.1,484.2,31Z" transform="translate(-19 -21.62)"/><path class="cls-1" d="M833.3,31.5c0,2.2.2,3,.4,1.7a13.39,13.39,0,0,0,0-4C833.4,28.3,833.2,29.3,833.3,31.5Z" transform="translate(-19 -21.62)"/><path class="cls-1" d="M764.2,34.5c0,1.6.2,2.2.5,1.2a7.56,7.56,0,0,0,0-3C764.4,32.1,764.2,32.8,764.2,34.5Z" transform="translate(-19 -21.62)"/><path class="cls-1" d="M928.3,45c0,2.5.2,3.5.4,2.2a17,17,0,0,0,0-4.5C928.5,41.5,928.3,42.5,928.3,45Z" transform="translate(-19 -21.62)"/><path class="cls-1" d="M942.4,51.5c0,6,.1,8.4.3,5.2a100.87,100.87,0,0,0,0-11C942.5,42.8,942.4,45.4,942.4,51.5Z" transform="translate(-19 -21.62)"/><path class="cls-1" d="M508.3,44.7a10.28,10.28,0,0,0,3.5,0c.9-.3.1-.5-1.8-.5S507.3,44.4,508.3,44.7Z" transform="translate(-19 -21.62)"/><path class="cls-1" d="M526.3,44.7a7.56,7.56,0,0,0,3,0c.6-.3-.1-.5-1.8-.5S525.3,44.4,526.3,44.7Z" transform="translate(-19 -21.62)"/><path class="cls-1" d="M539.8,44.7a35.28,35.28,0,0,0,6.5,0c1.7-.2.3-.4-3.3-.4S538,44.5,539.8,44.7Z" transform="translate(-19 -21.62)"/><path class="cls-1" d="M502.8,45.7a5.28,5.28,0,0,0,2.5,0c.6-.3.1-.5-1.3-.5S502.1,45.4,502.8,45.7Z" transform="translate(-19 -21.62)"/><path class="cls-1" d="M516.8,45.7a5.28,5.28,0,0,0,2.5,0c.6-.3.1-.5-1.3-.5S516.1,45.4,516.8,45.7Z" transform="translate(-19 -21.62)"/><path class="cls-1" d="M553.6,48.5c.8,3.7,1.4,4.5,1.4,1.9a7.91,7.91,0,0,0-1-3.4C553.2,45.9,553.1,46.3,553.6,48.5Z" transform="translate(-19 -21.62)"/><path class="cls-1" d="M763.1,69.1c-.1,1.7,2.9,4.9,4.5,4.9.5,0,.1-.5-.9-1.1a7.74,7.74,0,0,1-2.7-3.2Q763.1,67.45,763.1,69.1Z" transform="translate(-19 -21.62)"/><path class="cls-1" d="M515.8,73.7a83.37,83.37,0,0,0,10,0c2.6-.2.2-.3-5.3-.3S512.9,73.5,515.8,73.7Z" transform="translate(-19 -21.62)"/><path class="cls-1" d="M787.3,73.7c5.9.2,15.4.2,21,0s.8-.3-10.8-.3S781.4,73.6,787.3,73.7Z" transform="translate(-19 -21.62)"/><path class="cls-1" d="M152.1,148l-3.4.5.1,19.5c.1,10.7.2,20.7.2,22.2v2.7l61.6.1c33.9,0,62,.2,62.4.5s.9,19.8.9,43.4c.1,33.3-.2,43.1-1.1,43.9-1.4,1.1-116.7,1.2-120.3.1a2.85,2.85,0,0,0-3,.5c-.6.6-1,10.2-1,24.2,0,14.2.4,23.5,1,24,1.6,1.4,8.8,1.6,85,1.6s81.8-.1,83.5-1.8c1.3-1.3,1.4-179.4.1-180.7-.9-.9-144.2-1-150.1-.1a31.57,31.57,0,0,1-8-.3A26.88,26.88,0,0,0,152.1,148Z" transform="translate(-19 -21.62)"/><path class="cls-1" d="M371.8,147.5a12,12,0,0,1-3.4.7l-2.9.2.2,89.5c.2,49.3.5,90.1.7,90.7.9,2.3,13.8,2.7,84.6,2.7,74.7,0,83.3-.2,84.9-1.8.6-.6.6-3.1,0-6.5-1-5.7-.5-31.8.6-36.3.5-1.9.1-3.1-1.5-4.7-2-2-2.6-2.1-6.1-1.1-3.8,1.2-108.4,1.6-114,.4-3.8-.7-4.5-2.9-3.9-13.1l.5-9.4,60.5.2c33.3.2,62,.3,63.9.4l3.4.1-.1-23.2c0-12.8-.3-23.7-.6-24.2s-2.1-.5-4.3,0c-4.2,1-119.2,1.2-121.7.3-1.3-.5-1.6-2.4-1.6-10V193h61.4c48.1,0,61.7-.3,62.3-1.3.4-.6.8-9.8.8-20.2s.4-19.8.8-20.7c.7-1.3.3-1.8-1.5-2.3-2.9-.7,5.1-.6-84.7-.6-42.1,0-76.8-.2-77.1-.4A1.05,1.05,0,0,0,371.8,147.5ZM539,258a1.1,1.1,0,0,1-1.1,1c-.5,0-.7-.5-.4-1s.8-1,1.1-1S539,257.4,539,258Z" transform="translate(-19 -21.62)"/><path class="cls-1" d="M577.5,148.7c-.2.7-.4,41.5-.5,90.7,0,81.6.2,89.5,1.7,90.7,1.3,1.2,15.8,1.4,82.2,1.4,44.3,0,82.3-.4,84.4-.8l3.7-.8V305.5c0-18.9-.3-24.5-1.2-24.5-.7-.1-28.6,0-62,0-41.7.1-60.8-.2-61.3-1-.3-.6-.6-30.2-.5-65.9,0-51.1-.2-65.1-1.2-65.7-.7-.4-11-.8-23-.8C583.3,147.5,577.9,147.8,577.5,148.7Z" transform="translate(-19 -21.62)"/><path class="cls-1" d="M786.4,149a4.54,4.54,0,0,0-.6,2.2c.1.4.2,40.8.2,89.7v89l4.8.8c2.6.4,39.8.8,82.7.8,72.7,0,78.3-.1,80.8-1.7l2.6-1.8.3-22.5c.2-12.4-.1-22.5-.5-22.5s-.6-.4-.3-.8c.6-1-1-1.2-9.4-.9-12.3.4-109.5,0-112-.5l-2.5-.5-.2-66.3c-.1-36.4-.5-66.5-.9-66.9s-.4,0,.1.8c.6,1,.4,1.2-.5.6s-11-.9-22.7-.9C790.3,147.5,786.9,147.7,786.4,149Z" transform="translate(-19 -21.62)"/><path class="cls-1" d="M472.5,211l-60,.5,59.5.2c32.7.1,60.4-.2,61.5-.7s1.3-.8.5-.7S505.5,210.7,472.5,211Z" transform="translate(-19 -21.62)"/><path class="cls-1" d="M493.4,396.1c-.4.7-2.2.9-4.3.6l-3.6-.4.2,23.5c.2,13,.7,24,1.2,24.5a4,4,0,0,0,3.2.4c2.2-.4,2.2-.4-.3-.6-1.5,0-3-.6-3.4-1.3s-.3-.8.3-.5c1.4.9,65.6,1.3,67.1.4a3.25,3.25,0,0,0,1.1-2.5c0-1.2-.3-1.1-.9.5-1.5,3.7-1.8,2.6-.8-2.2a43.13,43.13,0,0,0,.4-10.3c-.3-3.1-.6-6.4-.7-7.2s.2-5.1.6-9.5c.5-5.7.3-8.9-.6-11a12,12,0,0,1-1.1-3.6c0-.3-1.3-.3-3-.1-2.1.3-2.9.1-2.4-.7.9-1.4.7-1.4-3-.1l-2.9,1,.2,18.3c.1,11.6-.3,18.7-1,19.5-1.5,1.8-39.3,1.4-40.9-.5-.6-.7-.7-1.3-.2-1.3s.3-.4-.5-.9a2.13,2.13,0,0,1-.7-2.7c.4-1.1.7-8.4.6-16.4-.1-12.8-.3-14.6-2-16.2C494.7,395.6,493.9,395.4,493.4,396.1Z" transform="translate(-19 -21.62)"/><path class="cls-1" d="M685.8,395.5c-.3.3-14,.6-30.5.7-27.1.1-30.1.2-32.1,1.8-2.2,1.8-3.1,4.7-1.1,3.4.7-.4.9,0,.5,1.4a2.44,2.44,0,0,0,.4,2.7c1.3.8,1.3,6.8-.1,8.2-.8.8-.8,2.2,0,4.9,1.4,5,1.4,9.4,0,9.4-.6,0-.9,2.4-.7,6.5.3,6,.5,6.6,3,7.7,1.5.7,2.2,1.5,1.7,1.9s.6,1,2.6,1.3c3.9.8,6.7-.6,5.9-2.9a1.64,1.64,0,0,1,.4-1.9c.5-.3.5-2.7-.1-5.8-.9-5.5.2-10.8,2.3-10.8.6,0,.8.5.5,1-.4.7,1.7.9,5.9.7,7.4-.4,8.2-.1,17.9,8.9,9.2,8.5,10.9,9.3,16.3,8.8,3.5-.3,4.5-.1,3.4.6s-.4,1,2.8,1,4.2-.4,4.2-1.7-.3-1.4-1.2-.5a3.83,3.83,0,0,1-2.1,1.2c-.5,0-.1-.7.8-1.7,1.6-1.5,1.3-1.8-3.7-4.9-2.9-1.8-5.7-3.6-6.3-4.1a11.32,11.32,0,0,0-2.7-1.6,3.26,3.26,0,0,1-1.8-3.2c0-1.4-.5-2.5-1.1-2.5s-.9.9-.6,2.1c.4,1.6.3,1.8-.9.8-3.3-2.7.4-5.1,7.5-4.8,1.9.1,1.5.4-1.4.9-2.5.5-.6.6,5.3.4,9.6-.3,11.2-.7,11.2-2.7,0-.6-.7-.2-1.5.9-1.3,1.7-1.3,1.6-.3-1.6,1.6-5.2,2.1-10,1.2-10-1.7,0-1.6-9,.1-10.6s1.1-3.9-.6-2.8c-.5.3-.8,0-.7-.8a.81.81,0,0,0-.9-1.1c-.7.2-1.3-.2-1.3-.7C688,394.9,686.7,394.7,685.8,395.5Zm-16.5,2.2a7.56,7.56,0,0,1-3,0c-1-.3-.4-.5,1.2-.5S669.9,397.4,669.3,397.7ZM640,404.9c0,.6,7.8.9,18.5.9,10.2,0,18.5.3,18.6.8a11.09,11.09,0,0,0,1,2.6c.6,1.1.5,1.9-.2,2.3a1.67,1.67,0,0,0-.5,2c1.1,3-1.8,3.5-20.3,3.3l-18.6-.2L656,416l17.5-.6H655.3c-9.9.1-17.9-.2-17.6-.7s-.1-.7-.7-.7-.8-.5-.5-1,.2-1-.3-1c-1.2,0-1-5.6.2-6.7.5-.5.6-.2.2.7s-.1.7.6-.3C638.6,403.9,640,403.4,640,404.9ZM634.5,444a3.47,3.47,0,0,1-2.8.9c-2-.1-2-.2.3-.9,1.4-.4,2.6-.8,2.8-.9S634.8,443.4,634.5,444Z" transform="translate(-19 -21.62)"/><path class="cls-1" d="M771.5,396c-.4.6-1.9,1-3.3.9-3-.4-5.2.7-5.2,2.4,0,.6.7.2,1.5-.9,1.3-1.7,1.4-1.6.5,1.3-.5,2-.5,3.5.1,3.8s.9,3.2.9,6.3c0,4.2-.3,5.3-1.1,4.2s-.9,2.2-.7,11.2c.2,6.9,0,12.4-.4,12.2-1-.6.2,2.5,2,5.3a4.47,4.47,0,0,0,3.6,2.2c1.9-.1,1.9-.2-.4-.9-1.4-.5,11.6-.8,29.3-.8,20.6.1,32.2-.3,32.8-.9s.9-4.3.7-8.6c-.2-4.8.1-7.3.7-6.9s.7.1.2-.3-3.6-.8-7-.8l-6.2.1V430c0,2.8-.5,4.4-1.7,5.1-2.6,1.4-38.8.5-39.8-1.1-.4-.7-.7-9-.6-18.6l.1-17.3-2.7-1.5Q772.1,395,771.5,396Zm-5.8,26.2c-.2,1.3-.4.5-.4-1.7s.1-3.2.4-2.3A13.39,13.39,0,0,1,765.7,422.2Zm0,10c-.2,1.3-.4.5-.4-1.7s.1-3.2.4-2.3A13.39,13.39,0,0,1,765.7,432.2Z" transform="translate(-19 -21.62)"/><path class="cls-1" d="M933.8,395.7a2,2,0,0,0,1.9-.1c.4-.3-.2-.6-1.3-.5S933,395.4,933.8,395.7Z" transform="translate(-19 -21.62)"/><path class="cls-1" d="M351.5,396.9c-3.7.6-4,.8-3.7,3.6.8,7.7,1,28.8.2,25.5-.6-2.6-.8-.9-.7,6,.2,7.5.6,9.9,2,11.5s2.1,1.8,3.8.7c2.6-1.7,53.6-1.5,58,.1,2.2.9,3.2.8,4.1-.1,1.1-1.1.9-1.2-.7-.7s-1.5.3.3-.6c1.9-1.1,2.2-1.7,1.6-5.3a40.65,40.65,0,0,1-.5-6.1c0-1.1.3-6.4.6-11.7.3-5.5.1-10.8-.5-12.4s-.7-3.1-.2-3.8.5-2.5.1-4.1l-.8-3-17.1-.2c-9.9-.1-18.4.3-20.1.9-2.2.8-3.4.7-4.2-.1C372.5,395.9,358.7,395.8,351.5,396.9Zm51.9,7.7c1.1,1,1.6,3.4,1.6,7,0,4.9-.2,5.5-2.6,6.4-3.1,1.2-17.9,1.1-21.1-.1s-5.5-.1-5.1,2.4c.4,2.9,4.9,3.7,18.1,3.1l10.7-.5v5.8c0,3.3-.5,6.4-1.2,7.1-1.7,1.7-41.9,1.7-43.6,0-1.5-1.5-1.6-9.2-.1-8.3.7.5,1-2.7.8-10.6l-.3-11.4,19.6-.5c10.8-.3,20-.8,20.4-1.3C401.6,402.8,401.6,402.8,403.4,404.6Zm12.3,11.6c-.3.8-.6.5-.6-.6s.2-1.7.5-1.3A2,2,0,0,1,415.7,416.2Z" transform="translate(-19 -21.62)"/><path class="cls-1" d="M383.7,415.7a40.89,40.89,0,0,0,7,0c2.1-.2.7-.4-3.2-.4S382,415.5,383.7,415.7Z" transform="translate(-19 -21.62)"/><path class="cls-1" d="M373.2,419.5c0,1.6.2,2.2.5,1.2a7.56,7.56,0,0,0,0-3C373.4,417.1,373.2,417.8,373.2,419.5Z" transform="translate(-19 -21.62)"/><path class="cls-1" d="M374.8,425.2a3.31,3.31,0,0,0,2.8.6c1.4-.3,1.2-.5-.9-1C374.8,424.5,374.2,424.6,374.8,425.2Z" transform="translate(-19 -21.62)"/><path class="cls-1" d="M928.3,398.2c-1.9,2.1-10,15.9-14.1,23.9a56.15,56.15,0,0,1-5,8.4,10.32,10.32,0,0,0-2.2,4.1,5.28,5.28,0,0,1-2,3.1c-2.5,2.2-2.8,7.5-.3,6.6.9-.4,1.4-.2,1,.3-.4.7,1.1.8,4.1.4,6.7-1,10.2-2.6,10.2-4.8,0-1,1.1-3.3,2.5-5.2s2.5-3.9,2.5-4.6a1.92,1.92,0,0,1,.8-1.6c1.1-.4,5.7-10.4,6.6-14.1.3-1.5,1.2-2.7,2-2.7,1.5,0,4.6,3.1,4.6,4.7,0,.5,1.8,3.8,4,7.2s4,6.9,4,7.9c0,1.5.2,1.5,1.1.2s1-1.1.7.5c-.3,1.8-1,2-5.9,1.7-7.2-.5-8.7,1.1-7,6.8l1.2,4,6.7-.1c5.5-.1,6-.3,3.2-.9-2.5-.5-1.3-.7,4.2-.6,4.3,0,7.2.4,6.5.8-1.8,1.2,8.1,1,10.3-.2s1.8-3.2-1-6.5a58.92,58.92,0,0,1-5-8c-5.4-10-17.3-29.9-18.7-31.5C941.3,395.8,930.4,395.9,928.3,398.2Z" transform="translate(-19 -21.62)"/><path class="cls-1" d="M554.1,399.6c0,1.1.3,1.4.6.6a2,2,0,0,0-.1-1.9C554.3,397.9,554,398.5,554.1,399.6Z" transform="translate(-19 -21.62)"/><path class="cls-1" d="M347.3,413c0,3,.2,4.3.4,2.7a25.28,25.28,0,0,0,0-5.5C347.5,408.7,347.3,410,347.3,413Z" transform="translate(-19 -21.62)"/><path class="cls-1" d="M554.1,417.6c0,1.1.3,1.4.6.6a2,2,0,0,0-.1-1.9C554.3,415.9,554,416.5,554.1,417.6Z" transform="translate(-19 -21.62)"/><path class="cls-1" d="M833.1,429.6c0,1.1.3,1.4.6.6a2,2,0,0,0-.1-1.9C833.3,427.9,833,428.5,833.1,429.6Z" transform="translate(-19 -21.62)"/><path class="cls-1" d="M832.2,442c-.9,1.4-2.4,2-5.5,2.1s-3.5.3-1.3.6c3.9.6,7.3-.4,8-2.3C834.3,440,833.6,439.8,832.2,442Z" transform="translate(-19 -21.62)"/><path class="cls-1" d="M362.3,444.7a47,47,0,0,0,7.5,0c2-.2.3-.4-3.8-.4S360.2,444.5,362.3,444.7Z" transform="translate(-19 -21.62)"/><path class="cls-1" d="M382.8,444.7c3.9.2,10.5.2,14.5,0s.7-.3-7.3-.3S378.8,444.6,382.8,444.7Z" transform="translate(-19 -21.62)"/><path class="cls-1" d="M505.3,444.7c3.7.2,9.6.2,13,0s.4-.3-6.8-.3S501.6,444.5,505.3,444.7Z" transform="translate(-19 -21.62)"/><path class="cls-1" d="M547.8,444.7a5.28,5.28,0,0,0,2.5,0c.6-.3.1-.5-1.3-.5S547.1,444.4,547.8,444.7Z" transform="translate(-19 -21.62)"/><path class="cls-1" d="M783.2,444.7c4.8.2,12.9.2,18,0s1.2-.3-8.7-.3S778.4,444.6,783.2,444.7Z" transform="translate(-19 -21.62)"/></svg>