<svg xmlns="http://www.w3.org/2000/svg" xmlns:xlink="http://www.w3.org/1999/xlink" viewBox="0 0 2184.66 622.95"><defs><style>.cls-1{opacity:0.2;}.cls-10,.cls-11,.cls-12,.cls-13,.cls-14,.cls-15,.cls-16,.cls-17,.cls-18,.cls-19,.cls-2,.cls-20,.cls-21,.cls-22,.cls-23,.cls-24,.cls-25,.cls-26,.cls-27,.cls-28,.cls-29,.cls-3,.cls-30,.cls-31,.cls-32,.cls-33,.cls-34,.cls-35,.cls-36,.cls-4,.cls-5,.cls-6,.cls-7,.cls-8,.cls-9{fill:none;stroke-linecap:round;stroke-linejoin:round;stroke-width:3px;stroke-dasharray:0 4;}.cls-2{stroke:url(#linear-gradient);}.cls-3{stroke:url(#linear-gradient-2);}.cls-4{stroke:url(#linear-gradient-3);}.cls-5{stroke:url(#linear-gradient-4);}.cls-6{stroke:url(#linear-gradient-5);}.cls-7{stroke:url(#linear-gradient-6);}.cls-8{stroke:url(#linear-gradient-7);}.cls-9{stroke:url(#linear-gradient-8);}.cls-10{stroke:url(#linear-gradient-9);}.cls-11{stroke:url(#linear-gradient-10);}.cls-12{stroke:url(#linear-gradient-11);}.cls-13{stroke:url(#linear-gradient-12);}.cls-14{stroke:url(#linear-gradient-13);}.cls-15{stroke:url(#linear-gradient-14);}.cls-16{stroke:url(#linear-gradient-15);}.cls-17{stroke:url(#linear-gradient-16);}.cls-18{stroke:url(#linear-gradient-17);}.cls-19{stroke:url(#linear-gradient-18);}.cls-20{stroke:url(#linear-gradient-19);}.cls-21{stroke:url(#linear-gradient-20);}.cls-22{stroke:url(#linear-gradient-21);}.cls-23{stroke:url(#linear-gradient-22);}.cls-24{stroke:url(#linear-gradient-23);}.cls-25{stroke:url(#linear-gradient-24);}.cls-26{stroke:url(#linear-gradient-25);}.cls-27{stroke:url(#linear-gradient-26);}.cls-28{stroke:url(#linear-gradient-27);}.cls-29{stroke:url(#linear-gradient-28);}.cls-30{stroke:url(#linear-gradient-29);}.cls-31{stroke:url(#linear-gradient-30);}.cls-32{stroke:url(#linear-gradient-31);}.cls-33{stroke:url(#linear-gradient-32);}.cls-34{stroke:url(#linear-gradient-33);}.cls-35{stroke:url(#linear-gradient-34);}.cls-36{stroke:url(#linear-gradient-35);}</style><linearGradient id="linear-gradient" x1="50.78" y1="460.62" x2="2167.79" y2="460.62" gradientTransform="matrix(1, 0, 0, -1, 0, 646.92)" gradientUnits="userSpaceOnUse"><stop offset="0.01" stop-color="#b583fc"/><stop offset="1" stop-color="#aa1945"/></linearGradient><linearGradient id="linear-gradient-2" x1="49.99" y1="447.74" x2="2164.48" y2="447.74" xlink:href="#linear-gradient"/><linearGradient id="linear-gradient-3" x1="49.2" y1="434.66" x2="2161.19" y2="434.66" xlink:href="#linear-gradient"/><linearGradient id="linear-gradient-4" x1="48.41" y1="421.38" x2="2157.89" y2="421.38" xlink:href="#linear-gradient"/><linearGradient id="linear-gradient-5" x1="47.63" y1="407.83" x2="2154.6" y2="407.83" xlink:href="#linear-gradient"/><linearGradient id="linear-gradient-6" x1="46.84" y1="394.02" x2="2151.3" y2="394.02" xlink:href="#linear-gradient"/><linearGradient id="linear-gradient-7" x1="46.05" y1="379.91" x2="2148.01" y2="379.91" xlink:href="#linear-gradient"/><linearGradient id="linear-gradient-8" x1="45.26" y1="371.34" x2="2144.71" y2="371.34" xlink:href="#linear-gradient"/><linearGradient id="linear-gradient-9" x1="44.47" y1="362.49" x2="2141.41" y2="362.49" xlink:href="#linear-gradient"/><linearGradient id="linear-gradient-10" x1="43.68" y1="353.23" x2="2138.11" y2="353.23" xlink:href="#linear-gradient"/><linearGradient id="linear-gradient-11" x1="42.89" y1="343.54" x2="2134.82" y2="343.54" xlink:href="#linear-gradient"/><linearGradient id="linear-gradient-12" x1="42.1" y1="333.39" x2="2131.51" y2="333.39" xlink:href="#linear-gradient"/><linearGradient id="linear-gradient-13" x1="41.31" y1="322.73" x2="2128.22" y2="322.73" xlink:href="#linear-gradient"/><linearGradient id="linear-gradient-14" x1="40.52" y1="311.61" x2="2124.92" y2="311.61" xlink:href="#linear-gradient"/><linearGradient id="linear-gradient-15" x1="39.73" y1="300.09" x2="2121.63" y2="300.09" xlink:href="#linear-gradient"/><linearGradient id="linear-gradient-16" x1="38.94" y1="288.41" x2="2118.32" y2="288.41" xlink:href="#linear-gradient"/><linearGradient id="linear-gradient-17" x1="38.15" y1="276.76" x2="2115.03" y2="276.76" xlink:href="#linear-gradient"/><linearGradient id="linear-gradient-18" x1="37.36" y1="265.13" x2="2111.74" y2="265.13" xlink:href="#linear-gradient"/><linearGradient id="linear-gradient-19" x1="35.16" y1="272.82" x2="2116.03" y2="272.82" xlink:href="#linear-gradient"/><linearGradient id="linear-gradient-20" x1="32.96" y1="280.3" x2="2120.32" y2="280.3" xlink:href="#linear-gradient"/><linearGradient id="linear-gradient-21" x1="30.77" y1="287.6" x2="2124.61" y2="287.6" xlink:href="#linear-gradient"/><linearGradient id="linear-gradient-22" x1="28.57" y1="294.76" x2="2128.9" y2="294.76" xlink:href="#linear-gradient"/><linearGradient id="linear-gradient-23" x1="26.37" y1="301.82" x2="2133.19" y2="301.82" xlink:href="#linear-gradient"/><linearGradient id="linear-gradient-24" x1="24.17" y1="308.81" x2="2137.46" y2="308.81" xlink:href="#linear-gradient"/><linearGradient id="linear-gradient-25" x1="21.98" y1="313.31" x2="2141.77" y2="313.31" xlink:href="#linear-gradient"/><linearGradient id="linear-gradient-26" x1="19.78" y1="315.53" x2="2146.06" y2="315.53" xlink:href="#linear-gradient"/><linearGradient id="linear-gradient-27" x1="17.58" y1="317.69" x2="2150.35" y2="317.69" xlink:href="#linear-gradient"/><linearGradient id="linear-gradient-28" x1="15.38" y1="319.8" x2="2154.63" y2="319.8" xlink:href="#linear-gradient"/><linearGradient id="linear-gradient-29" x1="13.18" y1="321.93" x2="2158.93" y2="321.93" xlink:href="#linear-gradient"/><linearGradient id="linear-gradient-30" x1="10.99" y1="324.08" x2="2163.23" y2="324.08" xlink:href="#linear-gradient"/><linearGradient id="linear-gradient-31" x1="8.79" y1="326.25" x2="2167.51" y2="326.25" xlink:href="#linear-gradient"/><linearGradient id="linear-gradient-32" x1="6.59" y1="328.46" x2="2171.79" y2="328.46" xlink:href="#linear-gradient"/><linearGradient id="linear-gradient-33" x1="4.39" y1="330.69" x2="2176.09" y2="330.69" xlink:href="#linear-gradient"/><linearGradient id="linear-gradient-34" x1="2.19" y1="333.04" x2="2180.37" y2="333.04" xlink:href="#linear-gradient"/><linearGradient id="linear-gradient-35" x1="0" y1="335.44" x2="2184.66" y2="335.44" xlink:href="#linear-gradient"/></defs><g id="Layer_2" data-name="Layer 2"><g id="Layer_1-2" data-name="Layer 1"><g class="cls-1"><path class="cls-2" d="M52.28,259.88s168,168,424.67,27.18,438.67-299,669.67-76.61,459.67,106.26,641.67-89,378-19.77,378-19.77"/><path class="cls-3" d="M51.49,278.41c.41,0,179.9,156.4,430.21,12.38s435-295.39,664.06-71.93,456.85,111.44,635-81.78S2163,120.24,2163,120.24"/><path class="cls-4" d="M50.7,297c.82,0,191.8,144.75,435.76-2.42S917.88,2.76,1144.92,227.27s454,116.62,628.37-74.59,386.4-13.91,386.4-13.91"/><path class="cls-5" d="M49.91,315.48c1.23,0,203.7,133.1,441.3-17.22S919,10.11,1144.06,235.67s451.23,121.8,621.73-67.41,390.6-11,390.6-11"/><path class="cls-6" d="M49.13,334c1.65.06,215.6,121.46,446.85-32s424.17-284.53,647.24-57.92,448.42,127,615.08-60.22,394.8-8.05,394.8-8.05"/><path class="cls-7" d="M48.34,352.56c2.06.08,227.5,109.81,452.39-46.82s420.54-280.9,641.64-53.25,445.6,132.15,608.43-53,399-5.11,399-5.11"/><path class="cls-8" d="M47.55,371.09c2.47.1,239.4,98.16,457.94-61.62s416.92-277.28,636-48.57,442.79,137.33,601.79-45.85,403.2-2.18,403.2-2.18"/><path class="cls-9" d="M46.76,389.63c2.88.11,251.3,86.52,463.48-76.42s413.29-273.66,630.43-43.9,440,142.51,595.14-38.67,407.4.75,407.4.75"/><path class="cls-10" d="M46,408.16c3.29.13,263.2,74.87,469-91.22s409.67-270,624.82-39.23S1577,425.4,1728.31,246.22s411.6,3.68,411.6,3.68"/><path class="cls-11" d="M45.18,426.7c3.7.15,275.1,63.23,474.57-106s406-266.42,619.22-34.56,434.35,152.87,581.84-24.3,415.8,6.61,415.8,6.61"/><path class="cls-12" d="M44.39,445.24c4.11.16,287,51.58,480.12-120.83s402.42-262.79,613.61-29.88,431.54,158,575.2-17.12,420,9.54,420,9.54"/><path class="cls-13" d="M43.6,463.77c4.53.18,298.9,39.93,485.66-135.63s398.8-259.17,608-25.21S1566,466.15,1705.81,293,2130,305.47,2130,305.47"/><path class="cls-14" d="M42.81,482.31c4.94.19,310.8,28.29,491.21-150.43s395.17-255.55,602.4-20.54,425.92,168.4,561.9-2.75,428.4,15.4,428.4,15.4"/><path class="cls-15" d="M42,500.84c5.35.21,322.7,16.64,496.75-165.23s391.55-251.93,596.79-15.87,423.1,173.58,555.26,4.44,432.6,18.33,432.6,18.33"/><path class="cls-16" d="M41.23,519.38c5.76.23,334.6,5,502.3-180s387.92-248.3,591.19-11.19S1555,506.92,1683.33,339.78,2120.13,361,2120.13,361"/><path class="cls-17" d="M40.44,537.92c6.17.24,346.5-6.65,507.84-194.83s384.3-244.68,585.58-6.52,417.48,183.93,542,18.81,441,24.19,441,24.19"/><path class="cls-18" d="M39.65,556.45c6.58.26,358.4-18.3,513.39-209.63S933.71,105.76,1133,345s414.66,189.11,535.31,26,445.2,27.13,445.2,27.13"/><path class="cls-19" d="M38.86,575c7,.28,370.3-29.94,518.93-224.43s377.05-237.44,574.37,2.82S1544,547.67,1660.83,386.56s449.41,30.06,449.41,30.06"/><path class="cls-20" d="M36.66,571.86c7,.11,368.55-28.91,517-227.8S943.41,96,1124.26,346.86c157.66,218.71,338.21,213.48,463.28,104.34a451,451,0,0,0,67.67-74.11c61.51-84.12,170.46-81.4,268.11-50.66,104.55,32.9,191.21,87.8,191.21,87.8"/><path class="cls-21" d="M34.46,568.73c7-.05,366.81-27.87,515-231.17s401.93-257.67,566.92,2.78c150.89,238.19,335.93,225.38,464.22,105.07a563.56,563.56,0,0,0,69-77.8c66.23-89.91,176.31-89.35,275.83-53.7,107.88,38.64,193.4,97.91,193.4,97.91"/><path class="cls-22" d="M32.27,565.61c7-.21,365.07-26.84,513-234.54s413.39-266.35,563.19,2.76c143.83,258.38,333.69,237.35,465.16,105.81A719.76,719.76,0,0,0,1644,358.16c70.94-95.7,182.15-97.24,283.54-56.73,111.21,44.44,195.6,108,195.6,108"/><path class="cls-23" d="M30.07,562.48c7-.37,363.32-25.81,511-237.91s424.15-274.31,559.46,2.74c136.34,279.17,331.49,249.37,466.1,106.55a939.86,939.86,0,0,0,71.69-85.17c75.66-101.48,188-105.1,291.26-59.76,114.53,50.27,197.79,118.13,197.79,118.13"/><path class="cls-24" d="M27.87,559.35c7-.53,361.58-24.77,509.05-241.28s434.22-281.74,555.73,2.72C1221,621.23,1422,582.23,1559.69,428.08c26-29.12,50.65-58.76,73-88.85,80.37-107.27,193.81-112.91,299-62.8,117.84,56.15,200,128.25,200,128.25"/><path class="cls-25" d="M25.67,556.22c7-.69,359.84-23.74,507.07-244.65s443.64-288.78,552,2.7c119.74,322.09,327.2,273.54,468,108,26.35-31,51.43-61.82,74.37-92.54,85.09-113,199.62-120.69,306.69-65.83C2054.91,326,2136,402.29,2136,402.29"/><path class="cls-26" d="M23.48,553.1c7-.86,358.1-22.7,505.1-248s452.47-295.57,548.28,2.68c110.51,344,325.11,285.66,468.92,108.77,26.69-32.82,52.2-64.88,75.7-96.23,89.8-118.84,205.42-128.45,314.41-68.86,124.41,68,204.38,148.47,204.38,148.47"/><path class="cls-27" d="M21.28,550c7-1,356.35-21.67,503.12-251.39S985.15-3.62,1069,301.24c100.64,366.11,323,297.82,469.87,109.5,27-34.67,53-67.94,77-99.91,94.51-124.63,211.2-136.18,322.13-71.9,127.68,74,206.57,158.58,206.57,158.58"/><path class="cls-28" d="M19.08,546.84c7-1.18,354.61-20.63,501.15-254.76s468.55-308.77,540.82,2.64c90.12,388.32,321,310,470.81,110.24,27.38-36.51,53.75-71,78.38-103.6,99.23-130.41,217-143.89,329.84-74.93,130.92,80,208.77,168.69,208.77,168.69"/><path class="cls-29" d="M16.88,543.72c7-1.34,352.87-19.6,499.17-258.13S992-29.75,1053.14,288.21c79,410.55,319,322.18,471.75,111,27.73-38.35,54.53-74.06,79.72-107.29,103.94-136.2,222.73-151.58,337.56-78,134.15,86,211,178.81,211,178.81"/><path class="cls-30" d="M14.68,540.59c7-1.5,351.12-18.56,497.19-261.5s483-322,533.37,2.6c67.22,432.75,317.06,334.38,472.69,111.72,28.08-40.18,55.3-77.12,81.06-111,108.66-142,228.47-159.26,345.28-81,137.36,92,213.16,188.92,213.16,188.92"/><path class="cls-31" d="M12.49,537.46c7-1.66,349.38-17.53,495.22-264.87s489.66-328.69,529.64,2.57c54.9,454.89,315.11,346.59,473.63,112.46,28.45-42,56.08-80.18,82.4-114.66,113.37-147.77,234.2-166.93,353-84,140.56,98.09,215.36,199,215.36,199"/><path class="cls-32" d="M10.29,534.33c7-1.82,347.64-16.49,493.24-268.24s496.09-335.53,525.91,2.55c42.06,476.92,313.18,358.82,474.57,113.2,28.81-43.85,56.85-83.24,83.74-118.35,118.09-153.56,239.91-174.59,360.71-87.07C2092.2,280.57,2166,385.56,2166,385.56"/><path class="cls-33" d="M8.09,531.21c7-2,345.9-15.46,491.26-271.61s502.3-342.52,522.18,2.53c28.74,498.79,311.28,371,475.51,113.93q43.77-68.52,85.08-122c122.8-159.35,245.62-182.24,368.42-90.1,146.91,110.23,219.75,219.25,219.75,219.25"/><path class="cls-34" d="M5.89,528.08c7-2.15,344.15-14.43,489.29-275s508.32-349.65,518.46,2.51c15,520.52,309.77,383.5,476.45,114.67q44.42-71.2,86.42-125.72C1704,79.43,1827.65,54.91,1952.65,151.43,2102.5,268,2174.59,380.8,2174.59,380.8"/><path class="cls-35" d="M3.69,525c7-2.31,342.41-13.39,487.31-278.35s514.17-356.94,514.73,2.49c.83,542.07,307.72,395.62,477.39,115.41q44.94-74,87.75-129.41c132.23-170.92,256.9-197.4,383.86-96.17,153.09,122.54,224.14,239.48,224.14,239.48"/><path class="cls-36" d="M1.5,521.82c7-2.47,340.67-12.36,485.33-281.72s519.9-364.4,511,2.47C984.16,806,1303.5,650.32,1476.16,358.72S1800.49-2.07,1956.83,126.43,2183.16,376,2183.16,376"/></g></g></g></svg>