<svg id="Layer_1" data-name="Layer 1" xmlns="http://www.w3.org/2000/svg" viewBox="0 0 622.14 50.61"><defs><style>.cls-1{fill:#fff;}</style></defs><path class="cls-1" d="M146.13,1.07c-.4.7-2.2.9-4.3.6l-3.6-.4.2,23.5c.2,13,.7,24,1.2,24.5a4,4,0,0,0,3.2.4c2.2-.4,2.2-.4-.3-.6-1.5,0-3-.6-3.4-1.3s-.3-.8.3-.5c1.4.9,65.6,1.3,67.1.4a3.24,3.24,0,0,0,1.1-2.5c0-1.2-.3-1.1-.9.5-1.5,3.7-1.8,2.6-.8-2.2a43.3,43.3,0,0,0,.4-10.3c-.3-3.1-.6-6.4-.7-7.2s.2-5.1.6-9.5c.5-5.7.3-8.9-.6-11a12.22,12.22,0,0,1-1.1-3.6c0-.3-1.3-.3-3-.1-2.1.3-2.9.1-2.4-.7.9-1.4.7-1.4-3-.1l-2.9,1,.2,18.3c.1,11.6-.3,18.7-1,19.5-1.5,1.8-39.3,1.4-40.9-.5-.6-.7-.7-1.3-.2-1.3s.3-.4-.5-.9a2.13,2.13,0,0,1-.7-2.7c.4-1.1.7-8.4.6-16.4-.1-12.8-.3-14.6-2-16.2C147.43.59,146.63.39,146.13,1.07Z" transform="translate(-0.01 0)"/><path class="cls-1" d="M338.53.49c-.3.3-14,.6-30.5.7-27.1.1-30.1.2-32.1,1.8-2.2,1.8-3.1,4.7-1.1,3.4.7-.4.9,0,.5,1.4a2.44,2.44,0,0,0,.4,2.7c1.3.8,1.3,6.8-.1,8.2-.8.8-.8,2.2,0,4.9,1.4,5,1.4,9.4,0,9.4-.6,0-.9,2.4-.7,6.5.3,6,.5,6.6,3,7.7,1.5.7,2.2,1.5,1.7,1.9s.6,1,2.6,1.3c3.9.8,6.7-.6,5.9-2.9a1.64,1.64,0,0,1,.4-1.9c.5-.3.5-2.7-.1-5.8-.9-5.5.2-10.8,2.3-10.8.6,0,.8.5.5,1-.4.7,1.7.9,5.9.7,7.4-.4,8.2-.1,17.9,8.9,9.2,8.5,10.9,9.3,16.3,8.8,3.5-.3,4.5-.1,3.4.6s-.4,1,2.8,1,4.2-.4,4.2-1.7-.3-1.4-1.2-.5a3.79,3.79,0,0,1-2.1,1.2c-.5,0-.1-.7.8-1.7,1.6-1.5,1.3-1.8-3.7-4.9-2.9-1.8-5.7-3.6-6.3-4.1a11.32,11.32,0,0,0-2.7-1.6,3.27,3.27,0,0,1-1.8-3.2c0-1.4-.5-2.5-1.1-2.5s-.9.9-.6,2.1c.4,1.6.3,1.8-.9.8-3.3-2.7.4-5.1,7.5-4.8,1.9.1,1.5.4-1.4.9-2.5.5-.6.6,5.3.4,9.6-.3,11.2-.7,11.2-2.7,0-.6-.7-.2-1.5.9-1.3,1.7-1.3,1.6-.3-1.6,1.6-5.2,2.1-10,1.2-10-1.7,0-1.6-9,.1-10.6s1.1-3.9-.6-2.8c-.5.3-.8,0-.7-.8a.8.8,0,0,0-.45-1,.77.77,0,0,0-.45-.05c-.7.2-1.3-.2-1.3-.7C340.73-.11,339.43-.31,338.53.49ZM322,2.69a7.58,7.58,0,0,1-3,0c-1-.3-.4-.5,1.2-.5S322.63,2.39,322,2.69Zm-29.3,7.2c0,.6,7.8.9,18.5.9,10.2,0,18.5.3,18.6.8a10.93,10.93,0,0,0,1,2.6c.6,1.1.5,1.9-.2,2.3a1.67,1.67,0,0,0-.5,2c1.1,3-1.8,3.5-20.3,3.3l-18.6-.2,17.5-.6,17.5-.6H308c-9.9.1-17.9-.2-17.6-.7s-.1-.7-.7-.7-.8-.5-.5-1,.2-1-.3-1c-1.2,0-1-5.6.2-6.7.5-.5.6-.2.2.7s-.1.7.6-.3C291.33,8.89,292.73,8.39,292.73,9.89ZM287.23,49a3.47,3.47,0,0,1-2.8.9c-2-.1-2-.2.3-.9,1.4-.4,2.6-.8,2.8-.9S287.53,48.39,287.23,49Z" transform="translate(-0.01 0)"/><path class="cls-1" d="M424.23,1c-.4.6-1.9,1-3.3.9-3-.4-5.2.7-5.2,2.4,0,.6.7.2,1.5-.9,1.3-1.7,1.4-1.6.5,1.3-.5,2-.5,3.5.1,3.8s.9,3.2.9,6.3c0,4.2-.3,5.3-1.1,4.2s-.9,2.2-.7,11.2c.2,6.9,0,12.4-.4,12.2-1-.6.2,2.5,2,5.3a4.49,4.49,0,0,0,3.6,2.2c1.9-.1,1.9-.2-.4-.9-1.4-.5,11.6-.8,29.3-.8,20.6.1,32.2-.3,32.8-.9s.9-4.3.7-8.6c-.2-4.8.1-7.3.7-6.9s.7.1.2-.3-3.6-.8-7-.8l-6.2.1V35c0,2.8-.5,4.4-1.7,5.1-2.6,1.4-38.8.5-39.8-1.1-.4-.7-.7-9-.6-18.6l.1-17.3-2.7-1.5Q424.83-.06,424.23,1Zm-5.8,26.2c-.2,1.3-.4.5-.4-1.7s.1-3.2.4-2.3A13.41,13.41,0,0,1,418.43,27.19Zm0,10c-.2,1.3-.4.5-.4-1.7s.1-3.2.4-2.3A13.41,13.41,0,0,1,418.43,37.19Z" transform="translate(-0.01 0)"/><path class="cls-1" d="M586.53.69a2,2,0,0,0,1.9-.1c.4-.3-.2-.6-1.3-.5S585.73.39,586.53.69Z" transform="translate(-0.01 0)"/><path class="cls-1" d="M4.23,1.89c-3.7.6-4,.8-3.7,3.6.8,7.7,1,28.8.2,25.5-.6-2.6-.8-.9-.7,6,.2,7.5.6,9.9,2,11.5s2.1,1.8,3.8.7c2.6-1.7,53.6-1.5,58,.1,2.2.9,3.2.8,4.1-.1,1.1-1.1.9-1.2-.7-.7s-1.5.3.3-.6c1.9-1.1,2.2-1.7,1.6-5.3a40.26,40.26,0,0,1-.5-6.1c0-1.1.3-6.4.6-11.7.3-5.5.1-10.8-.5-12.4s-.7-3.1-.2-3.8.5-2.5.1-4.1l-.8-3-17.1-.2c-9.9-.1-18.4.3-20.1.9-2.2.8-3.4.7-4.2-.1C25.23.89,11.43.79,4.23,1.89Zm51.9,7.7c1.1,1,1.6,3.4,1.6,7,0,4.9-.2,5.5-2.6,6.4-3.1,1.2-17.9,1.1-21.1-.1s-5.5-.1-5.1,2.4c.4,2.9,4.9,3.7,18.1,3.1l10.7-.5v5.8c0,3.3-.5,6.4-1.2,7.1-1.7,1.7-41.9,1.7-43.6,0-1.5-1.5-1.6-9.2-.1-8.3.7.5,1-2.7.8-10.6l-.3-11.4,19.6-.5c10.8-.3,20-.8,20.4-1.3C54.33,7.79,54.33,7.79,56.13,9.59Zm12.3,11.6c-.3.8-.6.5-.6-.6s.2-1.7.5-1.3a2,2,0,0,1,.1,1.9Z" transform="translate(-0.01 0)"/><path class="cls-1" d="M36.43,20.69a40.91,40.91,0,0,0,7,0c2.1-.2.7-.4-3.2-.4S34.73,20.49,36.43,20.69Z" transform="translate(-0.01 0)"/><path class="cls-1" d="M25.92,24.49c0,1.6.2,2.2.5,1.2a7.57,7.57,0,0,0,0-3C26.13,22.07,25.92,22.79,25.92,24.49Z" transform="translate(-0.01 0)"/><path class="cls-1" d="M27.53,30.19a3.34,3.34,0,0,0,2.8.6c1.4-.3,1.2-.5-.9-1C27.53,29.49,26.92,29.59,27.53,30.19Z" transform="translate(-0.01 0)"/><path class="cls-1" d="M581,3.19c-1.9,2.1-10,15.9-14.1,23.9a56.05,56.05,0,0,1-5,8.4,10.21,10.21,0,0,0-2.2,4.1,5.26,5.26,0,0,1-2,3.1c-2.5,2.2-2.8,7.5-.3,6.6.9-.4,1.4-.2,1,.3-.4.7,1.1.8,4.1.4,6.7-1,10.2-2.6,10.2-4.8,0-1,1.1-3.3,2.5-5.2s2.5-3.9,2.5-4.6a1.94,1.94,0,0,1,.8-1.6c1.1-.4,5.7-10.4,6.6-14.1.3-1.5,1.2-2.7,2-2.7,1.5,0,4.6,3.1,4.6,4.7,0,.5,1.8,3.8,4,7.2s4,6.9,4,7.9c0,1.5.2,1.5,1.1.2s1-1.1.7.5c-.3,1.8-1,2-5.9,1.7-7.2-.5-8.7,1.1-7,6.8l1.2,4,6.7-.1c5.5-.1,6-.3,3.2-.9-2.5-.5-1.3-.7,4.2-.6,4.3,0,7.2.4,6.5.8-1.8,1.2,8.1,1,10.3-.2s1.8-3.2-1-6.5a58.52,58.52,0,0,1-5-8c-5.4-10-17.3-29.9-18.7-31.5C594,.79,583.13.89,581,3.19Z" transform="translate(-0.01 0)"/><path class="cls-1" d="M206.83,4.59c0,1.1.3,1.4.6.6a2,2,0,0,0-.1-1.9C207,2.89,206.73,3.49,206.83,4.59Z" transform="translate(-0.01 0)"/><path class="cls-1" d="M0,18c0,3,.2,4.3.4,2.7a25.28,25.28,0,0,0,0-5.5C.23,13.69,0,15,0,18Z" transform="translate(-0.01 0)"/><path class="cls-1" d="M206.83,22.59c0,1.1.3,1.4.6.6a2,2,0,0,0-.1-1.9C207,20.89,206.73,21.49,206.83,22.59Z" transform="translate(-0.01 0)"/><path class="cls-1" d="M485.83,34.59c0,1.1.3,1.4.6.6a2,2,0,0,0-.1-1.9C486,32.89,485.73,33.49,485.83,34.59Z" transform="translate(-0.01 0)"/><path class="cls-1" d="M484.92,47c-.9,1.4-2.4,2-5.5,2.1s-3.5.3-1.3.6c3.9.6,7.3-.4,8-2.3C487,45,486.33,44.79,484.92,47Z" transform="translate(-0.01 0)"/><path class="cls-1" d="M15,49.69a47,47,0,0,0,7.5,0c2-.2.3-.4-3.8-.4S12.92,49.49,15,49.69Z" transform="translate(-0.01 0)"/><path class="cls-1" d="M35.53,49.69c3.9.2,10.5.2,14.5,0s.7-.3-7.3-.3S31.53,49.59,35.53,49.69Z" transform="translate(-0.01 0)"/><path class="cls-1" d="M158,49.69c3.7.2,9.6.2,13,0s.4-.3-6.8-.3S154.33,49.49,158,49.69Z" transform="translate(-0.01 0)"/><path class="cls-1" d="M200.53,49.69a5.28,5.28,0,0,0,2.5,0c.6-.3.1-.5-1.3-.5S199.83,49.39,200.53,49.69Z" transform="translate(-0.01 0)"/><path class="cls-1" d="M435.92,49.69c4.8.2,12.9.2,18,0s1.2-.3-8.7-.3S431.13,49.59,435.92,49.69Z" transform="translate(-0.01 0)"/></svg>