<svg id="Layer_1" data-name="Layer 1" xmlns="http://www.w3.org/2000/svg" viewBox="0 0 622.09 50.61"><path d="M375.21,516c-.4.7-2.2.9-4.3.6l-3.6-.4.2,23.5c.2,13,.7,24,1.2,24.5a4,4,0,0,0,3.2.4c2.2-.4,2.2-.4-.3-.6-1.5,0-3-.6-3.4-1.3s-.3-.8.3-.5c1.4.9,65.6,1.3,67.1.4a3.25,3.25,0,0,0,1.1-2.5c0-1.2-.3-1.1-.9.5-1.5,3.7-1.8,2.6-.8-2.2a43.13,43.13,0,0,0,.4-10.3c-.3-3.1-.6-6.4-.7-7.2s.2-5.1.6-9.5c.5-5.7.3-8.9-.6-11a12,12,0,0,1-1.1-3.6c0-.3-1.3-.3-3-.1-2.1.3-2.9.1-2.4-.7.9-1.4.7-1.4-3-.1l-2.9,1,.2,18.3c.1,11.6-.3,18.7-1,19.5-1.5,1.8-39.3,1.4-40.9-.5-.6-.7-.7-1.3-.2-1.3s.3-.4-.5-.9a2.13,2.13,0,0,1-.7-2.7c.4-1.1.7-8.4.6-16.4-.1-12.8-.3-14.6-2-16.2C376.51,515.52,375.71,515.32,375.21,516Z" transform="translate(-229.08 -514.93)"/><path d="M567.61,515.42c-.3.3-14,.6-30.5.7-27.1.1-30.1.2-32.1,1.8-2.2,1.8-3.1,4.7-1.1,3.4.7-.4.9,0,.5,1.4a2.44,2.44,0,0,0,.4,2.7c1.3.8,1.3,6.8-.1,8.2-.8.8-.8,2.2,0,4.9,1.4,5,1.4,9.4,0,9.4-.6,0-.9,2.4-.7,6.5.3,6,.5,6.6,3,7.7,1.5.7,2.2,1.5,1.7,1.9s.6,1,2.6,1.3c3.9.8,6.7-.6,5.9-2.9a1.64,1.64,0,0,1,.4-1.9c.5-.3.5-2.7-.1-5.8-.9-5.5.2-10.8,2.3-10.8.6,0,.8.5.5,1-.4.7,1.7.9,5.9.7,7.4-.4,8.2-.1,17.9,8.9,9.2,8.5,10.9,9.3,16.3,8.8,3.5-.3,4.5-.1,3.4.6s-.4,1,2.8,1,4.2-.4,4.2-1.7-.3-1.4-1.2-.5a3.83,3.83,0,0,1-2.1,1.2c-.5,0-.1-.7.8-1.7,1.6-1.5,1.3-1.8-3.7-4.9-2.9-1.8-5.7-3.6-6.3-4.1a11.32,11.32,0,0,0-2.7-1.6,3.26,3.26,0,0,1-1.8-3.2c0-1.4-.5-2.5-1.1-2.5s-.9.9-.6,2.1c.4,1.6.3,1.8-.9.8-3.3-2.7.4-5.1,7.5-4.8,1.9.1,1.5.4-1.4.9-2.5.5-.6.6,5.3.4,9.6-.3,11.2-.7,11.2-2.7,0-.6-.7-.2-1.5.9-1.3,1.7-1.3,1.6-.3-1.6,1.6-5.2,2.1-10,1.2-10-1.7,0-1.6-9,.1-10.6s1.1-3.9-.6-2.8c-.5.3-.8,0-.7-.8a.81.81,0,0,0-.9-1.1c-.7.2-1.3-.2-1.3-.7C569.81,514.82,568.51,514.62,567.61,515.42Zm-16.5,2.2a7.56,7.56,0,0,1-3,0c-1-.3-.4-.5,1.2-.5S551.71,517.32,551.11,517.62Zm-29.3,7.2c0,.6,7.8.9,18.5.9,10.2,0,18.5.3,18.6.8a11.09,11.09,0,0,0,1,2.6c.6,1.1.5,1.9-.2,2.3a1.67,1.67,0,0,0-.5,2c1.1,3-1.8,3.5-20.3,3.3l-18.6-.2,17.5-.6,17.5-.6h-18.2c-9.9.1-17.9-.2-17.6-.7s-.1-.7-.7-.7-.8-.5-.5-1,.2-1-.3-1c-1.2,0-1-5.6.2-6.7.5-.5.6-.2.2.7s-.1.7.6-.3C520.41,523.82,521.81,523.32,521.81,524.82Zm-5.5,39.1a3.47,3.47,0,0,1-2.8.9c-2-.1-2-.2.3-.9,1.4-.4,2.6-.8,2.8-.9S516.61,563.32,516.31,563.92Z" transform="translate(-229.08 -514.93)"/><path d="M653.31,515.92c-.4.6-1.9,1-3.3.9-3-.4-5.2.7-5.2,2.4,0,.6.7.2,1.5-.9,1.3-1.7,1.4-1.6.5,1.3-.5,2-.5,3.5.1,3.8s.9,3.2.9,6.3c0,4.2-.3,5.3-1.1,4.2s-.9,2.2-.7,11.2c.2,6.9,0,12.4-.4,12.2-1-.6.2,2.5,2,5.3a4.47,4.47,0,0,0,3.6,2.2c1.9-.1,1.9-.2-.4-.9-1.4-.5,11.6-.8,29.3-.8,20.6.1,32.2-.3,32.8-.9s.9-4.3.7-8.6c-.2-4.8.1-7.3.7-6.9s.7.1.2-.3-3.6-.8-7-.8l-6.2.1v4.2c0,2.8-.5,4.4-1.7,5.1-2.6,1.4-38.8.5-39.8-1.1-.4-.7-.7-9-.6-18.6l.1-17.3-2.7-1.5Q653.91,514.87,653.31,515.92Zm-5.8,26.2c-.2,1.3-.4.5-.4-1.7s.1-3.2.4-2.3A13.39,13.39,0,0,1,647.51,542.12Zm0,10c-.2,1.3-.4.5-.4-1.7s.1-3.2.4-2.3A13.39,13.39,0,0,1,647.51,552.12Z" transform="translate(-229.08 -514.93)"/><path d="M815.61,515.62a2,2,0,0,0,1.9-.1c.4-.3-.2-.6-1.3-.5S814.81,515.32,815.61,515.62Z" transform="translate(-229.08 -514.93)"/><path d="M233.31,516.82c-3.7.6-4,.8-3.7,3.6.8,7.7,1,28.8.2,25.5-.6-2.6-.8-.9-.7,6,.2,7.5.6,9.9,2,11.5s2.1,1.8,3.8.7c2.6-1.7,53.6-1.5,58,.1,2.2.9,3.2.8,4.1-.1,1.1-1.1.9-1.2-.7-.7s-1.5.3.3-.6c1.9-1.1,2.2-1.7,1.6-5.3a40.65,40.65,0,0,1-.5-6.1c0-1.1.3-6.4.6-11.7.3-5.5.1-10.8-.5-12.4s-.7-3.1-.2-3.8.5-2.5.1-4.1l-.8-3-17.1-.2c-9.9-.1-18.4.3-20.1.9-2.2.8-3.4.7-4.2-.1C254.31,515.82,240.51,515.72,233.31,516.82Zm51.9,7.7c1.1,1,1.6,3.4,1.6,7,0,4.9-.2,5.5-2.6,6.4-3.1,1.2-17.9,1.1-21.1-.1s-5.5-.1-5.1,2.4c.4,2.9,4.9,3.7,18.1,3.1l10.7-.5v5.8c0,3.3-.5,6.4-1.2,7.1-1.7,1.7-41.9,1.7-43.6,0-1.5-1.5-1.6-9.2-.1-8.3.7.5,1-2.7.8-10.6l-.3-11.4,19.6-.5c10.8-.3,20-.8,20.4-1.3C283.41,522.72,283.41,522.72,285.21,524.52Zm12.3,11.6c-.3.8-.6.5-.6-.6s.2-1.7.5-1.3A2,2,0,0,1,297.51,536.12Z" transform="translate(-229.08 -514.93)"/><path d="M265.51,535.62a40.89,40.89,0,0,0,7,0c2.1-.2.7-.4-3.2-.4S263.81,535.42,265.51,535.62Z" transform="translate(-229.08 -514.93)"/><path d="M255,539.42c0,1.6.2,2.2.5,1.2a7.56,7.56,0,0,0,0-3C255.21,537,255,537.72,255,539.42Z" transform="translate(-229.08 -514.93)"/><path d="M256.61,545.12a3.31,3.31,0,0,0,2.8.6c1.4-.3,1.2-.5-.9-1C256.61,544.42,256,544.52,256.61,545.12Z" transform="translate(-229.08 -514.93)"/><path d="M810.11,518.12c-1.9,2.1-10,15.9-14.1,23.9a56.15,56.15,0,0,1-5,8.4,10.32,10.32,0,0,0-2.2,4.1,5.28,5.28,0,0,1-2,3.1c-2.5,2.2-2.8,7.5-.3,6.6.9-.4,1.4-.2,1,.3-.4.7,1.1.8,4.1.4,6.7-1,10.2-2.6,10.2-4.8,0-1,1.1-3.3,2.5-5.2s2.5-3.9,2.5-4.6a1.92,1.92,0,0,1,.8-1.6c1.1-.4,5.7-10.4,6.6-14.1.3-1.5,1.2-2.7,2-2.7,1.5,0,4.6,3.1,4.6,4.7,0,.5,1.8,3.8,4,7.2s4,6.9,4,7.9c0,1.5.2,1.5,1.1.2s1-1.1.7.5c-.3,1.8-1,2-5.9,1.7-7.2-.5-8.7,1.1-7,6.8l1.2,4,6.7-.1c5.5-.1,6-.3,3.2-.9-2.5-.5-1.3-.7,4.2-.6,4.3,0,7.2.4,6.5.8-1.8,1.2,8.1,1,10.3-.2s1.8-3.2-1-6.5a58.92,58.92,0,0,1-5-8c-5.4-10-17.3-29.9-18.7-31.5C823.11,515.72,812.21,515.82,810.11,518.12Z" transform="translate(-229.08 -514.93)"/><path d="M435.91,519.52c0,1.1.3,1.4.6.6a2,2,0,0,0-.1-1.9C436.11,517.82,435.81,518.42,435.91,519.52Z" transform="translate(-229.08 -514.93)"/><path d="M229.11,532.92c0,3,.2,4.3.4,2.7a25.28,25.28,0,0,0,0-5.5C229.31,528.62,229.11,529.92,229.11,532.92Z" transform="translate(-229.08 -514.93)"/><path d="M435.91,537.52c0,1.1.3,1.4.6.6a2,2,0,0,0-.1-1.9C436.11,535.82,435.81,536.42,435.91,537.52Z" transform="translate(-229.08 -514.93)"/><path d="M714.91,549.52c0,1.1.3,1.4.6.6a2,2,0,0,0-.1-1.9C715.11,547.82,714.81,548.42,714.91,549.52Z" transform="translate(-229.08 -514.93)"/><path d="M714,561.92c-.9,1.4-2.4,2-5.5,2.1s-3.5.3-1.3.6c3.9.6,7.3-.4,8-2.3C716.11,559.92,715.41,559.72,714,561.92Z" transform="translate(-229.08 -514.93)"/><path d="M244.11,564.62a47,47,0,0,0,7.5,0c2-.2.3-.4-3.8-.4S242,564.42,244.11,564.62Z" transform="translate(-229.08 -514.93)"/><path d="M264.61,564.62c3.9.2,10.5.2,14.5,0s.7-.3-7.3-.3S260.61,564.52,264.61,564.62Z" transform="translate(-229.08 -514.93)"/><path d="M387.11,564.62c3.7.2,9.6.2,13,0s.4-.3-6.8-.3S383.41,564.42,387.11,564.62Z" transform="translate(-229.08 -514.93)"/><path d="M429.61,564.62a5.28,5.28,0,0,0,2.5,0c.6-.3.1-.5-1.3-.5S428.91,564.32,429.61,564.62Z" transform="translate(-229.08 -514.93)"/><path d="M665,564.62c4.8.2,12.9.2,18,0s1.2-.3-8.7-.3S660.21,564.52,665,564.62Z" transform="translate(-229.08 -514.93)"/></svg>