<svg id="Layer_1" data-name="Layer 1" xmlns="http://www.w3.org/2000/svg" viewBox="0 0 623.92 50.77"><defs><style>.cls-1{fill:#fff;}</style></defs><path class="cls-1" d="M63.89.82a5,5,0,0,1,3.2,2.6c.7,1.9.8,1.9.8-.1.1-2.2-1.7-3.5-4.7-3.3C62.19.12,62.48.42,63.89.82Z" transform="translate(0.01 0)"/><path class="cls-1" d="M.59,4.32a13.08,13.08,0,0,0,3,5.7c1.3,1.4,2.4,2.8,2.4,3.2,0,.7,18.7,33.6,20.2,35.4.5.7,2.5,1,4.6.8s5.1-.4,6.8-.4c3-.1,3.7-.9,10.8-12.8,4.2-7,7.6-13.6,7.6-14.5a3.27,3.27,0,0,1,1.3-2.5C59.39,17.92,66,6.42,66,4c0-1.6-.6-2.1-2.7-2.1-1.6,0-5.6-.2-9-.4a48,48,0,0,0-9.8.4c-1.9.4-3.7.5-4,.1s-1.8-.6-3.5-.3c-3.5.5-4.9,3.7-3,7.2,1,1.8,1.8,2.1,5.7,1.7,7.4-.6,8.7,2.3,3.6,7.8-1.1,1.1-3.1,4.6-4.6,7.8-3.5,7.4-6.3,7.8-9.4,1.4-3.3-6.9-13.4-24.7-14.4-25.2-.4-.3-4-.7-7.8-.8L0,1.32Z" transform="translate(0.01 0)"/><path class="cls-1" d="M138,1.12c-.1.2-.2,5.6-.2,12s-.5,11.5-.9,11.3-.6.6-.6,2,.3,2.3.7,2,1.6.5,2.8,1.5c1.8,1.7,3.4,2,9.9,1.8l7.8-.2-7.5-.6c-7-.6-6.8-.7,4.6-.8,8.2-.1,12.4.2,13.2,1s1.2.9,1.2-.1c0-1.6,21.7-1.2,22.9.4,2,2.5,2.2,5.7.5,7.6-1.4,1.6-3.1,1.9-10.1,1.9-5.4,0-8.2-.4-7.8-1s-2.8-1-8.9-1c-5.7,0-9.6.4-9.6,1s-2.7,1-6,1-6-.4-6-.9c0-1.4-4.9-.8-5.5.7-.3.7-.9,1.1-1.4.8-1.1-.7-.2,3.4,1,5,.5.6.7,1.3.4,1.6-.8.7,1.2.9,11.5,1.2l9.5.3-8.5-.7c-5.3-.4,2.3-.6,20-.7,16.7,0,26.9.3,24.5.8-3.5.7-3.2.7,1.8.4,4.2-.3,5.5,0,5,.8-.3.7.2.4,1.3-.5,1.8-1.6,2-2.9,1.8-13.3-.2-6.4-.7-12.2-1.3-12.9a1.73,1.73,0,0,1-.3-2.1c.4-.5.1-.5-.7,0s-12.1.8-25.3.9c-18.1.1-24.4-.2-25.8-1.1-2.1-1.5-3.4-6.3-2.5-9.2.6-1.9,1.6-1.9,27.9-1.8,15.1.1,27.2-.1,27-.5s0-.9.6-1.3,1-.1,1,.5.5.8,1.1.4c.8-.4.7-.9-.2-1.4a4.18,4.18,0,0,1-1.4-2.7c-.3-4.3-.6-4.3-25.8-4.1-16.9.1-21.5.4-15.2.8,8,.6,7.3.6-6,.7-8.7,0-13.7-.3-12-.7,2.5-.6,2-.8-2.7-.9C140.6,1.05,138,1.05,138,1.12Zm49.3,1.5a35.28,35.28,0,0,1-6.5,0c-1.8-.2-.4-.4,3.2-.4S189,2.42,187.3,2.62Zm10,0a7.57,7.57,0,0,1-3,0c-1-.3-.4-.5,1.2-.5S197.9,2.32,197.3,2.62Zm-29.5,38a30.07,30.07,0,0,1-6,0c-1.8-.2-.6-.4,2.7-.4S169.3,40.42,167.8,40.62Z" transform="translate(0.01 0)"/><path class="cls-1" d="M276.4,2.22c-1.9,1.1-2.1,1.9-1.8,13.5.2,6.7.6,12.7.9,13.2s.1,1-.4,1a1.1,1.1,0,0,1-1.1-1.1c0-.5-.5-.7-1-.4-1.9,1.2.2,2.6,3,2,1.5-.3,3.1-.2,3.4.3s2.3.8,4.3.5a59.31,59.31,0,0,1,6.8-.5c4.8.1,31.7,0,34.5-.2a6.14,6.14,0,0,1,3.8,1.1c1.5,1.4,1.6,5.9.1,6.9-.6.3-12.7.7-27,.8-26.8.1-28.4.4-28.4,4.3,0,1,1.1,2.8,2.4,4.1,2,2,2.7,2.2,4.8,1.3a19.85,19.85,0,0,1,7.1-.9l4.7.1-5,.7c-2.9.4,4.6.8,17.8.8,15.6.2,23.3-.2,24.6-.9a5.69,5.69,0,0,1,4.7-.4,12.79,12.79,0,0,0,4.3.6c.8-.1,1,.2.5,1s-.3,1,.7.4c2.6-1.5,4.9-3.8,4.9-4.9,0-.7-.3-.7-.8.1-.4.6-.6-4.2-.5-10.8.2-13.6-.4-15-6.5-14.7l-3.7.1,3.5.4c3.7.5,6,1.9,6,3.6,0,.6-.6.3-1.2-.6-1.1-1.4-4.5-1.6-26.6-1.8-18.9-.2-25.5-.6-26.3-1.5-1.5-1.8-1.8-8.2-.5-9.3.6-.5,12.8-.8,27-.7,22.4.2,26.2,0,27.6-1.3s1.4-2.1.4-4.6l-1.2-3-31.9-.2C287.49,1.12,277.9,1.42,276.4,2.22Z" transform="translate(0.01 0)"/><path class="cls-1" d="M418.2,1.82a12.27,12.27,0,0,1-.2,1.6c-.1.5-.2,9.3-.2,19.5-.1,16.7-.2,17.5-.8,8l-.7-10.5.1,12.5c.1,6.9.5,13.1.9,13.7.6,1,8.1,1.3,31.8,1.3,17.1,0,30.8.4,30.5.8-.6,1,3.5.9,5.2-.1a3.89,3.89,0,0,0,1.1-3c-.1-2.1-.1-2.1-.8.2-.4,1.4-1.2,2.6-1.9,2.7s-.8,0-.2-.3c1.4-.6,1.4-43.9,0-44.8-.6-.4-.8-.9-.6-1.3s-1.8-.5-4.6-.3-5.1.8-5.4,1.5c-.8,2.2-1,29.7-.2,30.2,1.5.9.8,5.3-.9,6.2-1.4.7-38.4,1-41.5.3-.4,0-.6-1.3-.6-2.9.2-11.6-.4-32.9-1-33.8C427.49,2.12,418,.72,418.2,1.82Z" transform="translate(0.01 0)"/><path class="cls-1" d="M557.81,1.92a2.76,2.76,0,0,1-2.5,1.2c-1.4.2-1.9.7-1.5,1.7.3.8.1,1.2-.5.8s-1,0-1,.8.3,1.3.5,1,1,.2,1.6,1c.8,1.1,4,1.5,13.4,1.7,8.6.1,12.6.6,13.4,1.5s.8,6.6.4,17.9c-.4,9.2-.8,17.2-.9,17.8s1.5.9,3.8.9c3.8-.2,3.8-.1,1,.7s-2.8.8,1.3.9c3,.1,4.1-.2,3.6-1.1-.5-.7-.1-.9,1.3-.6,1.1.3,2,0,2-.6a23.91,23.91,0,0,1,.7-4.1c.5-2.2.4-2.6-.4-1.5s-1-2.5-1-12c0-7.4-.3-14.5-.6-15.7-.9-3.4,2-4.1,17.2-4.5l13.9-.3.2-2.5.2-2.5-.9,2.5c-.8,2.3-.9,2.2-.7-1,.1-2.8-.1-3.4-1.6-3.2-.9.2-1.7-.2-1.7-.8,0-.8-3.4-1-11.2-.6-6.2.3-18,.7-26.3.9l-15,.3,14.5-.6,14.5-.6-18.7-.2C564.61,1.05,558,1.32,557.81,1.92Zm50,.7a30.07,30.07,0,0,1-6,0c-1.8-.2-.6-.4,2.7-.4S609.31,2.42,607.81,2.62Z" transform="translate(0.01 0)"/><path class="cls-1" d="M136.2,6.92c0,1.9.2,2.7.5,1.7a10.28,10.28,0,0,0,0-3.5C136.4,4.22,136.2,5.05,136.2,6.92Z" transform="translate(0.01 0)"/><path class="cls-1" d="M485.3,7.42c0,2.2.2,3,.4,1.7a13.41,13.41,0,0,0,0-4C485.4,4.22,485.2,5.22,485.3,7.42Z" transform="translate(0.01 0)"/><path class="cls-1" d="M416.2,10.42c0,1.6.2,2.2.5,1.2a7.58,7.58,0,0,0,0-3C416.4,8.05,416.2,8.72,416.2,10.42Z" transform="translate(0.01 0)"/><path class="cls-1" d="M580.31,20.92c0,2.5.2,3.5.4,2.2a17,17,0,0,0,0-4.5C580.5,17.42,580.31,18.42,580.31,20.92Z" transform="translate(0.01 0)"/><path class="cls-1" d="M594.41,27.42c0,6,.1,8.4.3,5.2a100.91,100.91,0,0,0,0-11C594.5,18.72,594.41,21.32,594.41,27.42Z" transform="translate(0.01 0)"/><path class="cls-1" d="M160.3,20.62a10.28,10.28,0,0,0,3.5,0c.9-.3.1-.5-1.8-.5S159.3,20.32,160.3,20.62Z" transform="translate(0.01 0)"/><path class="cls-1" d="M178.3,20.62a7.58,7.58,0,0,0,3,0c.6-.3-.1-.5-1.8-.5S177.3,20.32,178.3,20.62Z" transform="translate(0.01 0)"/><path class="cls-1" d="M191.8,20.62a35.28,35.28,0,0,0,6.5,0c1.7-.2.3-.4-3.3-.4S190,20.42,191.8,20.62Z" transform="translate(0.01 0)"/><path class="cls-1" d="M154.8,21.62a5.28,5.28,0,0,0,2.5,0c.6-.3.1-.5-1.3-.5S154.1,21.32,154.8,21.62Z" transform="translate(0.01 0)"/><path class="cls-1" d="M168.8,21.62a5.28,5.28,0,0,0,2.5,0c.6-.3.1-.5-1.3-.5S168.1,21.32,168.8,21.62Z" transform="translate(0.01 0)"/><path class="cls-1" d="M205.6,24.42c.8,3.7,1.4,4.5,1.4,1.9a8,8,0,0,0-1-3.4C205.2,21.82,205.1,22.22,205.6,24.42Z" transform="translate(0.01 0)"/><path d="M415.1,45.05c-.1,1.7,2.9,4.9,4.5,4.9.5,0,.1-.5-.9-1.1a7.76,7.76,0,0,1-2.7-3.2Q415.1,43.37,415.1,45.05Z" transform="translate(0.01 0)"/><path d="M167.8,49.62a83.41,83.41,0,0,0,10,0c2.6-.2.2-.3-5.3-.3S164.9,49.42,167.8,49.62Z" transform="translate(0.01 0)"/><path d="M439.3,49.62c5.9.2,15.4.2,21,0s.8-.3-10.8-.3S433.4,49.52,439.3,49.62Z" transform="translate(0.01 0)"/></svg>